<svg width="68" height="68" viewBox="0 0 68 68" fill="none" xmlns="http://www.w3.org/2000/svg">
<path d="M34 58C47.2548 58 58 47.2548 58 34C58 20.7452 47.2548 10 34 10C20.7452 10 10 20.7452 10 34C10 47.2548 20.7452 58 34 58Z" fill="white" stroke="#002C42" stroke-width="2" stroke-miterlimit="10"/>
<path d="M26.5787 25.8L24.6387 33H23.4987L21.5287 25.8H22.4087L24.0787 32.39L25.7987 25.8H26.5787ZM26.9611 30.3C26.9611 29.7467 27.0277 29.2867 27.1611 28.92C27.2944 28.5533 27.4644 28.2633 27.6711 28.05C27.8844 27.83 28.1211 27.6767 28.3811 27.59C28.6477 27.4967 28.9077 27.45 29.1611 27.45C29.4144 27.45 29.6711 27.4933 29.9311 27.58C30.1911 27.6667 30.4244 27.82 30.6311 28.04C30.8444 28.2533 31.0177 28.5433 31.1511 28.91C31.2844 29.2767 31.3511 29.74 31.3511 30.3C31.3511 30.86 31.2844 31.32 31.1511 31.68C31.0177 32.04 30.8444 32.3267 30.6311 32.54C30.4244 32.7467 30.1911 32.8933 29.9311 32.98C29.6711 33.06 29.4144 33.1 29.1611 33.1C28.9077 33.1 28.6477 33.06 28.3811 32.98C28.1211 32.8933 27.8844 32.7433 27.6711 32.53C27.4644 32.3167 27.2944 32.03 27.1611 31.67C27.0277 31.31 26.9611 30.8533 26.9611 30.3ZM27.8011 30.3C27.8011 31.06 27.9244 31.6167 28.1711 31.97C28.4244 32.3167 28.7577 32.49 29.1711 32.49C29.5911 32.49 29.9211 32.32 30.1611 31.98C30.4011 31.6333 30.5211 31.0733 30.5211 30.3C30.5211 29.5333 30.3944 28.97 30.1411 28.61C29.8877 28.2433 29.5611 28.06 29.1611 28.06C28.7677 28.06 28.4411 28.2433 28.1811 28.61C27.9277 28.9767 27.8011 29.54 27.8011 30.3ZM32.7854 25.65H33.5854V33H32.7854V25.65ZM38.9377 27.6L37.2977 33H36.1077L34.4877 27.6H35.3477L36.7177 32.46L38.1277 27.6H38.9377ZM41.7292 32.46C41.8958 32.46 42.0425 32.4367 42.1692 32.39C42.3025 32.3367 42.4158 32.27 42.5092 32.19C42.6025 32.11 42.6792 32.02 42.7392 31.92C42.8058 31.82 42.8558 31.72 42.8892 31.62L43.5892 31.77C43.5292 31.9433 43.4425 32.11 43.3292 32.27C43.2225 32.43 43.0892 32.5733 42.9292 32.7C42.7758 32.82 42.5925 32.9167 42.3792 32.99C42.1725 33.0633 41.9392 33.1 41.6792 33.1C41.4258 33.1 41.1725 33.0567 40.9192 32.97C40.6658 32.8767 40.4358 32.7233 40.2292 32.51C40.0225 32.2967 39.8558 32.01 39.7292 31.65C39.6025 31.29 39.5392 30.84 39.5392 30.3C39.5392 29.7533 39.5992 29.3 39.7192 28.94C39.8458 28.5733 40.0058 28.28 40.1992 28.06C40.3992 27.84 40.6225 27.6833 40.8692 27.59C41.1158 27.4967 41.3658 27.45 41.6192 27.45C42.3058 27.45 42.8225 27.6867 43.1692 28.16C43.5225 28.6333 43.6992 29.39 43.6992 30.43H40.3592C40.3658 30.85 40.4092 31.1933 40.4892 31.46C40.5692 31.72 40.6725 31.9267 40.7992 32.08C40.9258 32.2267 41.0692 32.3267 41.2292 32.38C41.3892 32.4333 41.5558 32.46 41.7292 32.46ZM41.6692 28.05C41.3225 28.05 41.0325 28.19 40.7992 28.47C40.5658 28.7433 40.4225 29.1933 40.3692 29.82H42.8892C42.8758 29.24 42.7625 28.8 42.5492 28.5C42.3425 28.2 42.0492 28.05 41.6692 28.05ZM45.051 33V27.6H45.631L45.811 28.39C46.0643 27.7767 46.461 27.47 47.001 27.47C47.0743 27.47 47.1443 27.4733 47.211 27.48C47.2776 27.4867 47.331 27.4967 47.371 27.51V28.29C47.311 28.2767 47.251 28.2667 47.191 28.26C47.131 28.2467 47.061 28.24 46.981 28.24C46.8476 28.24 46.7243 28.27 46.611 28.33C46.4976 28.3833 46.3943 28.46 46.301 28.56C46.2076 28.6533 46.1243 28.7667 46.051 28.9C45.9776 29.0267 45.911 29.16 45.851 29.3V33H45.051ZM25.9983 43L25.8183 42.36C25.665 42.5733 25.4617 42.75 25.2083 42.89C24.9617 43.03 24.6383 43.1 24.2383 43.1C24.0717 43.1 23.895 43.0733 23.7083 43.02C23.5283 42.9733 23.3617 42.8933 23.2083 42.78C23.055 42.66 22.9283 42.5033 22.8283 42.31C22.7283 42.11 22.6783 41.86 22.6783 41.56C22.6783 41.26 22.7383 41.0033 22.8583 40.79C22.9783 40.57 23.135 40.3867 23.3283 40.24C23.5283 40.0867 23.755 39.9667 24.0083 39.88C24.2683 39.7933 24.535 39.73 24.8083 39.69L25.7383 39.55V39.18C25.7383 39.0267 25.7217 38.88 25.6883 38.74C25.655 38.6 25.5983 38.48 25.5183 38.38C25.445 38.2733 25.345 38.19 25.2183 38.13C25.0917 38.07 24.935 38.04 24.7483 38.04C24.4617 38.04 24.225 38.12 24.0383 38.28C23.8517 38.44 23.7283 38.64 23.6683 38.88L22.8783 38.74C23.025 38.36 23.2583 38.05 23.5783 37.81C23.905 37.57 24.3117 37.45 24.7983 37.45C25.3583 37.45 25.7883 37.6033 26.0883 37.91C26.3883 38.2167 26.5383 38.6733 26.5383 39.28V43H25.9983ZM24.4783 42.46C24.745 42.46 24.9817 42.4067 25.1883 42.3C25.395 42.1933 25.5783 42.0533 25.7383 41.88V40.12L25.0183 40.24C24.5383 40.32 24.165 40.4567 23.8983 40.65C23.6383 40.8367 23.5083 41.12 23.5083 41.5C23.5083 41.84 23.5983 42.0867 23.7783 42.24C23.9583 42.3867 24.1917 42.46 24.4783 42.46ZM28.1369 43V37.6H28.7169L28.8969 38.39C29.1502 37.7767 29.5469 37.47 30.0869 37.47C30.1602 37.47 30.2302 37.4733 30.2969 37.48C30.3636 37.4867 30.4169 37.4967 30.4569 37.51V38.29C30.3969 38.2767 30.3369 38.2667 30.2769 38.26C30.2169 38.2467 30.1469 38.24 30.0669 38.24C29.9336 38.24 29.8102 38.27 29.6969 38.33C29.5836 38.3833 29.4802 38.46 29.3869 38.56C29.2936 38.6533 29.2102 38.7667 29.1369 38.9C29.0636 39.0267 28.9969 39.16 28.9369 39.3V43H28.1369ZM31.4572 43V37.6H32.0372L32.2172 38.39C32.4706 37.7767 32.8672 37.47 33.4072 37.47C33.4806 37.47 33.5506 37.4733 33.6172 37.48C33.6839 37.4867 33.7372 37.4967 33.7772 37.51V38.29C33.7172 38.2767 33.6572 38.2667 33.5972 38.26C33.5372 38.2467 33.4672 38.24 33.3872 38.24C33.2539 38.24 33.1306 38.27 33.0172 38.33C32.9039 38.3833 32.8006 38.46 32.7072 38.56C32.6139 38.6533 32.5306 38.7667 32.4572 38.9C32.3839 39.0267 32.3172 39.16 32.2572 39.3V43H31.4572ZM34.7175 36.62V35.65H35.6375V36.62H34.7175ZM34.7775 43V37.6H35.5775V43H34.7775ZM37.1799 43V35.65H37.9799V38.09C38.1465 37.89 38.3432 37.7333 38.5699 37.62C38.7965 37.5067 39.0599 37.45 39.3599 37.45C39.5865 37.45 39.7999 37.5 39.9999 37.6C40.1999 37.7 40.3765 37.8633 40.5299 38.09C40.6832 38.31 40.8032 38.5967 40.8899 38.95C40.9832 39.3033 41.0299 39.7333 41.0299 40.24C41.0299 41.1733 40.8532 41.8833 40.4999 42.37C40.1532 42.8567 39.6665 43.1 39.0399 43.1C38.7865 43.1 38.5665 43.0533 38.3799 42.96C38.1999 42.86 38.0465 42.7333 37.9199 42.58L37.8299 43H37.1799ZM39.0299 38.11C38.8232 38.11 38.6332 38.1667 38.4599 38.28C38.2865 38.3867 38.1265 38.5167 37.9799 38.67V42.07C38.0999 42.1967 38.2332 42.3033 38.3799 42.39C38.5332 42.4767 38.6999 42.52 38.8799 42.52C39.0732 42.52 39.2499 42.48 39.4099 42.4C39.5699 42.3133 39.7065 42.1767 39.8199 41.99C39.9399 41.8033 40.0299 41.5633 40.0899 41.27C40.1565 40.97 40.1899 40.61 40.1899 40.19C40.1899 39.79 40.1599 39.4567 40.0999 39.19C40.0465 38.9233 39.9665 38.71 39.8599 38.55C39.7599 38.39 39.6365 38.2767 39.4899 38.21C39.3499 38.1433 39.1965 38.11 39.0299 38.11ZM45.3831 43L45.2031 42.36C45.0498 42.5733 44.8464 42.75 44.5931 42.89C44.3464 43.03 44.0231 43.1 43.6231 43.1C43.4564 43.1 43.2798 43.0733 43.0931 43.02C42.9131 42.9733 42.7464 42.8933 42.5931 42.78C42.4398 42.66 42.3131 42.5033 42.2131 42.31C42.1131 42.11 42.0631 41.86 42.0631 41.56C42.0631 41.26 42.1231 41.0033 42.2431 40.79C42.3631 40.57 42.5198 40.3867 42.7131 40.24C42.9131 40.0867 43.1398 39.9667 43.3931 39.88C43.6531 39.7933 43.9198 39.73 44.1931 39.69L45.1231 39.55V39.18C45.1231 39.0267 45.1064 38.88 45.0731 38.74C45.0398 38.6 44.9831 38.48 44.9031 38.38C44.8298 38.2733 44.7298 38.19 44.6031 38.13C44.4764 38.07 44.3198 38.04 44.1331 38.04C43.8464 38.04 43.6098 38.12 43.4231 38.28C43.2364 38.44 43.1131 38.64 43.0531 38.88L42.2631 38.74C42.4098 38.36 42.6431 38.05 42.9631 37.81C43.2898 37.57 43.6964 37.45 44.1831 37.45C44.7431 37.45 45.1731 37.6033 45.4731 37.91C45.7731 38.2167 45.9231 38.6733 45.9231 39.28V43H45.3831ZM43.8631 42.46C44.1298 42.46 44.3664 42.4067 44.5731 42.3C44.7798 42.1933 44.9631 42.0533 45.1231 41.88V40.12L44.4031 40.24C43.9231 40.32 43.5498 40.4567 43.2831 40.65C43.0231 40.8367 42.8931 41.12 42.8931 41.5C42.8931 41.84 42.9831 42.0867 43.1631 42.24C43.3431 42.3867 43.5764 42.46 43.8631 42.46Z" fill="black"/>
</svg>
