<svg width="77" height="77" xmlns="http://www.w3.org/2000/svg" fill="none">

 <g>
  <title>Layer 1</title>
  <path id="svg_1" fill="white" d="m38.46354,0.34483c-20.9532,0 -38,17.0468 -38,38c0,20.9532 17.0468,38 38,38c20.953,0 38,-17.0468 38,-38c0,-20.9532 -17.047,-38 -38,-38zm0,69.0909c-17.1438,0 -31.0909,-13.9474 -31.0909,-31.0909c0,-17.1435 13.9471,-31.09091 31.0909,-31.09091c17.144,0 31.091,13.94741 31.091,31.09091c0,17.1435 -13.947,31.0909 -31.091,31.0909z"/>
  <path id="svg_2" fill="white" d="m54.60554,23.50943l-19.9662,19.2757l-9.1507,-8.8347c-1.3781,-1.3305 -3.613,-1.3307 -4.9913,-0.0002c-1.3784,1.3307 -1.3784,3.4881 0,4.8189l11.6462,11.2442c0.6619,0.639 1.5595,0.9982 2.4955,0.9982c0.0003,0 0,0 0.0003,0c0.936,0 1.8336,-0.3592 2.4955,-0.998l22.4617,-21.685c1.378,-1.3307 1.378,-3.4881 0,-4.8188c-1.378,-1.3308 -3.613,-1.331 -4.991,-0.0003z"/>
 </g>
</svg>