<svg xmlns="http://www.w3.org/2000/svg" version="1.0" width="33" height="33" viewBox="0 0 334.000000 333.000000">
<g transform="translate(0.000000,333.000000) scale(0.100000,-0.100000)"
fill="#000000" stroke="none">
<path d="M1185 3245 c-393 -87 -664 -399 -700 -805 -15 -172 47 -404 144 -537
l30 -42 56 30 c30 17 55 32 55 34 0 2 -14 24 -30 49 -65 96 -119 249 -120 338
0 25 3 27 53 30 l52 3 0 65 0 65 -52 3 -52 3 6 32 c19 108 89 260 157 342 l25
30 38 -37 38 -37 46 44 47 44 -34 40 -34 39 48 31 c99 63 201 100 325 117 l47
6 0 -56 0 -56 65 0 65 0 0 50 c0 46 2 50 24 50 89 0 376 -141 376 -184 0 -5
-16 -23 -35 -40 l-35 -31 45 -50 44 -50 33 33 c19 17 38 32 44 32 12 0 64 -85
98 -160 23 -52 56 -186 56 -230 0 -18 -6 -20 -55 -20 l-55 0 0 -64 0 -63 83
-6 c45 -4 98 -7 119 -7 l36 0 4 53 c10 130 -29 321 -90 442 -122 243 -346 414
-614 469 -93 19 -269 20 -353 1z"/>
<path d="M1310 2642 c-22 -12 -44 -36 -60 -66 -23 -45 -31 -50 -120 -87 -52
-22 -119 -50 -149 -61 -37 -14 -70 -38 -108 -77 l-53 -56 27 -6 c78 -18 121
-10 270 52 112 46 154 59 178 55 87 -17 110 -17 144 2 101 55 91 203 -16 248
-43 19 -72 18 -113 -4z"/>
<path d="M2715 2268 c-74 -8 -230 -38 -385 -74 -88 -20 -309 -20 -540 0 -180
16 -187 16 -262 -3 -115 -30 -305 -111 -578 -247 -396 -198 -492 -255 -585
-349 -86 -86 -153 -190 -200 -310 -42 -107 -39 -137 35 -321 57 -140 71 -165
115 -210 101 -102 268 -158 359 -120 32 13 42 14 56 4 9 -7 36 -28 60 -46 50
-37 123 -62 189 -63 l46 0 -45 -21 c-25 -11 -184 -78 -355 -150 -170 -71 -311
-131 -313 -133 -3 -3 55 -145 63 -153 4 -4 2918 1201 2945 1218 11 7 9 20 -14
79 -15 39 -32 73 -36 76 -5 3 -91 -29 -192 -71 -101 -41 -190 -78 -198 -82 -8
-3 6 17 31 44 56 61 89 143 89 223 l0 58 98 70 c125 91 144 112 144 157 0 42
-70 179 -135 263 -55 72 -138 150 -172 163 -31 12 -108 11 -220 -2z m207 -209
c26 -28 69 -85 94 -125 38 -61 44 -77 34 -89 -16 -19 -142 -98 -195 -121 -22
-10 -42 -19 -43 -21 -2 -1 5 -27 17 -58 27 -71 26 -120 -2 -170 -41 -73 -123
-108 -198 -86 -56 17 -93 53 -120 116 -19 45 -28 55 -44 52 -26 -5 -1337 -546
-1348 -556 -4 -4 1 -27 12 -52 24 -52 27 -129 7 -168 -22 -42 -81 -89 -121
-97 -87 -16 -156 23 -200 114 -16 34 -35 62 -42 62 -6 0 -40 -13 -75 -28 -101
-46 -107 -46 -187 -6 -39 20 -78 45 -86 57 -28 44 -115 268 -115 299 0 48 122
248 192 314 90 86 869 476 1035 519 73 19 111 19 438 -1 l270 -17 155 36 c163
38 328 65 454 75 12 1 39 -18 68 -49z m-463 -743 c43 -44 117 -76 197 -84 l62
-7 -760 -315 c-418 -173 -765 -317 -771 -319 -7 -2 5 15 27 39 51 57 85 133
89 203 2 31 6 59 9 62 9 10 1082 453 1099 454 8 0 30 -14 48 -33z"/>
<path d="M170 2260 c0 -5 7 -25 16 -44 9 -19 15 -40 12 -48 -3 -7 -47 -31 -97
-52 -50 -21 -91 -44 -91 -51 0 -10 77 -195 84 -202 1 -2 45 15 96 37 52 22 98
40 104 40 6 0 19 -20 29 -45 11 -25 22 -45 25 -45 8 0 124 291 119 296 -12 12
-297 121 -297 114z"/>
</g>
</svg>
