<svg xmlns="http://www.w3.org/2000/svg" version="1.0" width="33" height="33" viewBox="0 0 334.000000 333.000000">
<g transform="translate(0.000000,333.000000) scale(0.100000,-0.100000)"
fill="#000000" stroke="none">
<path d="M1427 3315 c-477 -78 -873 -330 -1138 -723 -121 -181 -217 -413 -254
-617 -9 -49 -21 -106 -26 -125 -6 -21 -9 -108 -7 -210 4 -190 26 -312 90 -505
163 -492 554 -883 1049 -1048 183 -62 341 -87 538 -87 151 0 185 3 305 29 251
55 424 126 608 250 658 443 918 1275 624 2003 -90 224 -193 376 -375 559 -247
246 -505 387 -846 459 -133 28 -438 36 -568 15z m384 -195 c576 -59 1062 -446
1243 -990 60 -181 71 -252 71 -465 0 -211 -13 -298 -67 -458 -235 -702 -952
-1120 -1673 -976 -568 114 -1008 542 -1143 1112 -24 103 -26 129 -26 322 0
193 2 219 26 322 157 664 728 1125 1409 1142 31 0 103 -4 160 -9z"/>
<path d="M780 1675 c0 -327 2 -595 5 -595 7 0 887 570 902 584 9 8 -66 61
-305 215 -174 113 -381 247 -459 298 l-143 93 0 -595z"/>
<path d="M1870 1670 l0 -600 130 0 130 0 0 600 0 600 -130 0 -130 0 0 -600z"/>
<path d="M2307 2263 c-4 -3 -7 -271 -7 -595 l0 -588 130 0 130 0 0 595 0 595
-123 0 c-68 0 -127 -3 -130 -7z"/>
</g>
</svg>
