<svg xmlns="http://www.w3.org/2000/svg" version="1.0" width="33" height="33" viewBox="0 0 334.000000 333.000000">
<g transform="translate(0.000000,333.000000) scale(0.100000,-0.100000)"
fill="#000000" stroke="none">
<path d="M1623 2965 c-65 -28 -63 -5 -63 -732 0 -504 3 -664 13 -683 7 -14 30
-34 51 -44 36 -17 43 -18 80 -5 79 27 76 -3 76 732 0 717 2 700 -63 730 -42
20 -52 20 -94 2z"/>
<path d="M2094 2671 c-38 -23 -58 -70 -50 -114 7 -40 34 -66 96 -97 145 -72
308 -214 393 -343 53 -80 121 -228 143 -312 28 -105 26 -370 -4 -477 -97 -352
-383 -628 -748 -720 -75 -19 -115 -23 -259 -23 -155 0 -179 3 -270 28 -354 98
-619 352 -721 694 -22 74 -27 113 -31 243 -4 142 -2 163 21 255 46 176 134
334 256 455 68 69 135 118 258 189 58 33 77 51 89 79 30 71 -23 152 -100 152
-64 0 -256 -121 -380 -239 -384 -367 -483 -930 -247 -1404 135 -269 379 -486
676 -601 310 -120 684 -105 1002 40 238 108 487 355 591 586 96 212 136 453
106 653 -38 258 -113 432 -271 623 -107 130 -272 260 -416 327 -64 30 -93 31
-134 6z"/>
</g>
</svg>
