<svg width="32" height="32" viewBox="0 0 32 32" fill="none" xmlns="http://www.w3.org/2000/svg">
<path fill-rule="evenodd" clip-rule="evenodd" d="M23.0044 20.0114C21.4897 20.019 20.0603 20.7134 19.1182 21.8992L11.8154 17.3344C12.0816 16.4756 12.0816 15.5563 11.8154 14.6974L19.1182 10.1327C20.6486 12.0274 23.3228 12.5422 25.4475 11.3509C27.5721 10.1596 28.5275 7.60979 27.7087 5.31598C26.8899 3.02218 24.5357 1.6534 22.1368 2.07638C19.7379 2.49936 17.994 4.59072 18.0093 7.0262C18.014 7.47287 18.0813 7.91668 18.2091 8.34469L10.9063 12.9095C9.58485 11.2462 7.35575 10.6007 5.34979 11.3003C3.34384 12 2 13.8918 2 16.0159C2 18.1401 3.34384 20.0319 5.34979 20.7316C7.35575 21.4312 9.58485 20.7857 10.9063 19.1224L18.2091 23.6872C18.0813 24.1152 18.014 24.559 18.0093 25.0057C18.0093 27.764 20.2457 30 23.0044 30C25.7631 30 27.9994 27.764 27.9994 25.0057C27.9994 22.2474 25.7631 20.0114 23.0044 20.0114ZM23 4C24.6569 4 26 5.34315 26 7C26 8.65685 24.6569 10 23 10C21.3431 10 20 8.65685 20 7C20 5.34315 21.3431 4 23 4ZM7 19C5.34315 19 4 17.6569 4 16C4 14.3431 5.34315 13 7 13C8.65685 13 10 14.3431 10 16C10 17.6569 8.65685 19 7 19ZM23 28C21.3431 28 20 26.6569 20 25C20 23.3431 21.3431 22 23 22C24.6569 22 26 23.3431 26 25C26 26.6569 24.6569 28 23 28Z" fill=" #003145"/>
</svg>
