<svg width="36" height="36" viewBox="0 0 36 36" fill="none" xmlns="http://www.w3.org/2000/svg">
<path d="M29.8799 6.24094C29.7599 5.04094 28.7999 3.96094 27.5999 3.96094H9.23993C8.51993 3.96094 7.91993 4.20094 7.43993 4.68094C7.07993 5.16094 6.83993 5.76094 6.95993 6.36094V31.5609C6.95993 31.8009 7.19993 32.0409 7.43993 32.0409C7.55993 32.0409 7.67993 32.0409 7.67993 31.9209L9.59993 30.1209L11.0399 31.5609C11.1599 31.6809 11.5199 31.6809 11.6399 31.5609L13.0799 30.1209L14.5199 31.5609C14.6399 31.6809 14.9999 31.6809 15.1199 31.5609L16.5599 30.1209L17.9999 31.4409C18.1199 31.5609 18.4799 31.5609 18.5999 31.4409L20.1599 30.0009L21.5999 31.4409C21.7199 31.5609 22.0799 31.5609 22.1999 31.4409L23.6399 30.0009L25.5599 31.9209C25.6799 32.0409 25.7999 32.0409 25.9199 32.0409H26.0399C26.1599 31.9209 26.2799 31.8009 26.2799 31.6809V12.7209H28.9199C29.3999 12.7209 29.7599 12.3609 29.7599 11.8809L29.8799 6.24094ZM25.5599 30.4809L24.1199 29.0409C23.9999 28.9209 23.8799 28.9209 23.7599 28.9209C23.6399 28.9209 23.5199 28.9209 23.3999 29.0409L21.8399 30.4809L20.3999 29.0409C20.2799 28.9209 19.9199 28.9209 19.7999 29.0409L18.2399 30.6009L16.9199 29.1609C16.7999 29.0409 16.4399 29.0409 16.3199 29.1609L14.8799 30.6009L13.4399 29.1609C13.3199 29.0409 13.1999 29.0409 13.0799 29.0409C12.9599 29.0409 12.8399 29.0409 12.7199 29.1609L11.2799 30.6009L9.83993 29.1609C9.71993 29.0409 9.35993 29.0409 9.23993 29.1609L7.79993 30.6009V6.24094C7.79993 5.88094 7.91993 5.52094 8.03993 5.28094C8.39993 5.04094 8.87993 4.80094 9.23993 4.92094H25.4399V12.3609C25.4399 12.4809 25.4399 12.4809 25.4399 12.6009L25.5599 30.4809ZM26.3999 11.8809V5.88094C26.3999 5.16094 27.2399 4.92094 27.3599 4.92094H27.5999C28.7999 4.92094 29.0399 6.24094 29.0399 6.36094V11.8809H26.3999Z" fill="#002C42" stroke="#002C42" stroke-width="0.25" stroke-miterlimit="10"/>
<path d="M17.4005 6.96047H15.7205C15.6005 6.96047 15.4805 6.84047 15.4805 6.72047C15.4805 6.60047 15.6005 6.48047 15.7205 6.48047H17.4005C17.5205 6.48047 17.6405 6.60047 17.6405 6.72047C17.6405 6.84047 17.6405 6.96047 17.4005 6.96047Z" fill="#002C42"/>
<path d="M13.2004 8.7593H12.6004C12.4804 8.7593 12.3604 8.6393 12.3604 8.5193C12.3604 8.3993 12.4804 8.2793 12.6004 8.2793H13.2004C13.3204 8.2793 13.4404 8.3993 13.4404 8.5193C13.4404 8.6393 13.3204 8.7593 13.2004 8.7593Z" fill="#002C42"/>
<path d="M20.7599 8.7593H20.1599C20.0399 8.7593 19.9199 8.6393 19.9199 8.5193C19.9199 8.3993 20.0399 8.2793 20.1599 8.2793H20.7599C20.8799 8.2793 20.9999 8.3993 20.9999 8.5193C20.9999 8.6393 20.8799 8.7593 20.7599 8.7593Z" fill="#002C42"/>
<path d="M18.4804 8.76016H14.6404C14.5204 8.76016 14.4004 8.64016 14.4004 8.40016C14.4004 8.16016 14.5204 8.16016 14.6404 8.16016H18.4804C18.6004 8.16016 18.7204 8.28016 18.7204 8.40016C18.7204 8.52016 18.7204 8.76016 18.4804 8.76016Z" fill="#002C42"/>
<path d="M21.9602 23.8804H11.4002C11.2802 23.8804 11.1602 23.7604 11.1602 23.6404C11.1602 23.5204 11.2802 23.4004 11.4002 23.4004H21.9602C22.0802 23.4004 22.2002 23.5204 22.2002 23.6404C22.2002 23.7604 22.2002 23.8804 21.9602 23.8804Z" fill="#002C42"/>
<path d="M21.9602 25.6792H11.4002C11.2802 25.6792 11.1602 25.5592 11.1602 25.4392C11.1602 25.3192 11.2802 25.1992 11.4002 25.1992H21.9602C22.0802 25.1992 22.2002 25.3192 22.2002 25.4392C22.2002 25.5592 22.2002 25.6792 21.9602 25.6792Z" fill="#002C42"/>
<path d="M13.2004 27.3609H12.6004C12.4804 27.3609 12.3604 27.2409 12.3604 27.1209C12.3604 27.0009 12.4804 26.8809 12.6004 26.8809H13.2004C13.3204 26.8809 13.4404 27.0009 13.4404 27.1209C13.4404 27.2409 13.3204 27.3609 13.2004 27.3609Z" fill="#002C42"/>
<path d="M20.7599 27.3609H20.1599C20.0399 27.3609 19.9199 27.2409 19.9199 27.1209C19.9199 27.0009 20.0399 26.8809 20.1599 26.8809H20.7599C20.8799 26.8809 20.9999 27.0009 20.9999 27.1209C20.9999 27.2409 20.8799 27.3609 20.7599 27.3609Z" fill="#002C42"/>
<path d="M18.4804 27.3609H14.6404C14.5204 27.3609 14.4004 27.2409 14.4004 27.1209C14.4004 27.0009 14.5204 26.8809 14.6404 26.8809H18.4804C18.6004 26.8809 18.7204 27.0009 18.7204 27.1209C18.7204 27.2409 18.7204 27.3609 18.4804 27.3609Z" fill="#002C42"/>
<path d="M16.6804 12.3605C16.3204 12.3605 16.0804 12.4805 15.8404 12.6005C15.6004 12.8405 15.4804 13.0805 15.4804 13.4405C15.4804 13.6805 15.6004 14.0405 15.8404 14.1605C16.2004 14.4005 16.5604 14.6405 16.9204 14.7605L18.1204 15.2405C18.4804 15.3605 18.7204 15.6005 18.9604 15.8405C19.2004 16.0805 19.4404 16.3205 19.5604 16.6805C19.6804 17.0405 19.8004 17.4005 19.8004 17.7605C19.8004 18.1205 19.8004 18.3605 19.6804 18.7205C19.5604 19.0805 19.4404 19.3205 19.3204 19.5605C19.0804 19.8005 18.8404 20.0405 18.6004 20.1605C18.2404 20.4005 17.8804 20.5205 17.5204 20.5205V22.2005H15.9604V20.5205C15.6004 20.5205 15.2404 20.4005 14.8804 20.1605C14.6404 20.0405 14.2804 19.8005 14.1604 19.5605C14.0404 19.3205 13.8004 19.0805 13.6804 18.8405C13.5604 18.6005 13.5604 18.3605 13.4404 18.2405L15.2404 18.0005C15.2404 18.3605 15.4804 18.6005 15.6004 18.8405C15.8404 19.0805 16.2004 19.2005 16.5604 19.2005H17.0404C17.1604 19.2005 17.2804 19.0805 17.4004 18.9605C17.5204 18.8405 17.6404 18.7205 17.6404 18.6005C17.6404 18.3605 17.6404 18.2405 17.6404 18.0005C17.6404 17.7605 17.6404 17.6405 17.5204 17.4005C17.4004 17.1605 17.2804 17.0405 17.1604 16.9205C16.9204 16.8005 16.8004 16.6805 16.5604 16.5605L15.6004 16.2005C15.0004 15.9605 14.4004 15.6005 14.0404 15.1205C13.6804 14.6405 13.4404 14.1605 13.4404 13.5605C13.4404 12.9605 13.6804 12.3605 14.0404 11.8805C14.5204 11.4005 15.1204 11.0405 15.7204 11.0405V9.48047H17.2804V11.0405C17.6404 11.0405 17.8804 11.1605 18.2404 11.4005C18.4804 11.5205 18.7204 11.7605 18.8404 11.8805C18.9604 12.1205 19.2004 12.2405 19.3204 12.4805C19.4404 12.7205 19.4404 12.9605 19.5604 13.0805L17.7604 13.4405C17.7604 13.0805 17.6404 12.8405 17.4004 12.6005C17.1604 12.4805 16.9204 12.3605 16.6804 12.3605Z" fill="#002C42"/>
</svg>
