<svg xmlns="http://www.w3.org/2000/svg" version="1.0" width="33" height="33" viewBox="0 0 334.000000 333.000000">
<g transform="translate(0.000000,333.000000) scale(0.100000,-0.100000)"
fill="#000000" stroke="none">
<path d="M1705 2379 c-167 -22 -290 -72 -437 -176 -156 -111 -289 -194 -332
-209 -22 -7 -133 -30 -246 -49 -418 -74 -437 -80 -514 -166 -61 -68 -152 -221
-167 -281 -25 -101 28 -206 128 -254 90 -43 110 -60 144 -125 64 -120 160
-174 304 -173 127 1 211 47 279 152 l38 59 668 7 c517 6 673 5 688 -5 10 -7
27 -27 38 -46 29 -54 117 -129 176 -150 164 -56 347 13 424 162 30 58 39 64
121 90 104 33 235 140 281 232 31 60 45 156 38 258 -11 151 -35 288 -55 315
-26 36 -78 69 -120 75 -60 9 -83 27 -125 97 -73 120 -105 141 -251 174 -56 12
-162 16 -540 19 -259 2 -501 -1 -540 -6z m1025 -194 c47 -9 93 -18 103 -21 19
-6 100 -121 141 -201 69 -136 98 -256 100 -403 l1 -115 -63 -33 c-35 -19 -69
-31 -76 -29 -7 3 -27 29 -43 59 -36 63 -115 140 -169 164 -62 28 -204 25 -272
-5 -69 -31 -142 -111 -175 -193 l-25 -63 -658 0 -658 0 -54 80 c-100 149 -148
184 -279 200 -144 18 -249 -48 -348 -220 -10 -17 -13 -17 -43 -1 -18 9 -32 22
-32 29 0 27 70 157 106 197 41 45 105 86 156 100 18 5 114 21 213 35 210 30
321 55 396 88 30 13 116 66 192 118 268 183 319 208 467 229 36 5 261 7 500 5
353 -2 451 -6 520 -20z m-2067 -758 c56 -34 77 -71 77 -138 0 -92 -58 -158
-147 -166 -67 -6 -129 27 -160 87 -29 54 -29 94 0 150 42 85 150 116 230 67z
m2032 -11 c131 -100 47 -309 -118 -293 -159 15 -203 213 -67 305 49 33 132 28
185 -12z"/>
<path d="M2588 2113 c-40 -10 -14 -45 62 -83 25 -13 62 -36 82 -52 36 -28 114
-125 107 -132 -2 -2 -355 -9 -784 -15 -825 -12 -869 -14 -891 -32 -19 -16 -18
-46 3 -53 18 -7 1691 12 1730 20 13 2 29 17 37 32 14 27 13 31 -25 92 -87 136
-243 245 -321 223z"/>
</g>
</svg>
