<svg xmlns="http://www.w3.org/2000/svg" version="1.0" width="33" height="33" viewBox="0 0 334.000000 333.000000">
<g transform="translate(0.000000,333.000000) scale(0.100000,-0.100000)"
fill="#000000" stroke="none">
<path d="M1670 2330 c-117 -16 -151 -30 -503 -200 l-348 -169 -117 -11 c-292
-27 -491 -83 -603 -171 -49 -39 -49 -40 -49 -97 0 -32 -4 -62 -9 -67 -5 -6
-16 -36 -25 -69 l-15 -59 50 -126 c28 -69 54 -129 58 -134 4 -4 85 -13 179
-19 l171 -11 12 -30 c18 -44 98 -120 154 -147 71 -35 189 -40 266 -11 67 26
139 86 175 147 l26 44 608 0 608 0 26 -44 c35 -60 107 -121 172 -146 66 -24
173 -27 235 -5 64 23 140 86 174 143 22 39 36 52 54 52 12 0 80 21 150 46 123
44 127 47 158 94 25 38 35 68 44 133 l13 85 -43 51 -42 50 11 117 c10 98 9
118 -3 132 -8 10 -76 94 -152 187 -75 94 -138 171 -139 172 -3 3 -237 30 -421
48 -185 19 -776 28 -875 15z m860 -144 c91 -9 211 -22 266 -29 l102 -12 119
-147 119 -147 -7 -73 c-15 -146 -13 -160 30 -214 37 -46 39 -52 31 -93 -10
-57 -29 -73 -132 -109 l-87 -31 -6 37 c-17 102 -72 189 -152 239 -71 45 -115
56 -207 51 -99 -5 -165 -37 -231 -111 -46 -50 -85 -137 -85 -187 l0 -30 -589
0 -588 0 -7 48 c-13 101 -88 202 -188 253 -58 30 -186 38 -254 15 -111 -37
-202 -142 -225 -258 l-12 -58 -111 6 c-61 4 -114 9 -117 13 -11 11 -59 141
-59 160 0 10 9 30 20 44 14 17 20 40 20 75 0 46 3 52 33 71 94 58 282 103 505
121 l130 10 363 177 c320 154 374 177 444 189 109 18 651 12 875 -10z m-1675
-675 c112 -50 153 -178 95 -292 -44 -86 -177 -126 -267 -81 -109 56 -147 178
-91 287 48 91 166 130 263 86z m1888 -17 c101 -71 118 -220 33 -312 -88 -98
-269 -75 -329 41 -42 81 -32 168 26 234 70 79 186 95 270 37z"/>
<path d="M2571 2126 c-12 -14 -9 -22 21 -58 40 -50 78 -111 78 -125 0 -22
-1185 -131 -1467 -136 -79 -1 -143 -5 -143 -9 0 -3 -3 -14 -7 -24 -13 -34 417
-10 1167 66 526 53 500 49 500 79 0 39 -45 124 -94 177 -37 42 -43 45 -55 30z"/>
</g>
</svg>
