<svg width="36" height="36" viewBox="0 0 32 33" fill="none" xmlns="http://www.w3.org/2000/svg">
<path d="M31.0832 16.13C30.5739 16.13 30.1664 16.5374 30.1664 17.0468V25.3863C30.1664 27.6546 28.3192 29.495 26.0577 29.495H5.94228C3.67402 29.495 1.83362 27.6478 1.83362 25.3863V16.9109C1.83362 16.4016 1.42615 15.9941 0.916808 15.9941C0.40747 15.9941 0 16.4016 0 16.9109V25.3863C0 28.6665 2.66893 31.3286 5.94228 31.3286H26.0577C29.3379 31.3286 32 28.6597 32 25.3863V17.0468C32 16.5442 31.5925 16.13 31.0832 16.13Z" fill="#002C42"/>
<path d="M15.3545 24.0488C15.5311 24.2254 15.7688 24.3204 15.9997 24.3204C16.2306 24.3204 16.4683 24.2321 16.6449 24.0488L22.4717 18.222C22.8316 17.862 22.8316 17.2848 22.4717 16.9248C22.1118 16.5649 21.5345 16.5649 21.1746 16.9248L16.9165 21.1897V2.58868C16.9165 2.07935 16.509 1.67188 15.9997 1.67188C15.4904 1.67188 15.0829 2.07935 15.0829 2.58868V21.1897L10.818 16.9248C10.4581 16.5649 9.88086 16.5649 9.52093 16.9248C9.16099 17.2848 9.16099 17.862 9.52093 18.222L15.3545 24.0488Z" fill="#002C42"/>
</svg>
