<svg width="32" height="32" viewBox="0 0 32 32" fill="none" xmlns="http://www.w3.org/2000/svg">
<path d="M25 28H7C5.346 28 4 26.654 4 25V21C4 20.448 4.448 20 5 20C5.552 20 6 20.448 6 21V25C6 25.551 6.449 26 7 26H25C25.551 26 26 25.551 26 25V21C26 20.448 26.448 20 27 20C27.552 20 28 20.448 28 21V25C28 26.654 26.654 28 25 28Z" fill="white"/>
<path d="M20.7072 16.707L16.7072 20.707C16.3162 21.098 15.6842 21.098 15.2932 20.707L11.2932 16.707C11.0072 16.421 10.9212 15.991 11.0762 15.617C11.2312 15.244 11.5962 15 12.0002 15H15.0002V5C15.0002 4.448 15.4482 4 16.0002 4C16.5522 4 17.0002 4.448 17.0002 5V15H20.0002C20.4042 15 20.7692 15.244 20.9242 15.617C21.0792 15.991 20.9932 16.421 20.7072 16.707Z" fill="white"/>
</svg>
