<svg xmlns="http://www.w3.org/2000/svg" version="1.0" width="33" height="33" viewBox="0 0 334.000000 333.000000">
<g transform="translate(0.000000,333.000000) scale(0.100000,-0.100000)"
fill="#000000" stroke="none">
<path d="M1390 3310 c-168 -26 -451 -97 -471 -118 -9 -10 -29 -75 -45 -147
-28 -128 -28 -135 -31 -515 -2 -212 -6 -396 -9 -410 -3 -15 -90 -110 -210
-231 -112 -113 -204 -213 -204 -223 0 -22 44 -66 66 -66 10 0 93 75 186 167
l168 167 0 -209 0 -209 -199 -200 c-234 -236 -241 -246 -201 -286 42 -42 62
-31 236 142 l163 161 3 -585 3 -585 30 -49 c19 -30 49 -60 79 -79 l49 -30 650
-3 c738 -3 714 -5 786 73 71 77 71 76 71 704 l0 556 158 -157 c94 -94 168
-159 184 -163 31 -8 68 23 68 57 0 15 -65 87 -205 228 l-205 207 0 208 0 209
158 -156 c86 -85 167 -159 180 -163 35 -10 72 18 72 57 0 28 -25 57 -204 237
l-204 206 -5 390 c-5 336 -8 406 -26 505 -29 158 -44 196 -84 209 -76 25 -281
74 -387 93 -170 30 -454 34 -620 8z m570 -125 c157 -26 347 -75 364 -94 39
-43 48 -148 53 -573 3 -259 1 -413 -5 -425 -6 -10 -51 -70 -101 -133 -55 -69
-97 -134 -107 -162 -13 -39 -15 -93 -12 -325 4 -329 -3 -307 137 -451 l91 -93
0 -368 c0 -351 -1 -369 -20 -393 -10 -14 -32 -31 -47 -37 -21 -8 -198 -11
-655 -9 l-628 3 -32 33 -33 32 -3 366 -3 365 96 99 c143 148 140 136 140 475
0 332 6 310 -134 484 -50 62 -94 123 -97 136 -3 13 -4 187 -2 387 4 321 7 376
26 473 12 60 28 115 35 121 25 23 304 84 472 104 106 12 347 4 465 -15z m-954
-1327 c56 -67 86 -185 70 -272 l-7 -36 -54 0 -55 0 0 170 c0 96 4 170 9 170 5
0 22 -15 37 -32z m1374 -138 l0 -170 -56 0 -56 0 4 98 c3 76 9 107 27 142 20
38 68 100 78 100 2 0 3 -76 3 -170z m-1304 -326 c10 -39 -3 -149 -22 -186 -19
-38 -51 -76 -76 -89 -17 -9 -18 1 -18 146 l0 155 55 0 c51 0 55 -2 61 -26z
m1304 -130 l0 -155 -29 20 c-16 12 -41 44 -55 73 -22 43 -26 66 -26 135 l0 83
55 0 55 0 0 -156z"/>
<path d="M1407 2660 c-260 -30 -295 -40 -316 -87 -16 -35 -14 -84 15 -307 26
-205 38 -246 73 -246 11 0 72 10 138 22 99 18 155 22 353 22 202 0 253 -3 363
-22 70 -13 136 -20 147 -17 28 9 36 47 66 291 38 321 56 302 -319 344 -148 16
-269 30 -270 29 -1 0 -113 -14 -250 -29z m648 -132 c68 -11 80 -16 83 -34 3
-24 -34 -323 -41 -330 -3 -3 -96 3 -208 12 -204 17 -284 16 -580 -12 l-65 -7
-18 144 c-9 79 -19 158 -22 176 -7 38 -8 38 152 58 131 17 576 12 699 -7z"/>
<path d="M1156 991 c-22 -24 -80 -365 -73 -429 8 -78 36 -93 217 -116 331 -43
527 -42 794 4 120 20 160 45 171 104 8 41 -51 404 -70 433 l-15 23 -504 0
c-483 0 -504 -1 -520 -19z m964 -251 c13 -82 21 -152 18 -155 -2 -3 -52 -13
-109 -22 -154 -25 -563 -25 -717 1 l-113 19 5 26 c3 14 12 71 21 126 8 55 18
112 21 128 l6 27 422 0 422 0 24 -150z"/>
</g>
</svg>
