<svg width="150" height="33" xmlns="http://www.w3.org/2000/svg" version="1.1">
 <g>
  <title>Layer 1</title>
  <g id="svgg">
   <path id="path0" d="m669.5,242.39c-3.22,1.098 -4.723,3.957 -3.677,6.998c0.752,2.185 2.111,3.039 5.898,3.705c1.961,0.345 2.769,0.966 2.775,2.137c0.014,2.466 -3.204,3.172 -6.136,1.347c-1.471,-0.915 -1.305,-0.927 -2.346,0.174l-0.868,0.918l0.347,0.487c3.446,4.84 12.507,2.854 12.507,-2.741c0,-3.232 -1.727,-4.853 -6.027,-5.655c-2.672,-0.499 -3.524,-1.533 -2.656,-3.225c0.707,-1.376 2.478,-1.623 4.455,-0.621c1.488,0.753 1.949,0.752 2.667,-0.009c2.071,-2.197 -3.109,-4.82 -6.939,-3.515m11.9,-0.152c-0.754,0.328 -0.733,0.068 -0.733,9.359c0,10.329 -0.432,9.14 3.373,9.296c7.132,0.292 8.888,-0.049 8.864,-1.72c-0.022,-1.555 -0.048,-1.564 -4.778,-1.668l-4.043,-0.088l0,-1.667c0,-1.156 0.078,-1.82 0.252,-2.167l0.253,-0.5l3.266,-0.045c3.756,-0.052 3.8,-0.069 3.94,-1.524c0.154,-1.598 -0.892,-1.891 -6.377,-1.786l-1.167,0.022l-0.146,-1.36c-0.331,-3.073 -0.355,-3.057 4.465,-3.057l3.878,0l0.193,-0.644c0.432,-1.441 0.185,-2.25 -0.767,-2.514c-0.976,-0.271 -9.828,-0.218 -10.473,0.063m15.324,0.02c-0.289,0.147 -0.569,0.431 -0.622,0.63c-0.127,0.472 -0.127,16.751 -0.001,17.223c0.198,0.738 1.462,0.851 8.506,0.764c4.032,-0.05 4.119,-0.084 4.134,-1.598c0.016,-1.676 0.035,-1.67 -4.99,-1.75l-4.251,-0.067l0,-7.221l0,-7.22l-0.38,-0.443c-0.485,-0.563 -1.621,-0.714 -2.396,-0.318m15.458,-0.076c-0.856,0.342 -0.838,0.136 -0.843,9.284l-0.006,8.549l0.409,0.409l0.41,0.409l5.268,0c5.713,0 5.781,-0.01 6.083,-0.926c0.638,-1.932 0.168,-2.179 -4.42,-2.319c-2.108,-0.065 -3.892,-0.173 -3.964,-0.242c-0.071,-0.068 -0.109,-1.017 -0.083,-2.11l0.047,-1.986l3.293,-0.097c3.925,-0.116 4.124,-0.2 4.124,-1.736c0,-1.572 -0.417,-1.69 -6.125,-1.739l-1.375,-0.011l0,-2.167l0,-2.167l4.167,0l4.166,0l0,-1.477l0,-1.477l-0.944,-0.189c-1.157,-0.233 -9.63,-0.239 -10.207,-0.008m30.599,-0.013c-0.967,0.291 -1.192,1.029 -0.772,2.539l0.173,0.625l2.057,0c1.777,0 2.111,0.044 2.451,0.319l0.393,0.318l0.084,7.174c0.094,8.114 -0.017,7.563 1.542,7.645c1.942,0.101 1.928,0.168 1.946,-9.075c0.014,-7.074 -0.318,-6.294 2.738,-6.432c2.528,-0.114 2.333,0.01 2.347,-1.494l0.01,-1.205l-0.583,-0.291c-0.641,-0.32 -11.375,-0.426 -12.386,-0.123m-11.75,0.258c-2.093,0.563 -3.687,2.024 -4.371,4.006c-0.845,2.449 -0.762,8.447 0.144,10.446c2.683,5.917 12.085,4.938 13.393,-1.395c0.45,-2.177 -2.695,-2.401 -3.595,-0.256c-1.362,3.252 -5.994,2.954 -6.83,-0.439c-0.243,-0.988 -0.129,-6.409 0.149,-7.075c1.28,-3.07 4.836,-3.149 6.591,-0.146c1.485,2.542 4.491,2.196 3.636,-0.418c-1.273,-3.893 -5.01,-5.828 -9.117,-4.723" fill="#f7f7f7" fill-rule="evenodd"/>
   <path id="path1" d="m662.333,237.312c0,0.08 -0.378,0.195 -0.84,0.256c-0.988,0.132 -2.468,1.453 -3.101,2.77c-0.866,1.803 -1.225,2.624 -1.225,2.803c0,0.106 -0.07,0.192 -0.154,0.192c-0.085,0 -0.236,0.25 -0.337,0.556c-0.101,0.305 -0.332,0.846 -0.513,1.202c-0.181,0.355 -0.33,0.743 -0.33,0.861c0,0.118 -0.075,0.215 -0.166,0.215c-0.092,0 -0.167,0.078 -0.167,0.174c0,0.096 -0.338,0.859 -0.75,1.695c-0.413,0.836 -0.75,1.62 -0.75,1.742c0,0.122 -0.072,0.222 -0.16,0.222c-0.088,0 -0.25,0.3 -0.36,0.667c-0.11,0.366 -0.263,0.666 -0.34,0.666c-0.077,0 -0.125,0.057 -0.107,0.125c0.018,0.069 -0.367,0.95 -0.856,1.959c-2.497,5.154 -2.844,5.903 -2.844,6.149c0,0.147 -0.072,0.267 -0.16,0.267c-0.088,0 -0.25,0.3 -0.359,0.667c-0.11,0.367 -0.26,0.667 -0.334,0.667c-0.073,0 -0.223,0.3 -0.333,0.666c-0.11,0.367 -0.254,0.667 -0.319,0.667c-0.066,0 -0.163,0.216 -0.216,0.481c-0.053,0.264 -0.145,0.676 -0.205,0.916l-0.11,0.436l57.102,0c56.182,0 57.106,-0.005 57.393,-0.321c0.553,-0.61 0.665,-0.787 0.886,-1.398c0.122,-0.338 0.274,-0.614 0.337,-0.614c0.064,0 0.167,-0.206 0.23,-0.458c0.063,-0.252 0.212,-0.571 0.332,-0.709c0.119,-0.137 0.274,-0.437 0.343,-0.666c0.07,-0.229 0.684,-1.58 1.366,-3c0.682,-1.421 1.428,-2.996 1.658,-3.5c0.23,-0.504 0.487,-1.03 0.571,-1.167c0.084,-0.138 0.231,-0.437 0.327,-0.667c0.097,-0.229 0.321,-0.721 0.5,-1.094c0.179,-0.373 0.325,-0.766 0.325,-0.875c0,-0.109 0.072,-0.197 0.16,-0.197c0.088,0 0.25,-0.3 0.359,-0.667c0.11,-0.367 0.263,-0.667 0.34,-0.667c0.078,0 0.141,-0.074 0.141,-0.166c0,-0.091 0.225,-0.642 0.5,-1.224c0.275,-0.582 0.5,-1.145 0.5,-1.251c0,-0.106 0.063,-0.192 0.14,-0.192c0.077,0 0.23,-0.3 0.34,-0.667c0.11,-0.366 0.272,-0.666 0.36,-0.666c0.088,0 0.16,-0.079 0.16,-0.176c0,-0.186 0.297,-0.87 1.35,-3.105c1.064,-2.258 0.978,-3.386 -0.257,-3.386c-0.224,0 -0.453,-0.075 -0.51,-0.167c-0.131,-0.211 -109.917,-0.232 -109.917,-0.021m11.762,4.932c2.495,0.742 3.611,2.199 2.7,3.528c-0.713,1.041 -1.484,1.137 -2.903,0.362c-2.296,-1.255 -4.58,-0.576 -4.61,1.369c-0.021,1.376 0.302,1.58 3.551,2.245c0.779,0.16 1.655,0.361 1.946,0.447c1.269,0.374 2.81,2.031 3.005,3.23c0.052,0.321 0.159,0.623 0.238,0.672c0.469,0.29 0.014,3.012 -0.695,4.162c-2.242,3.636 -8.73,3.731 -11.864,0.173c-0.61,-0.692 -0.605,-0.709 0.518,-1.911l0.981,-1.05l1.144,0.715c0.629,0.394 1.197,0.794 1.263,0.89c0.07,0.103 0.865,0.174 1.955,0.174c2.199,0 2.803,-0.364 2.963,-1.789c0.161,-1.426 -0.615,-1.886 -4.204,-2.49c-5.334,-0.898 -6.531,-7.529 -1.853,-10.273c1.218,-0.714 4.209,-0.946 5.865,-0.454m18.306,-0.054c0.501,0.228 0.662,0.832 0.513,1.927c-0.207,1.52 0.19,1.383 -3.998,1.383c-4.876,0 -4.583,-0.139 -4.583,2.163l0,1.837l3.006,0c3.963,0 4.644,0.261 4.656,1.784c0.013,1.786 -0.551,2.049 -4.397,2.049c-3.532,0 -3.429,-0.097 -3.3,3.125l0.035,0.875l3.683,0c4.596,0 5.151,0.199 5.151,1.85c0,1.716 -0.363,1.817 -6.5,1.817c-5.94,0 -5.863,0.015 -6.135,-1.163c-0.568,-2.462 -0.204,-17.115 0.438,-17.629c0.354,-0.283 10.813,-0.3 11.431,-0.018m6.755,0.133c0.612,0.611 0.675,1.395 0.676,8.291l0.001,6.698l4.182,0.052l4.181,0.053l0.402,0.467c0.615,0.716 0.572,1.972 -0.091,2.635l-0.494,0.494l-5.771,-0.048l-5.772,-0.048l-0.318,-0.394c-0.305,-0.376 -0.319,-0.778 -0.319,-9.113l0,-8.719l0.439,-0.346c0.612,-0.481 2.411,-0.495 2.884,-0.022m23.719,-0.216l0.625,0.103l0,1.645l0,1.645l-4.167,0l-4.166,0l0,2l0,2l3.005,0c4.085,0 4.495,0.187 4.495,2.047c0,1.532 -0.325,1.666 -4.334,1.781l-3.083,0.089l0,1.916l0,1.917l3.89,0.083c4.595,0.099 4.527,0.07 4.527,1.904c0,1.776 0.343,1.672 -5.695,1.73c-6.293,0.061 -6.229,0.069 -6.648,-0.852c-0.828,-1.825 -0.397,-17.768 0.487,-18.004c0.432,-0.115 10.371,-0.119 11.064,-0.004m13.696,0.53c2.026,0.948 3.695,3.195 3.885,5.229l0.089,0.95l-0.751,0.365c-1.291,0.627 -2.63,0.107 -3.303,-1.284c-1.36,-2.809 -4.616,-3.13 -6.184,-0.609c-0.601,0.967 -0.603,7.258 -0.002,8.306c0.73,1.273 1.411,1.656 2.949,1.656c1.754,0 1.963,-0.151 3.428,-2.47c0.747,-1.183 1.861,-1.518 3.133,-0.941l0.731,0.332l-0.093,0.956c-0.437,4.476 -6.162,7.267 -10.545,5.142c-1.71,-0.83 -3.234,-2.536 -3.49,-3.908c-0.063,-0.336 -0.182,-0.693 -0.264,-0.793c-0.495,-0.598 -0.313,-6.961 0.256,-8.964c0.37,-1.304 1.798,-3.271 2.374,-3.271c0.119,0 0.216,-0.062 0.216,-0.138c0,-0.19 1.513,-0.882 2.284,-1.045c1.455,-0.307 4.115,-0.062 5.287,0.487m19.195,-0.276c0.359,0.36 0.345,2.147 -0.021,2.706c-0.236,0.361 -0.387,0.391 -2.399,0.472c-1.18,0.048 -2.229,0.138 -2.329,0.201c-0.129,0.079 -0.184,2.157 -0.184,6.942c0,8.4 0.021,8.318 -2.063,8.318c-0.73,0 -1.014,-0.082 -1.386,-0.402l-0.467,-0.402l-0.084,-7.168c-0.046,-3.942 -0.145,-7.23 -0.222,-7.306c-0.076,-0.076 -1.114,-0.165 -2.307,-0.197l-2.169,-0.059l-0.234,-0.561c-0.408,-0.976 -0.31,-2.154 0.212,-2.565c0.618,-0.486 13.166,-0.466 13.653,0.021" fill="#646464" fill-rule="evenodd"/>
   <path id="path2" d="m681.037,242.259c-0.204,0.143 -0.37,0.345 -0.37,0.449c0,0.104 0.093,0.065 0.208,-0.086c0.115,-0.152 0.396,-0.349 0.625,-0.438c0.229,-0.09 0.302,-0.168 0.162,-0.173c-0.14,-0.006 -0.421,0.106 -0.625,0.248m51.592,-0.137c0.392,0.035 0.992,0.035 1.334,-0.001c0.341,-0.036 0.02,-0.064 -0.713,-0.064c-0.733,0.001 -1.013,0.03 -0.621,0.065m22.362,0.062c0.224,0.09 0.49,0.216 0.591,0.281c0.101,0.065 0.041,-0.013 -0.134,-0.173c-0.175,-0.161 -0.441,-0.287 -0.591,-0.281c-0.173,0.006 -0.124,0.07 0.134,0.173m-85.949,0.155c-0.531,0.213 -0.467,0.339 0.083,0.165c0.94,-0.297 0.968,-0.311 0.625,-0.314c-0.183,-0.001 -0.502,0.066 -0.708,0.149m4.974,0.072c0.329,0.121 0.835,0.343 1.125,0.492c0.289,0.15 0.526,0.229 0.526,0.177c0,-0.142 -1.711,-0.912 -2,-0.9c-0.138,0.006 0.019,0.109 0.349,0.231m48.942,-0.135c0.355,0.076 0.375,0.16 0.375,1.569l0,1.488l-4.166,0l-4.167,0l0,2.167c0,1.192 0.056,2.167 0.125,2.167c0.069,0 0.102,-0.936 0.074,-2.08l-0.051,-2.081l4.134,-0.045l4.135,-0.044l0,-1.584c0,-1.57 -0.004,-1.583 -0.417,-1.61c-0.367,-0.024 -0.372,-0.018 -0.042,0.053m7.625,0.135c-0.642,0.294 -0.53,0.296 0.5,0.01c0.505,-0.141 0.669,-0.233 0.417,-0.236c-0.229,-0.002 -0.642,0.1 -0.917,0.226m4.834,0.002c0.458,0.123 0.856,0.202 0.883,0.175c0.092,-0.091 -1.011,-0.422 -1.367,-0.41c-0.192,0.006 0.025,0.112 0.484,0.235m-67.584,0.602c-0.276,0.226 -0.304,0.283 -0.083,0.168c0.544,-0.281 0.845,-0.511 0.667,-0.51c-0.092,0.001 -0.354,0.154 -0.584,0.342m28.111,-0.237c-0.152,0.152 -0.136,17.091 0.017,17.331c0.067,0.106 0.122,-3.775 0.122,-8.625c0,-4.849 -0.006,-8.817 -0.014,-8.817c-0.007,0 -0.063,0.05 -0.125,0.111m45.738,0.722c-0.005,0.413 0.056,0.854 0.136,0.981c0.09,0.142 0.116,-0.082 0.067,-0.584c-0.11,-1.128 -0.19,-1.286 -0.203,-0.397m14.197,0c0,0.413 0.032,0.581 0.072,0.375c0.04,-0.206 0.04,-0.544 0,-0.75c-0.04,-0.206 -0.072,-0.038 -0.072,0.375m-79.962,-0.226c0.848,0.753 1.161,0.972 0.834,0.586c-0.182,-0.215 -0.481,-0.468 -0.666,-0.563c-0.184,-0.094 -0.26,-0.105 -0.168,-0.023m4.66,8.226c0,4.629 0.022,6.523 0.048,4.208c0.026,-2.314 0.026,-6.102 0,-8.416c-0.026,-2.315 -0.048,-0.421 -0.048,4.208m30.667,0c0,4.629 0.021,6.523 0.048,4.208c0.026,-2.314 0.026,-6.102 0,-8.416c-0.027,-2.315 -0.048,-0.421 -0.048,4.208m27.082,-7.458c0.409,0.435 0.765,0.791 0.792,0.791c0.125,0 -0.007,-0.149 -0.743,-0.84l-0.792,-0.743l0.743,0.792m-38.786,6.416l-0.04,7.042l3.226,0c1.774,0 3.705,0.034 4.291,0.075c1.028,0.072 1.036,0.07 0.233,-0.069c-0.458,-0.079 -2.351,-0.15 -4.207,-0.158l-3.373,-0.015l-0.045,-6.958l-0.045,-6.958l-0.04,7.041m28.043,-6.004c-0.376,0.5 -0.71,1.055 -0.479,0.796c0.082,-0.092 0.368,-0.41 0.637,-0.708c0.268,-0.298 0.418,-0.54 0.332,-0.537c-0.086,0.003 -0.306,0.205 -0.49,0.449m-50.583,0.322c0,0.243 -0.193,0.712 -0.429,1.042l-0.428,0.599l0.512,-0.577c0.438,-0.494 0.726,-1.507 0.428,-1.507c-0.046,0 -0.083,0.2 -0.083,0.443m15.595,0.016l-0.121,0.541l-3.862,0.003c-2.476,0.002 -3.952,0.067 -4.112,0.181c-0.196,0.14 -0.16,0.158 0.167,0.083c0.229,-0.052 2.087,-0.096 4.129,-0.098l3.712,-0.002l0.168,-0.442c0.093,-0.243 0.14,-0.524 0.104,-0.625c-0.035,-0.101 -0.118,0.061 -0.185,0.359m-26.767,0.551c-0.1,0.188 -0.158,0.416 -0.128,0.507c0.03,0.09 0.141,-0.064 0.246,-0.343c0.219,-0.58 0.154,-0.671 -0.118,-0.164m88.799,-0.058c0.207,0.039 0.507,0.038 0.667,-0.004c0.159,-0.042 -0.011,-0.074 -0.377,-0.072c-0.367,0.002 -0.497,0.036 -0.29,0.076m-84.387,0.308c-0.318,0.255 -0.318,0.256 0.01,0.105c0.183,-0.084 0.446,-0.195 0.583,-0.246c0.216,-0.08 0.215,-0.094 -0.009,-0.106c-0.143,-0.007 -0.406,0.104 -0.584,0.247m2.093,-0.093c0.57,0.183 1.008,0.183 0.584,0c-0.184,-0.079 -0.484,-0.141 -0.667,-0.138c-0.268,0.004 -0.252,0.031 0.083,0.138m59.75,0.089c-0.378,0.182 -0.398,0.211 -0.083,0.118c0.528,-0.157 1.766,-0.159 2.417,-0.006l0.5,0.119l-0.5,-0.236c-0.644,-0.303 -1.698,-0.301 -2.334,0.005m12.284,-0.099c2.824,0.124 2.533,-0.679 2.644,7.31l0.094,6.783l-0.011,-6.806l-0.011,-6.807l-0.393,-0.318c-0.345,-0.279 -0.644,-0.315 -2.417,-0.287l-2.023,0.032l2.117,0.093m6.569,0.058c-0.219,0.161 -0.277,0.383 -0.226,0.875l0.067,0.66l0.028,-0.705c0.032,-0.787 0.105,-0.83 1.612,-0.929c0.811,-0.054 0.806,-0.056 -0.177,-0.086c-0.607,-0.018 -1.127,0.056 -1.304,0.185m-77.269,0.36c0,0.046 0.225,0.2 0.5,0.342c0.275,0.142 0.5,0.221 0.5,0.175c0,-0.046 -0.225,-0.199 -0.5,-0.342c-0.275,-0.142 -0.5,-0.221 -0.5,-0.175m10.402,0.524c-0.061,0.329 -0.046,1.21 0.035,1.958l0.146,1.36l1,0.012l1,0.012l-0.944,-0.061l-0.944,-0.061l-0.116,-1.388c-0.063,-0.763 -0.064,-1.623 -0.001,-1.909c0.063,-0.287 0.075,-0.522 0.026,-0.522c-0.049,0 -0.14,0.27 -0.202,0.599m42.45,-0.082c-0.102,0.293 -0.18,0.616 -0.174,0.717c0.007,0.1 0.119,-0.11 0.251,-0.469c0.131,-0.359 0.21,-0.681 0.174,-0.717c-0.036,-0.036 -0.148,0.175 -0.251,0.469m8.972,0.037c0.316,0.337 0.595,0.613 0.62,0.613c0.169,0 -0.222,-0.484 -0.664,-0.822l-0.53,-0.405l0.574,0.614m-66.39,0.543c-0.138,0.359 -0.123,1.111 0.027,1.346c0.067,0.106 0.122,-0.213 0.122,-0.709c0,-0.996 -0.004,-1.014 -0.149,-0.637m70.998,-0.013c0.317,1.014 0.277,1.701 -0.117,1.977c-0.214,0.15 -0.309,0.273 -0.212,0.273c0.647,0 0.913,-1.18 0.47,-2.084c-0.135,-0.275 -0.198,-0.35 -0.141,-0.166m-3.682,0.75c0.142,0.275 0.296,0.5 0.342,0.5c0.045,0 -0.033,-0.225 -0.176,-0.5c-0.142,-0.275 -0.296,-0.5 -0.342,-0.5c-0.045,0 0.033,0.225 0.176,0.5m-6.644,0.368c-0.056,0.21 -0.094,0.607 -0.084,0.882c0.012,0.345 0.06,0.243 0.155,-0.328c0.146,-0.871 0.103,-1.203 -0.071,-0.554m-3.823,2.34c-0.053,1.031 -0.042,2.475 0.022,3.208c0.09,1.023 0.121,0.587 0.13,-1.875c0.014,-3.686 -0.018,-3.965 -0.152,-1.333m-55.2,-0.896c0.183,0.077 0.633,0.187 1,0.245c0.423,0.066 0.545,0.053 0.333,-0.036c-0.183,-0.077 -0.633,-0.188 -1,-0.245c-0.423,-0.066 -0.545,-0.053 -0.333,0.036m18.545,0.308c0.299,0.038 0.749,0.037 1,-0.001c0.25,-0.038 0.005,-0.069 -0.545,-0.068c-0.55,0.001 -0.755,0.032 -0.455,0.069m29.83,0c0.298,0.037 0.785,0.037 1.083,0c0.298,-0.037 0.054,-0.067 -0.541,-0.067c-0.596,0 -0.84,0.03 -0.542,0.067m-45.458,0.259c0.045,0.047 0.377,0.166 0.735,0.264c0.359,0.098 0.584,0.114 0.5,0.035c-0.16,-0.151 -1.379,-0.445 -1.235,-0.299m1.666,0.484c1.316,1.195 1.833,1.615 1.5,1.222c-0.499,-0.59 -0.804,-0.862 -1.25,-1.111c-0.183,-0.102 -0.296,-0.152 -0.25,-0.111m47.215,0.887c0.001,0.458 0.033,0.626 0.072,0.372c0.038,-0.253 0.037,-0.628 -0.003,-0.833c-0.039,-0.205 -0.071,0.002 -0.069,0.461m-30.676,-0.084c0,0.321 0.034,0.452 0.076,0.292c0.042,-0.16 0.042,-0.423 0,-0.583c-0.042,-0.161 -0.076,-0.03 -0.076,0.291m37.857,2.038c0.021,1.269 0.095,1.849 0.258,2c0.188,0.175 0.203,0.168 0.086,-0.037c-0.079,-0.137 -0.195,-1.037 -0.258,-2l-0.116,-1.751l0.03,1.788m-60.562,-0.722c0.137,0.085 0.55,0.198 0.916,0.251c0.472,0.069 0.545,0.057 0.25,-0.041c-0.765,-0.254 -1.434,-0.375 -1.166,-0.21m8.353,0.521c0.253,0.747 0.395,0.892 0.242,0.247c-0.066,-0.275 -0.191,-0.574 -0.278,-0.663c-0.088,-0.09 -0.072,0.098 0.036,0.416m7.013,0.03c-0.11,0.11 -0.2,0.274 -0.2,0.365c0,0.091 0.094,0.039 0.209,-0.114c0.179,-0.241 0.635,-0.287 3.291,-0.328l3.084,-0.048l-3.092,-0.037c-2.226,-0.027 -3.148,0.018 -3.292,0.162m36.175,-0.085c0.161,0.042 0.423,0.042 0.584,0c0.16,-0.042 0.029,-0.076 -0.292,-0.076c-0.321,0 -0.452,0.034 -0.292,0.076m-48.375,0.17c0.138,0.05 0.494,0.191 0.792,0.311c0.298,0.121 0.542,0.183 0.542,0.137c0,-0.119 -1.115,-0.569 -1.37,-0.553c-0.138,0.008 -0.126,0.045 0.036,0.105m42.778,-0.007c-0.154,0.153 -0.141,4.018 0.014,4.112c0.069,0.042 1.85,0.114 3.958,0.16l3.834,0.084l-3.875,-0.17l-3.875,-0.171l0,-1.966c0,-1.417 0.058,-1.989 0.208,-2.05c0.116,-0.047 0.129,-0.09 0.028,-0.097c-0.1,-0.007 -0.231,0.037 -0.292,0.098m23.181,0.506c0.206,0.04 0.543,0.04 0.75,0c0.206,-0.039 0.037,-0.072 -0.375,-0.072c-0.413,0 -0.582,0.033 -0.375,0.072m-64.209,0.447c0.209,0.349 0.266,0.71 0.209,1.306c-0.046,0.483 -0.021,0.732 0.062,0.602c0.271,-0.428 0.152,-1.539 -0.211,-1.972l-0.349,-0.417l0.289,0.481m10.022,-0.023c-0.195,0.728 -0.117,3.132 0.103,3.204c0.115,0.037 1.971,0.092 4.125,0.122c2.154,0.03 3.579,0.003 3.167,-0.061c-0.413,-0.063 -2.24,-0.121 -4.061,-0.127l-3.31,-0.013l0.065,-1.75c0.069,-1.877 0.065,-1.948 -0.089,-1.375m52.968,0.167l-0.49,0.542l0.583,-0.5c0.32,-0.275 0.614,-0.519 0.653,-0.542c0.038,-0.023 -0.004,-0.042 -0.093,-0.042c-0.09,0 -0.384,0.244 -0.653,0.542m2.909,-0.269c0.394,0.276 0.427,0.969 0.093,1.985c-0.086,0.264 -0.073,0.278 0.071,0.076c0.552,-0.777 0.301,-2.334 -0.376,-2.334c-0.097,0 -0.002,0.123 0.212,0.273m-73.74,2.269l-0.659,0.708l0.71,-0.66l0.71,-0.66l0.54,0.299l0.54,0.299l-0.416,-0.343c-0.575,-0.474 -0.675,-0.449 -1.425,0.357m60.175,-0.042c0.15,0.5 0.564,1.334 0.661,1.334c0.077,0 -0.57,-1.532 -0.704,-1.667c-0.045,-0.046 -0.026,0.104 0.043,0.333m3.916,-0.281c0,0.029 0.244,0.273 0.542,0.542l0.542,0.489l-0.49,-0.541c-0.456,-0.505 -0.594,-0.619 -0.594,-0.49m5.24,0.49l-0.49,0.541l0.542,-0.489c0.505,-0.456 0.618,-0.594 0.49,-0.594c-0.029,0 -0.273,0.244 -0.542,0.542m4.01,0.625c-0.142,0.275 -0.221,0.5 -0.175,0.5c0.046,0 0.2,-0.225 0.342,-0.5c0.142,-0.275 0.221,-0.5 0.175,-0.5c-0.046,0 -0.199,0.225 -0.342,0.5m-74.415,0.331c-0.148,0.277 -0.079,0.432 0.429,0.958l0.606,0.627l-0.509,-0.652c-0.399,-0.51 -0.474,-0.719 -0.346,-0.958c0.09,-0.169 0.126,-0.306 0.08,-0.306c-0.045,0 -0.163,0.149 -0.26,0.331m7.165,-0.142c-0.412,0.084 -1.125,0.116 -1.583,0.071c-0.757,-0.073 -0.78,-0.066 -0.25,0.079c0.634,0.174 2.293,0.061 2.678,-0.183c0.28,-0.177 0.165,-0.173 -0.845,0.033m59.529,-0.112c0.224,0.238 1.402,0.398 1.971,0.269c0.526,-0.12 0.493,-0.133 -0.333,-0.127c-0.504,0.003 -1.104,-0.054 -1.333,-0.128c-0.229,-0.073 -0.367,-0.079 -0.305,-0.014m-54.632,0.798c-0.573,0.973 -0.611,1.056 -0.319,0.708c0.339,-0.403 0.631,-0.917 0.521,-0.917c-0.043,0 -0.134,0.094 -0.202,0.209m61.51,0.403c-0.257,0.337 -0.382,0.559 -0.278,0.495c0.213,-0.132 0.935,-1.107 0.819,-1.107c-0.041,0 -0.285,0.276 -0.541,0.612m11.81,0.555c0,0.504 0.031,0.71 0.069,0.458c0.039,-0.252 0.039,-0.664 0,-0.916c-0.038,-0.252 -0.069,-0.046 -0.069,0.458m-22.504,-0.063c0.435,0.477 1.787,1.355 1.787,1.161c0,-0.049 -0.224,-0.205 -0.497,-0.347c-0.274,-0.141 -0.78,-0.496 -1.125,-0.788l-0.628,-0.531l0.463,0.505m-60.879,0.811c0,0.114 1.02,0.62 1.096,0.544c0.037,-0.036 -0.195,-0.19 -0.515,-0.343c-0.32,-0.152 -0.581,-0.243 -0.581,-0.201m56.346,0.127c-0.007,0.16 -0.163,0.442 -0.346,0.625c-0.184,0.183 -0.26,0.333 -0.171,0.333c0.244,0 0.715,-0.791 0.616,-1.036c-0.054,-0.134 -0.091,-0.105 -0.099,0.078m13.237,0.125c-0.275,0.182 -0.425,0.33 -0.333,0.329c0.167,-0.003 1.073,-0.653 0.916,-0.658c-0.046,-0.001 -0.308,0.147 -0.583,0.329m-25.417,0.147c0,0.162 0.648,0.769 0.718,0.671c0.027,-0.037 -0.123,-0.234 -0.334,-0.437c-0.211,-0.203 -0.384,-0.308 -0.384,-0.234m-18.976,0.367c-0.217,0.176 -0.325,0.319 -0.241,0.319c0.224,0 0.815,-0.458 0.717,-0.555c-0.046,-0.045 -0.26,0.061 -0.476,0.236m42.893,0.074c-0.367,0.121 -0.517,0.222 -0.333,0.225c0.183,0.003 0.558,-0.098 0.833,-0.224c0.63,-0.288 0.373,-0.289 -0.5,-0.001m-66.167,0.079c0.184,0.078 0.484,0.141 0.667,0.138c0.268,-0.004 0.252,-0.031 -0.083,-0.138c-0.57,-0.183 -1.008,-0.183 -0.584,0m4.417,0c-0.335,0.107 -0.351,0.134 -0.083,0.138c0.183,0.003 0.483,-0.06 0.666,-0.138c0.425,-0.183 -0.013,-0.183 -0.583,0m57.583,-0.008c0.32,0.145 1.213,0.239 1.07,0.113c-0.038,-0.034 -0.37,-0.107 -0.736,-0.163c-0.465,-0.07 -0.566,-0.055 -0.334,0.05m-48.619,0.297c0.484,0.034 1.234,0.034 1.667,0c0.432,-0.035 0.036,-0.062 -0.881,-0.062c-0.917,0.001 -1.27,0.029 -0.786,0.062m7,0c0.484,0.034 1.234,0.034 1.667,0c0.432,-0.035 0.036,-0.062 -0.881,-0.062c-0.917,0.001 -1.27,0.029 -0.786,0.062m8.164,-0.002c0.3,0.037 0.75,0.036 1,-0.002c0.25,-0.038 0.005,-0.068 -0.545,-0.067c-0.55,0.001 -0.755,0.032 -0.455,0.069m5.339,0.004c0.945,0.03 2.445,0.029 3.334,-0.001c0.888,-0.029 0.116,-0.054 -1.718,-0.054c-1.833,0.001 -2.56,0.025 -1.616,0.055m11.908,0c1.444,0.028 3.806,0.028 5.25,0c1.444,-0.028 0.262,-0.05 -2.625,-0.05c-2.888,0 -4.069,0.022 -2.625,0.05m17.913,-0.004c0.296,0.036 0.821,0.037 1.167,0.001c0.345,-0.036 0.103,-0.066 -0.538,-0.067c-0.642,-0.001 -0.925,0.029 -0.629,0.066m15.756,-0.001c0.253,0.038 0.628,0.037 0.833,-0.002c0.205,-0.04 -0.002,-0.071 -0.46,-0.07c-0.459,0.001 -0.626,0.034 -0.373,0.072" fill="#8c8c8c" fill-rule="evenodd"/>
   <path id="path3" d="m711.077,251.417c0,4.308 0.021,6.094 0.048,3.969c0.026,-2.124 0.026,-5.649 0,-7.833c-0.026,-2.183 -0.048,-0.445 -0.048,3.864m-39.869,-5.969c0.161,0.042 0.423,0.042 0.584,0c0.16,-0.042 0.029,-0.076 -0.292,-0.076c-0.321,0 -0.452,0.034 -0.292,0.076m82.252,0.003c0.208,0.04 0.508,0.039 0.667,-0.003c0.159,-0.042 -0.01,-0.074 -0.377,-0.073c-0.367,0.002 -0.497,0.036 -0.29,0.076m-69.24,1.882c0,0.596 0.03,0.84 0.067,0.542c0.037,-0.298 0.037,-0.785 0,-1.083c-0.037,-0.298 -0.067,-0.055 -0.067,0.541m-18.845,0.25c0.002,0.367 0.036,0.497 0.076,0.29c0.04,-0.207 0.039,-0.507 -0.003,-0.667c-0.042,-0.159 -0.074,0.011 -0.073,0.377m85.367,5.084c0,3.162 0.022,4.456 0.049,2.875c0.028,-1.582 0.028,-4.169 0,-5.75c-0.027,-1.582 -0.049,-0.288 -0.049,2.875m-21.024,-2.417c0.001,0.55 0.032,0.755 0.069,0.455c0.038,-0.299 0.037,-0.749 -0.001,-1c-0.038,-0.25 -0.069,-0.005 -0.068,0.545m-42.838,-0.627c0.438,0.034 1.113,0.034 1.5,-0.001c0.387,-0.035 0.028,-0.063 -0.797,-0.063c-0.825,0.001 -1.141,0.029 -0.703,0.064m29.328,0c0.527,0.033 1.39,0.033 1.917,0c0.527,-0.033 0.096,-0.06 -0.958,-0.06c-1.055,0 -1.486,0.027 -0.959,0.06m9.664,0.544c0,0.32 0.034,0.452 0.076,0.291c0.042,-0.16 0.042,-0.423 0,-0.583c-0.042,-0.16 -0.076,-0.029 -0.076,0.292m-47.82,5.25c0.001,0.55 0.032,0.755 0.069,0.455c0.037,-0.3 0.036,-0.75 -0.002,-1c-0.038,-0.25 -0.068,-0.005 -0.067,0.545m6.165,1.083c0,0.504 0.031,0.71 0.069,0.458c0.038,-0.252 0.038,-0.664 0,-0.916c-0.038,-0.252 -0.069,-0.046 -0.069,0.458" fill="#7c7c7c" fill-rule="evenodd"/>
   <path id="path4" d="m680.41,251.5c0,4.354 0.022,6.135 0.048,3.958c0.027,-2.177 0.027,-5.739 0,-7.916c-0.026,-2.177 -0.048,-0.396 -0.048,3.958m19.333,-1c0,3.804 0.022,5.36 0.048,3.458c0.027,-1.902 0.027,-5.014 0,-6.916c-0.026,-1.902 -0.048,-0.346 -0.048,3.458m54.884,-5.049c0.207,0.04 0.507,0.039 0.667,-0.003c0.159,-0.042 -0.011,-0.074 -0.377,-0.073c-0.367,0.002 -0.497,0.036 -0.29,0.076m-3.252,0.164c0.16,0.042 0.423,0.042 0.583,0c0.161,-0.042 0.03,-0.076 -0.291,-0.076c-0.321,0 -0.452,0.034 -0.292,0.076m-4.466,7.468c0,3.484 0.022,4.932 0.049,3.22c0.027,-1.713 0.027,-4.563 0,-6.334c-0.027,-1.77 -0.049,-0.369 -0.049,3.114m-62.114,-3.462c0.299,0.037 0.749,0.036 1,-0.002c0.25,-0.038 0.005,-0.068 -0.545,-0.067c-0.55,0.001 -0.755,0.032 -0.455,0.069m4.582,-0.001c0.254,0.038 0.629,0.037 0.834,-0.003c0.205,-0.039 -0.003,-0.071 -0.461,-0.069c-0.458,0.001 -0.626,0.033 -0.373,0.072m30,0c0.254,0.038 0.629,0.037 0.834,-0.003c0.205,-0.039 -0.003,-0.071 -0.461,-0.069c-0.458,0.001 -0.626,0.033 -0.373,0.072m-34.768,3.672c-0.043,0.068 0.834,0.105 1.948,0.081c3.8,-0.082 4.197,-0.141 1.161,-0.174c-1.667,-0.018 -3.067,0.024 -3.109,0.093m32.94,-0.001c0.715,0.031 1.84,0.031 2.5,-0.001c0.661,-0.031 0.076,-0.057 -1.299,-0.057c-1.375,0.001 -1.915,0.026 -1.201,0.058m2.326,4.165c0.527,0.034 1.39,0.034 1.917,0c0.527,-0.033 0.095,-0.06 -0.959,-0.06c-1.054,0 -1.485,0.027 -0.958,0.06m30.837,1.544c0,0.412 0.033,0.581 0.072,0.375c0.04,-0.206 0.04,-0.544 0,-0.75c-0.039,-0.206 -0.072,-0.038 -0.072,0.375m-57.667,0.167c0,0.412 0.033,0.581 0.073,0.375c0.039,-0.207 0.039,-0.544 0,-0.75c-0.04,-0.207 -0.073,-0.038 -0.073,0.375" fill="#747474" fill-rule="evenodd"/>
   <path id="path5" d="m403.808,191.004c-0.619,0.107 -1.81,1.109 -2.025,1.704c-0.058,0.161 -0.183,0.292 -0.278,0.292c-0.094,0 -0.172,0.083 -0.172,0.184c0,0.102 -0.168,0.388 -0.375,0.636c-0.458,0.552 -0.863,1.104 -1.294,1.763c-0.639,0.98 -0.75,1.141 -0.968,1.402c-0.787,0.945 -1.029,1.287 -1.029,1.456c0,0.104 -0.113,0.233 -0.25,0.286c-0.138,0.053 -0.25,0.208 -0.25,0.345c0,0.137 -0.15,0.33 -0.334,0.428c-0.183,0.098 -0.333,0.251 -0.333,0.339c0,0.089 -0.118,0.292 -0.262,0.453c-0.646,0.718 -1.071,1.306 -1.071,1.482c0,0.105 -0.113,0.234 -0.25,0.286c-0.138,0.053 -0.25,0.208 -0.25,0.346c0,0.137 -0.15,0.329 -0.334,0.427c-0.183,0.098 -0.333,0.259 -0.333,0.357c0,0.161 -0.463,0.808 -1.057,1.477c-0.122,0.137 -0.269,0.381 -0.327,0.541c-0.058,0.161 -0.183,0.292 -0.277,0.292c-0.095,0 -0.172,0.083 -0.172,0.184c0,0.102 -0.169,0.388 -0.375,0.636c-0.207,0.248 -0.525,0.664 -0.709,0.924c-0.183,0.261 -0.446,0.596 -0.583,0.745c-0.138,0.149 -0.363,0.492 -0.5,0.761c-0.138,0.269 -0.363,0.618 -0.5,0.775c-0.138,0.156 -0.325,0.385 -0.417,0.508c-0.091,0.123 -0.523,0.685 -0.958,1.248c-0.435,0.563 -0.792,1.068 -0.792,1.122c0,0.053 -0.118,0.228 -0.262,0.389c-0.622,0.692 -1.071,1.303 -1.071,1.46c0,0.092 -0.15,0.261 -0.333,0.376c-0.184,0.114 -0.334,0.32 -0.334,0.457c0,0.136 -0.077,0.248 -0.17,0.248c-0.094,0 -0.243,0.188 -0.33,0.417c-0.087,0.229 -0.226,0.417 -0.309,0.417c-0.082,0 -0.241,0.219 -0.352,0.488c-0.112,0.268 -0.308,0.528 -0.437,0.578c-0.129,0.049 -0.235,0.201 -0.235,0.337c0,0.136 -0.094,0.307 -0.208,0.38c-0.115,0.073 -0.469,0.508 -0.787,0.967c-0.671,0.966 -0.817,1.158 -1.213,1.595c-0.161,0.177 -0.293,0.378 -0.294,0.446c-0.001,0.069 -0.151,0.313 -0.333,0.542c-0.182,0.229 -0.837,1.092 -1.455,1.917c-0.619,0.825 -1.219,1.599 -1.334,1.72c-0.115,0.121 -0.209,0.278 -0.209,0.349c0,0.071 -0.188,0.347 -0.417,0.613c-0.229,0.266 -0.416,0.578 -0.416,0.693c-0.001,0.114 -0.075,0.208 -0.165,0.208c-0.213,0 -0.669,1.092 -0.669,1.604l0,0.396l5.708,0.035c6.245,0.039 8.165,-0.006 8.292,-0.194c0.046,-0.068 0.296,-0.175 0.557,-0.239c0.552,-0.135 2.013,-1.536 2.193,-2.103c0.068,-0.214 0.209,-0.494 0.312,-0.62c0.636,-0.78 1.097,-1.174 1.485,-1.272c0.61,-0.153 42.26,-0.179 42.828,-0.027c0.887,0.238 2.786,1.374 2.79,1.67c0.001,0.092 0.185,0.379 0.408,0.639c0.224,0.26 0.452,0.68 0.508,0.935c0.059,0.269 0.289,0.558 0.552,0.694c0.248,0.127 0.504,0.307 0.569,0.398c0.14,0.197 11.808,0.334 13.923,0.164c1.82,-0.146 1.896,-0.703 0.333,-2.425c-0.16,-0.177 -0.291,-0.382 -0.291,-0.456c0,-0.074 -0.263,-0.42 -0.584,-0.771c-0.321,-0.35 -0.583,-0.683 -0.583,-0.741c0,-0.057 -0.188,-0.322 -0.417,-0.588c-0.229,-0.266 -0.416,-0.536 -0.416,-0.599c0,-0.063 -0.188,-0.333 -0.417,-0.599c-0.229,-0.266 -0.416,-0.56 -0.416,-0.653c-0.001,-0.092 -0.151,-0.261 -0.334,-0.376c-0.183,-0.114 -0.333,-0.32 -0.333,-0.457c0,-0.136 -0.078,-0.248 -0.172,-0.248c-0.095,0 -0.22,-0.132 -0.279,-0.292c-0.058,-0.16 -0.262,-0.487 -0.453,-0.727c-0.19,-0.239 -0.459,-0.608 -0.596,-0.819c-0.138,-0.211 -0.382,-0.522 -0.542,-0.69c-0.16,-0.168 -0.292,-0.362 -0.292,-0.431c0,-0.068 -0.187,-0.343 -0.417,-0.609c-0.229,-0.266 -0.416,-0.542 -0.416,-0.613c0,-0.071 -0.094,-0.229 -0.208,-0.351c-0.438,-0.467 -1.792,-2.279 -1.792,-2.399c0,-0.068 -0.115,-0.243 -0.255,-0.389c-0.569,-0.588 -1.078,-1.275 -1.078,-1.454c0,-0.105 -0.113,-0.234 -0.25,-0.287c-0.138,-0.052 -0.25,-0.208 -0.25,-0.345c0,-0.137 -0.15,-0.33 -0.334,-0.428c-0.183,-0.098 -0.333,-0.29 -0.333,-0.427c0,-0.138 -0.113,-0.293 -0.25,-0.346c-0.138,-0.052 -0.25,-0.181 -0.25,-0.286c0,-0.169 -0.348,-0.657 -1.03,-1.446c-0.121,-0.14 -0.333,-0.475 -0.47,-0.745c-0.138,-0.269 -0.363,-0.611 -0.5,-0.759c-0.138,-0.148 -0.363,-0.44 -0.5,-0.649c-0.38,-0.577 -1.128,-1.56 -1.413,-1.856c-0.139,-0.145 -0.254,-0.347 -0.254,-0.45c0,-0.102 -0.093,-0.246 -0.208,-0.319c-0.115,-0.073 -0.304,-0.283 -0.421,-0.467c-0.116,-0.183 -0.367,-0.577 -0.558,-0.875c-0.19,-0.298 -0.413,-0.541 -0.496,-0.541c-0.082,0 -0.15,-0.115 -0.15,-0.256c0,-0.14 -0.113,-0.298 -0.25,-0.351c-0.138,-0.052 -0.25,-0.196 -0.25,-0.318c0,-0.123 -0.131,-0.321 -0.292,-0.441c-0.16,-0.12 -0.404,-0.44 -0.541,-0.713c-0.138,-0.272 -0.35,-0.609 -0.471,-0.75c-0.681,-0.788 -1.029,-1.276 -1.029,-1.445c0,-0.105 -0.113,-0.234 -0.25,-0.287c-0.138,-0.052 -0.25,-0.208 -0.25,-0.345c0,-0.137 -0.15,-0.33 -0.334,-0.428c-0.183,-0.098 -0.333,-0.29 -0.333,-0.427c0,-0.138 -0.113,-0.293 -0.25,-0.346c-0.138,-0.052 -0.25,-0.181 -0.25,-0.286c0,-0.105 -0.188,-0.409 -0.417,-0.675c-0.229,-0.266 -0.416,-0.534 -0.416,-0.596c0,-0.385 -2.456,-3.276 -2.916,-3.432c-0.424,-0.144 -25.623,-0.207 -26.443,-0.067m184.65,0.115c-0.252,0.039 -0.458,0.124 -0.458,0.191c0,0.067 -0.45,0.221 -1,0.343c-0.55,0.122 -1,0.282 -1,0.355c0,0.073 -0.225,0.182 -0.499,0.242c-0.274,0.06 -0.556,0.197 -0.625,0.305c-0.069,0.107 -0.323,0.307 -0.563,0.445c-0.559,0.32 -1.503,1.08 -2.33,1.875c-0.357,0.344 -0.69,0.625 -0.739,0.625c-0.117,0 -2.411,2.295 -2.411,2.413c0,0.05 -0.375,0.464 -0.833,0.92c-0.458,0.456 -0.833,0.887 -0.833,0.957c0,0.07 -0.225,0.34 -0.5,0.6c-0.275,0.259 -0.5,0.56 -0.5,0.667c0,0.108 -0.15,0.29 -0.334,0.404c-0.183,0.115 -0.333,0.32 -0.333,0.457c0,0.137 -0.077,0.249 -0.171,0.249c-0.094,0 -0.242,0.187 -0.329,0.416c-0.087,0.23 -0.221,0.417 -0.298,0.417c-0.077,0 -0.243,0.262 -0.369,0.583c-0.126,0.321 -0.285,0.584 -0.355,0.584c-0.129,0 -0.431,0.494 -0.891,1.458c-0.142,0.298 -0.32,0.542 -0.396,0.542c-0.076,0 -0.237,0.3 -0.358,0.666c-0.121,0.367 -0.283,0.667 -0.36,0.667c-0.077,0 -0.142,0.094 -0.145,0.208c-0.003,0.115 -0.151,0.509 -0.328,0.875c-0.632,1.31 -0.236,5.584 0.517,5.584c0.068,0 0.174,0.23 0.235,0.511c0.062,0.281 0.207,0.548 0.323,0.592c0.116,0.044 0.308,0.377 0.428,0.739c0.119,0.362 0.282,0.658 0.361,0.658c0.079,0 0.216,0.187 0.303,0.416c0.087,0.229 0.221,0.417 0.298,0.417c0.077,0 0.242,0.262 0.368,0.583c0.126,0.321 0.292,0.584 0.369,0.584c0.077,0 0.211,0.187 0.298,0.416c0.087,0.23 0.223,0.417 0.302,0.417c0.08,0 0.237,0.203 0.35,0.451c0.113,0.248 0.35,0.553 0.527,0.676c0.176,0.124 0.321,0.3 0.321,0.392c0,0.285 3.639,4.136 3.917,4.145c0.091,0.003 0.429,0.304 0.75,0.669c0.32,0.365 0.679,0.664 0.797,0.665c0.117,0.001 0.254,0.108 0.303,0.237c0.05,0.129 0.31,0.325 0.578,0.437c0.269,0.111 0.488,0.262 0.488,0.335c0,0.074 0.28,0.226 0.621,0.339c0.341,0.112 0.717,0.301 0.835,0.419c0.118,0.118 0.57,0.268 1.005,0.332c0.434,0.064 0.843,0.199 0.908,0.301c0.086,0.134 7.769,0.198 27.959,0.231l27.839,0.046l0,-11.587l0,-11.588l-1.74,0c-0.98,0 -1.785,-0.073 -1.843,-0.167c-0.068,-0.109 -5.058,-0.166 -14.427,-0.166c-9.438,0 -14.323,0.057 -14.323,0.166c0,0.106 -1.321,0.168 -3.625,0.168c-1.994,0.001 -4.019,0.049 -4.5,0.107l-0.875,0.105l0,3.894l0,3.893l14.583,0l14.583,0l0,2.583l0,2.584l-17.406,0c-9.574,0 -17.446,-0.063 -17.493,-0.139c-0.047,-0.076 -0.501,-0.231 -1.01,-0.345c-0.508,-0.114 -0.924,-0.271 -0.924,-0.35c0,-0.079 -0.169,-0.197 -0.375,-0.262c-0.206,-0.066 -0.607,-0.296 -0.891,-0.512c-0.283,-0.216 -0.565,-0.392 -0.625,-0.392c-0.06,0 -0.25,-0.132 -0.423,-0.292c-0.172,-0.16 -0.464,-0.404 -0.648,-0.542c-0.681,-0.508 -2.207,-2.027 -2.394,-2.383c-0.106,-0.201 -0.294,-0.427 -0.418,-0.5c-0.124,-0.073 -0.226,-0.239 -0.226,-0.369c0,-0.13 -0.141,-0.312 -0.314,-0.404c-0.173,-0.093 -0.364,-0.367 -0.425,-0.609c-0.061,-0.243 -0.227,-0.558 -0.37,-0.701c-0.368,-0.367 -0.245,-2.332 0.16,-2.559c0.155,-0.087 0.282,-0.241 0.282,-0.342c0,-0.102 0.296,-0.474 0.657,-0.828c0.361,-0.354 0.703,-0.792 0.761,-0.974c0.058,-0.182 0.166,-0.331 0.24,-0.331c0.16,0 1.675,-1.532 1.676,-1.694c0,-0.206 3.029,-3.126 3.348,-3.227c0.175,-0.056 0.318,-0.165 0.318,-0.244c0,-0.078 0.282,-0.234 0.625,-0.346c0.344,-0.112 0.663,-0.261 0.71,-0.332c0.257,-0.391 3.728,-0.442 24.874,-0.361l22.458,0.086l0,-4.608l0,-4.607l-26.792,0.025c-14.735,0.014 -26.998,0.056 -27.25,0.094m70.917,9.169l-5.875,0.05l0,14.164l0,14.165l4.667,0l4.666,0l0,-4.58l0,-4.581l0.375,-0.092c0.207,-0.051 4.015,-0.071 8.463,-0.045c8.707,0.051 8.134,-0.007 9.072,0.923c0.208,0.206 0.438,0.375 0.51,0.375c0.073,0 0.409,0.281 0.748,0.625c0.338,0.343 1.155,1.075 1.816,1.625c0.66,0.55 1.485,1.281 1.832,1.625c0.348,0.343 0.691,0.625 0.764,0.625c0.072,0 0.368,0.251 0.659,0.559c0.29,0.308 0.702,0.653 0.915,0.767c0.213,0.114 0.657,0.5 0.985,0.857c0.329,0.358 0.657,0.65 0.729,0.65c0.073,0 0.282,0.15 0.466,0.333c0.183,0.184 0.477,0.334 0.652,0.334c0.176,0 0.351,0.093 0.389,0.208c0.102,0.304 11.983,0.304 12.084,0c0.038,-0.115 0.175,-0.208 0.305,-0.208c0.13,0 0.236,-0.071 0.236,-0.157c0,-0.172 -1.184,-1.34 -1.361,-1.342c-0.061,-0.001 -0.592,-0.489 -1.179,-1.085c-0.587,-0.596 -1.117,-1.083 -1.177,-1.083c-0.059,0 -0.518,-0.394 -1.018,-0.875c-0.5,-0.481 -1.295,-1.213 -1.766,-1.625c-1.154,-1.011 -2.061,-1.839 -3.205,-2.925c-0.526,-0.5 -1.005,-0.908 -1.064,-0.908c-0.059,0 -0.268,-0.173 -0.464,-0.385l-0.357,-0.384l0.343,-0.366c0.189,-0.201 0.395,-0.365 0.459,-0.365c0.445,0 4.956,-4.983 4.956,-5.474c0,-0.106 0.065,-0.193 0.144,-0.193c0.515,0 1.738,-3.115 1.816,-4.626c0.077,-1.48 -0.119,-2.541 -0.469,-2.541c-0.074,0 -0.185,-0.157 -0.246,-0.349c-0.138,-0.433 -2.108,-2.484 -2.386,-2.484c-0.112,0 -0.244,-0.106 -0.294,-0.236c-0.049,-0.13 -0.478,-0.329 -0.953,-0.441c-0.474,-0.113 -0.915,-0.288 -0.981,-0.389c-0.117,-0.182 -20.897,-0.268 -35.256,-0.146m84.944,-0.005l-14.932,0.052l-0.101,6.208c-0.121,7.385 0.094,22.07 0.326,22.302c0.097,0.097 1.931,0.143 4.649,0.116l4.489,-0.044l0.044,-4.375l0.045,-4.375l12.539,-0.004c11.691,-0.003 14.686,-0.096 14.948,-0.466c0.05,-0.07 0.406,-0.229 0.79,-0.353c0.385,-0.124 0.739,-0.327 0.787,-0.451c0.047,-0.125 0.174,-0.226 0.28,-0.226c0.213,0 1.65,-1.379 1.65,-1.584c0,-0.07 0.263,-0.375 0.584,-0.677c0.321,-0.303 0.583,-0.609 0.583,-0.681c0,-0.071 0.152,-0.283 0.339,-0.469c0.613,-0.615 1.161,-1.336 1.161,-1.53c0,-0.105 0.096,-0.227 0.214,-0.273c0.118,-0.045 0.437,-0.409 0.709,-0.809c0.271,-0.4 0.625,-0.873 0.785,-1.05c0.161,-0.178 0.292,-0.384 0.292,-0.459c0,-0.074 0.131,-0.28 0.292,-0.456c0.628,-0.693 0.717,-0.867 0.956,-1.881c0.424,-1.798 0.162,-4.798 -0.419,-4.798c-0.077,0 -0.187,-0.147 -0.244,-0.327c-0.135,-0.425 -2.066,-2.34 -2.36,-2.34c-0.124,0 -0.225,-0.072 -0.225,-0.16c0,-0.088 -0.319,-0.253 -0.708,-0.367c-0.39,-0.113 -0.762,-0.285 -0.828,-0.381c-0.135,-0.199 -4.097,-0.22 -26.645,-0.142m-330.319,0.217c0,0.103 0.833,0.167 2.167,0.167c1.333,0 2.166,-0.064 2.166,-0.167c0,-0.092 0.413,-0.167 0.917,-0.167c0.504,0 0.917,0.066 0.917,0.146c0,0.08 0.233,0.193 0.517,0.249c0.559,0.112 1.308,0.722 1.313,1.069c0.002,0.117 0.115,0.257 0.253,0.309c0.137,0.053 0.25,0.2 0.25,0.327c0,0.127 0.15,0.325 0.333,0.439c0.184,0.115 0.334,0.284 0.334,0.376c0,0.093 0.187,0.387 0.417,0.653c0.229,0.266 0.416,0.542 0.416,0.613c0,0.071 0.094,0.23 0.208,0.353c0.519,0.558 1.292,1.63 1.292,1.79c0,0.097 0.077,0.176 0.171,0.176c0.094,0 0.242,0.188 0.329,0.417c0.087,0.229 0.226,0.417 0.309,0.417c0.083,0 0.242,0.219 0.353,0.488c0.111,0.268 0.307,0.528 0.437,0.578c0.129,0.049 0.234,0.201 0.234,0.337c0,0.136 0.094,0.307 0.209,0.38c0.114,0.073 0.303,0.283 0.42,0.467c0.117,0.183 0.368,0.577 0.558,0.875c0.191,0.298 0.414,0.541 0.496,0.541c0.083,0 0.151,0.098 0.151,0.218c0,0.119 0.262,0.504 0.583,0.854c0.321,0.35 0.583,0.688 0.583,0.751c0,0.063 0.14,0.265 0.311,0.448c0.311,0.333 0.689,0.957 0.689,1.135c0,0.052 -6.756,0.094 -15.014,0.094c-8.257,0 -14.984,-0.056 -14.949,-0.125c0.035,-0.068 0.193,-0.406 0.349,-0.75c0.157,-0.343 0.362,-0.625 0.455,-0.625c0.093,0 0.218,-0.131 0.277,-0.291c0.11,-0.298 0.797,-1.281 1.174,-1.679c0.115,-0.121 0.208,-0.278 0.208,-0.349c0,-0.071 0.188,-0.347 0.417,-0.613c0.229,-0.266 0.416,-0.57 0.416,-0.675c0.001,-0.105 0.113,-0.234 0.251,-0.286c0.137,-0.053 0.25,-0.174 0.25,-0.268c0,-0.095 0.131,-0.317 0.291,-0.493c0.538,-0.593 0.709,-0.831 0.903,-1.256c0.106,-0.233 0.257,-0.423 0.337,-0.423c0.079,0 0.215,-0.187 0.302,-0.417c0.087,-0.229 0.235,-0.416 0.329,-0.416c0.094,0 0.174,-0.094 0.178,-0.209c0.003,-0.114 0.228,-0.468 0.5,-0.785c0.271,-0.317 0.493,-0.636 0.493,-0.708c0,-0.073 0.131,-0.276 0.292,-0.453c0.475,-0.524 0.651,-0.761 0.875,-1.179c0.527,-0.985 1.754,-2.166 2.25,-2.166c0.229,0 0.416,-0.075 0.416,-0.167c0,-0.092 0.375,-0.167 0.834,-0.167c0.458,0 0.833,0.075 0.833,0.167m48.167,10.752c0,6.295 0.064,11.042 0.152,11.209c0.084,0.159 0.244,0.533 0.354,0.831c0.11,0.298 0.267,0.541 0.347,0.541c0.081,0 0.147,0.11 0.147,0.244c0,0.135 0.15,0.325 0.333,0.423c0.183,0.098 0.333,0.26 0.333,0.361c0,0.236 3.401,3.639 3.637,3.639c0.099,0 0.254,0.131 0.343,0.292c0.234,0.416 40.761,0.457 41.024,0.041c0.176,-0.279 0.222,-6.187 0.058,-7.389l-0.106,-0.77l-16.853,-0.045l-16.853,-0.046l-0.644,-0.364c-2.058,-1.164 -2.007,-0.893 -2.069,-11.094l-0.053,-8.792l-5.075,0l-5.075,0l0,10.919m53.271,-10.544c-0.301,1.123 -0.008,22.198 0.312,22.519c0.108,0.107 0.227,0.288 0.265,0.4c0.081,0.241 0.983,1.28 2.485,2.861c0.596,0.627 1.205,1.302 1.353,1.5c0.148,0.197 0.561,0.525 0.917,0.727l0.647,0.368l18.75,0.052c10.312,0.029 19.443,0.003 20.291,-0.057l1.542,-0.109l-0.002,-3.776c-0.002,-2.077 -0.047,-3.944 -0.102,-4.148l-0.1,-0.372l-16.856,-0.045c-16.757,-0.044 -16.86,-0.047 -17.465,-0.393c-0.784,-0.449 -1.455,-1.177 -1.588,-1.722c-0.058,-0.236 -0.187,-0.483 -0.288,-0.548c-0.127,-0.083 -0.197,-2.76 -0.231,-8.875l-0.049,-8.757l-4.89,0l-4.89,0l-0.101,0.375m194.229,13.959l0,14.333l4.666,0l4.667,0l0,-14.333l0,-14.334l-4.667,0l-4.666,0l0,14.334m-25.472,-7.191c4.43,0.099 5.32,0.189 4.874,0.491c-0.094,0.064 -0.267,0.354 -0.384,0.643c-0.281,0.696 -2.235,2.688 -2.767,2.821c-0.23,0.058 -0.418,0.157 -0.418,0.22c0,0.239 -1.146,0.516 -2.137,0.516c-0.575,0 -1.03,0.073 -1.03,0.166c0,0.108 -1.889,0.167 -5.333,0.167c-3.444,0 -5.333,-0.059 -5.333,-0.167c0,-0.107 -1.584,-0.166 -4.417,-0.166l-4.417,0l0,-2.25c0,-2.023 0.03,-2.253 0.292,-2.274c2.512,-0.202 15.1,-0.302 21.07,-0.167m80.123,0.036c0.813,0.175 1.098,0.925 0.502,1.323c-0.07,0.047 -0.179,0.292 -0.243,0.546c-0.063,0.254 -0.257,0.537 -0.43,0.629c-0.172,0.093 -0.314,0.263 -0.314,0.379c0,0.115 -0.227,0.394 -0.505,0.619c-0.278,0.225 -0.597,0.486 -0.708,0.581c-0.557,0.472 -1.328,0.942 -1.821,1.111c-0.302,0.103 -0.602,0.269 -0.668,0.369c-0.083,0.126 -3.298,0.195 -10.625,0.229l-10.506,0.047l0,-3.006l0,-3.006l12.242,0c8.096,0 12.524,0.061 13.076,0.179" fill="#040404" fill-rule="evenodd"/>
  </g>
  <g stroke="null">
   <g stroke="null" id="svg_2">
    <path stroke="null" fill-rule="evenodd" fill="#f7f7f7" d="m109.01205,21.55863c-1.17105,0.37629 -1.71767,1.3561 -1.33726,2.39828c0.27349,0.74882 0.76773,1.04149 2.14499,1.26974c0.71318,0.11823 1.00703,0.33106 1.00922,0.73237c0.00509,0.84512 -1.16524,1.08707 -2.23155,0.46163c-0.53498,-0.31358 -0.4746,-0.31769 -0.8532,0.05963l-0.31568,0.31461l0.1262,0.1669c1.25325,1.65871 4.54857,0.97809 4.54857,-0.93937c0,-1.10764 -0.62808,-1.66317 -2.19191,-1.93802c-0.97176,-0.17101 -1.28161,-0.52537 -0.96594,-1.10524c0.25712,-0.47157 0.9012,-0.55622 1.6202,-0.21282c0.54116,0.25806 0.70882,0.25772 0.96994,-0.00308c0.75318,-0.75293 -1.13069,-1.65186 -2.52359,-1.20462m4.32781,-0.05209c-0.27422,0.11241 -0.26658,0.0233 -0.26658,3.20742c0,3.53985 -0.15711,3.13236 1.2267,3.18583c2.59378,0.10007 3.2324,-0.01679 3.22367,-0.58946c-0.008,-0.53291 -0.01746,-0.536 -1.73767,-0.57164l-1.47036,-0.03016l0,-0.5713c0,-0.39617 0.02837,-0.62373 0.09165,-0.74265l0.09201,-0.17135l1.18778,-0.01542c1.36599,-0.01782 1.38199,-0.02365 1.43291,-0.52229c0.05601,-0.54765 -0.3244,-0.64806 -2.3192,-0.61208l-0.42442,0.00754l-0.0531,-0.46608c-0.12038,-1.05315 -0.12911,-1.04766 1.62384,-1.04766l1.41036,0l0.07019,-0.2207c0.15711,-0.49384 0.06728,-0.7711 -0.27894,-0.86157c-0.35495,-0.09287 -3.57426,-0.07471 -3.80884,0.02159m5.57306,0.00685c-0.1051,0.05038 -0.20693,0.14771 -0.22621,0.21591c-0.04619,0.16176 -0.04619,5.74073 -0.00036,5.90248c0.07201,0.25292 0.5317,0.29165 3.09348,0.26183c1.46636,-0.01714 1.498,-0.02879 1.50346,-0.54765c0.00582,-0.57438 0.01273,-0.57232 -1.81477,-0.59974l-1.54601,-0.02296l0,-2.4747l0,-2.47436l-0.1382,-0.15182c-0.17639,-0.19295 -0.58953,-0.24469 -0.87138,-0.10898m5.62179,-0.02605c-0.31131,0.11721 -0.30477,0.04661 -0.30658,3.18171l-0.00218,2.92982l0.14875,0.14017l0.14911,0.14017l1.91587,0c2.07771,0 2.10244,-0.00343 2.21228,-0.31735c0.23203,-0.66211 0.0611,-0.74676 -1.60747,-0.79474c-0.76664,-0.02228 -1.41545,-0.05929 -1.44163,-0.08294c-0.02582,-0.0233 -0.03964,-0.34854 -0.03019,-0.72312l0.01709,-0.68062l1.1976,-0.03324c1.42745,-0.03975 1.49982,-0.06854 1.49982,-0.59494c0,-0.53874 -0.15166,-0.57918 -2.22755,-0.59597l-0.50006,-0.00377l0,-0.74265l0,-0.74265l1.51546,0l1.5151,0l0,-0.50618l0,-0.50618l-0.34332,-0.06477c-0.42078,-0.07985 -3.50225,-0.08191 -3.7121,-0.00274m11.12829,-0.00446c-0.35168,0.09973 -0.43351,0.35265 -0.28076,0.87014l0.06292,0.21419l0.74809,0c0.64626,0 0.76773,0.01508 0.89138,0.10932l0.14293,0.10898l0.03055,2.4586c0.03419,2.78074 -0.00618,2.59191 0.5608,2.62001c0.70627,0.03461 0.70118,0.05758 0.70772,-3.11009c0.00509,-2.42433 -0.11565,-2.15701 0.99576,-2.20431c0.91939,-0.03907 0.84847,0.00343 0.85356,-0.51201l0.00364,-0.41296l-0.21203,-0.09973c-0.23312,-0.10967 -4.13688,-0.14599 -4.50456,-0.04215m-4.27326,0.08842c-0.76119,0.19295 -1.34089,0.69364 -1.58965,1.37289c-0.30731,0.8393 -0.27713,2.89487 0.05237,3.57994c0.97576,2.02781 4.39509,1.6923 4.87079,-0.47808c0.16366,-0.74608 -0.98012,-0.82285 -1.30744,-0.08773c-0.49533,1.11449 -2.17991,1.01236 -2.48395,-0.15045c-0.08837,-0.3386 -0.04691,-2.19642 0.05419,-2.42467c0.46551,-1.05212 1.75876,-1.07919 2.39703,-0.05004c0.54007,0.87117 1.63329,0.75259 1.32235,-0.14325c-0.46297,-1.33417 -1.82204,-1.99731 -3.31569,-1.61862" id="svg_8"/>
    <path stroke="null" fill-rule="evenodd" fill="#646464" d="m106.40554,19.81835c0,0.02742 -0.13747,0.06683 -0.30549,0.08773c-0.35932,0.04524 -0.89757,0.49796 -1.12778,0.94931c-0.31495,0.61791 -0.44551,0.89927 -0.44551,0.96061c0,0.03633 -0.02546,0.0658 -0.05601,0.0658c-0.03091,0 -0.08583,0.08568 -0.12256,0.19055c-0.03673,0.10453 -0.12074,0.28993 -0.18657,0.41194c-0.06583,0.12166 -0.12001,0.25463 -0.12001,0.29507c0,0.04044 -0.02728,0.07368 -0.06037,0.07368c-0.03346,0 -0.06073,0.02673 -0.06073,0.05963c0,0.0329 -0.12292,0.29439 -0.27276,0.58089c-0.1502,0.28651 -0.27276,0.55519 -0.27276,0.597c0,0.04181 -0.02619,0.07608 -0.05819,0.07608c-0.032,0 -0.09092,0.10281 -0.13093,0.22859c-0.04,0.12543 -0.09565,0.22824 -0.12365,0.22824c-0.028,0 -0.04546,0.01953 -0.03891,0.04284c0.00655,0.02365 -0.13347,0.32557 -0.31131,0.67137c-0.90811,1.76632 -1.03431,2.02301 -1.03431,2.10732c0,0.05038 -0.02619,0.0915 -0.05819,0.0915c-0.032,0 -0.09092,0.10281 -0.13056,0.22859c-0.04,0.12577 -0.09456,0.22859 -0.12147,0.22859c-0.02655,0 -0.0811,0.10281 -0.12111,0.22824c-0.04,0.12577 -0.09238,0.22859 -0.11601,0.22859c-0.024,0 -0.05928,0.07403 -0.07856,0.16484c-0.01928,0.09048 -0.05273,0.23167 -0.07455,0.31392l-0.04,0.14942l20.76695,0c20.43236,0 20.7684,-0.00171 20.87278,-0.11001c0.20112,-0.20905 0.24185,-0.26971 0.32222,-0.47911c0.04437,-0.11584 0.09965,-0.21042 0.12256,-0.21042c0.02328,0 0.06073,-0.0706 0.08365,-0.15696c0.02291,-0.08636 0.0771,-0.19569 0.12074,-0.24298c0.04328,-0.04695 0.09965,-0.14976 0.12474,-0.22824c0.02546,-0.07848 0.24876,-0.54148 0.49679,-1.02813c0.24803,-0.48699 0.51934,-1.02676 0.60298,-1.19948c0.08365,-0.17273 0.17711,-0.35299 0.20766,-0.39994c0.03055,-0.04729 0.08401,-0.14976 0.11892,-0.22859c0.03528,-0.07848 0.11674,-0.24709 0.18184,-0.37492c0.0651,-0.12783 0.1182,-0.26252 0.1182,-0.29987c0,-0.03736 0.02619,-0.06751 0.05819,-0.06751c0.032,0 0.09092,-0.10281 0.13056,-0.22859c0.04,-0.12577 0.09565,-0.22859 0.12365,-0.22859c0.02837,0 0.05128,-0.02536 0.05128,-0.05689c0,-0.03119 0.08183,-0.22002 0.18184,-0.41948c0.10001,-0.19946 0.18184,-0.3924 0.18184,-0.42873c0,-0.03633 0.02291,-0.0658 0.05092,-0.0658c0.028,0 0.08365,-0.10281 0.12365,-0.22859c0.04,-0.12543 0.09892,-0.22824 0.13093,-0.22824c0.032,0 0.05819,-0.02707 0.05819,-0.06032c0,-0.06374 0.10801,-0.29816 0.49097,-1.06411c0.38696,-0.77384 0.35568,-1.16041 -0.09347,-1.16041c-0.08146,0 -0.16475,-0.0257 -0.18548,-0.05723c-0.04764,-0.07231 -39.97479,-0.07951 -39.97479,-0.0072m4.27762,1.69024c0.90739,0.25429 1.31325,0.75362 0.98194,1.20908c-0.2593,0.35676 -0.5397,0.38966 -1.05577,0.12406c-0.83501,-0.4301 -1.66566,-0.1974 -1.67657,0.46917c-0.00764,0.47157 0.10983,0.54148 1.29143,0.76938c0.28331,0.05483 0.60189,0.12372 0.70772,0.15319c0.46151,0.12817 1.02195,0.69604 1.09286,1.10695c0.01891,0.11001 0.05783,0.21351 0.08656,0.2303c0.17057,0.09939 0.00509,1.03224 -0.25276,1.42636c-0.81537,1.24609 -3.17494,1.27865 -4.31472,0.05929c-0.22185,-0.23715 -0.22003,-0.24298 0.18839,-0.65492l0.35677,-0.35984l0.41605,0.24504c0.22876,0.13503 0.43533,0.27211 0.45933,0.30501c0.02546,0.0353 0.31458,0.05963 0.711,0.05963c0.79974,0 1.0194,-0.12475 1.07759,-0.61311c0.05855,-0.4887 -0.22366,-0.64635 -1.52892,-0.85335c-1.93988,-0.30775 -2.3752,-2.58026 -0.6739,-3.52065c0.44296,-0.24469 1.53074,-0.3242 2.13299,-0.15559m6.65756,-0.01851c0.1822,0.07814 0.24076,0.28513 0.18657,0.6604c-0.07528,0.52092 0.0691,0.47397 -1.454,0.47397c-1.77331,0 -1.66675,-0.04764 -1.66675,0.74128l0,0.62956l1.09323,0c1.44127,0 1.68894,0.08945 1.6933,0.61139c0.00473,0.61208 -0.20039,0.70221 -1.59911,0.70221c-1.28452,0 -1.24706,-0.03324 -1.20015,1.07097l0.01273,0.29987l1.33944,0c1.67148,0 1.87332,0.0682 1.87332,0.63401c0,0.58809 -0.13202,0.6227 -2.36393,0.6227c-2.16027,0 -2.13227,0.00514 -2.23119,-0.39857c-0.20657,-0.84375 -0.07419,-5.86547 0.15929,-6.04162c0.12874,-0.09699 3.93249,-0.10281 4.15724,-0.00617m2.45667,0.04558c0.22257,0.2094 0.24549,0.47808 0.24585,2.8414l0.00036,2.29547l1.52092,0.01782l1.52055,0.01816l0.1462,0.16005c0.22366,0.24538 0.20803,0.67582 -0.0331,0.90304l-0.17966,0.1693l-2.09881,-0.01645l-2.09917,-0.01645l-0.11565,-0.13503c-0.11092,-0.12886 -0.11601,-0.26663 -0.11601,-3.12311l0,-2.98808l0.15966,-0.11858c0.22257,-0.16484 0.87684,-0.16964 1.04886,-0.00754m8.62616,-0.07403l0.2273,0.0353l0,0.56376l0,0.56376l-1.51546,0l-1.5151,0l0,0.68542l0,0.68542l1.09286,0c1.48564,0 1.63475,0.06409 1.63475,0.70153c0,0.52503 -0.1182,0.57095 -1.5762,0.61037l-1.12123,0.0305l0,0.65663l0,0.65697l1.41472,0.02844c1.67112,0.03393 1.64639,0.02399 1.64639,0.65252c0,0.60865 0.12474,0.57301 -2.07117,0.59289c-2.28865,0.02091 -2.26537,0.02365 -2.41776,-0.29199c-0.30113,-0.62544 -0.14438,-6.08926 0.17711,-6.17014c0.15711,-0.03941 3.77174,-0.04078 4.02377,-0.00137m4.98098,0.18164c0.73682,0.32489 1.3438,1.09496 1.4129,1.79203l0.03237,0.32557l-0.27312,0.12509c-0.46951,0.21488 -0.95648,0.03667 -1.20124,-0.44004c-0.49461,-0.96267 -1.67875,-1.07268 -2.24901,-0.20871c-0.21857,0.3314 -0.2193,2.48738 -0.00073,2.84654c0.26549,0.43627 0.51315,0.56753 1.0725,0.56753c0.6379,0 0.71391,-0.05175 1.2467,-0.84649c0.27167,-0.40543 0.67681,-0.52023 1.13941,-0.32249l0.26585,0.11378l-0.03382,0.32763c-0.15893,1.53397 -2.24101,2.49047 -3.83502,1.76221c-0.6219,-0.28445 -1.17615,-0.86911 -1.26925,-1.33931c-0.02291,-0.11515 -0.06619,-0.2375 -0.09601,-0.27177c-0.18002,-0.20494 -0.11383,-2.3856 0.0931,-3.07205c0.13456,-0.44689 0.6539,-1.121 0.86338,-1.121c0.04328,0 0.07856,-0.02125 0.07856,-0.04729c0,-0.06511 0.55025,-0.30227 0.83065,-0.35813c0.52916,-0.10521 1.49655,-0.02125 1.92278,0.1669m6.98087,-0.09459c0.13056,0.12338 0.12547,0.7358 -0.00764,0.92737c-0.08583,0.12372 -0.14074,0.134 -0.87247,0.16176c-0.42914,0.01645 -0.81065,0.04729 -0.84701,0.06888c-0.04691,0.02707 -0.06692,0.73922 -0.06692,2.37909c0,2.87876 0.00764,2.85066 -0.75028,2.85066c-0.26549,0 -0.36877,-0.0281 -0.50406,-0.13777l-0.16984,-0.13777l-0.03055,-2.45654c-0.01673,-1.35096 -0.05273,-2.47779 -0.08074,-2.50383c-0.02764,-0.02605 -0.40514,-0.05655 -0.83901,-0.06751l-0.78883,-0.02022l-0.0851,-0.19226c-0.14838,-0.33448 -0.11274,-0.7382 0.0771,-0.87905c0.22476,-0.16656 4.78823,-0.1597 4.96534,0.0072" id="svg_7"/>
    <path stroke="null" fill-rule="evenodd" fill="#8c8c8c" d="m113.20784,21.51374c-0.07419,0.04901 -0.13456,0.11823 -0.13456,0.15388c0,0.03564 0.03382,0.02228 0.07565,-0.02947c0.04182,-0.05209 0.14402,-0.11961 0.2273,-0.15011c0.08328,-0.03084 0.10983,-0.05758 0.05892,-0.05929c-0.05092,-0.00206 -0.15311,0.03633 -0.2273,0.08499m18.76306,-0.04695c0.14256,0.01199 0.36077,0.01199 0.48515,-0.00034c0.12402,-0.01234 0.00727,-0.02193 -0.2593,-0.02193c-0.26658,0.00034 -0.36841,0.01028 -0.22585,0.02228m8.13265,0.02125c0.08146,0.03084 0.1782,0.07403 0.21494,0.0963c0.03673,0.02228 0.01491,-0.00446 -0.04873,-0.05929c-0.06364,-0.05518 -0.16038,-0.09836 -0.21494,-0.0963c-0.06292,0.00206 -0.0451,0.02399 0.04873,0.05929m-31.25807,0.05312c-0.19311,0.073 -0.16984,0.11618 0.03019,0.05655c0.34186,-0.10178 0.35204,-0.10658 0.2273,-0.10761c-0.06655,-0.00034 -0.18257,0.02262 -0.25749,0.05106m1.80895,0.02468c0.11965,0.04147 0.30367,0.11755 0.40914,0.16861c0.1051,0.05141 0.1913,0.07848 0.1913,0.06066c0,-0.04866 -0.62226,-0.31255 -0.72736,-0.30844c-0.05019,0.00206 0.00691,0.03736 0.12692,0.07917m17.79931,-0.04627c0.12911,0.02605 0.13638,0.05483 0.13638,0.53771l0,0.50995l-1.5151,0l-1.51546,0l0,0.74265c0,0.40851 0.02037,0.74265 0.04546,0.74265c0.02509,0 0.0371,-0.32078 0.02691,-0.71284l-0.01855,-0.71318l1.50346,-0.01542l1.50382,-0.01508l0,-0.54285c0,-0.53805 -0.00145,-0.54251 -0.15166,-0.55176c-0.13347,-0.00823 -0.13529,-0.00617 -0.01527,0.01816m2.77307,0.04627c-0.23348,0.10076 -0.19275,0.10144 0.18184,0.00343c0.18366,-0.04832 0.2433,-0.07985 0.15166,-0.08088c-0.08328,-0.00069 -0.23348,0.03427 -0.3335,0.07745m1.75804,0.00069c0.16657,0.04215 0.31131,0.06923 0.32113,0.05997c0.03346,-0.03119 -0.36768,-0.14462 -0.49715,-0.14051c-0.06983,0.00206 0.00909,0.03838 0.17602,0.08054m-24.57906,0.20631c-0.10038,0.07745 -0.11056,0.09699 -0.03019,0.05758c0.19784,-0.0963 0.30731,-0.17512 0.24258,-0.17478c-0.03346,0.00034 -0.12874,0.05278 -0.21239,0.11721m10.22345,-0.08122c-0.05528,0.05209 -0.04946,5.85725 0.00618,5.9395c0.02437,0.03633 0.04437,-1.29373 0.04437,-2.95587c0,-1.6618 -0.00218,-3.02167 -0.00509,-3.02167c-0.00255,0 -0.02291,0.01714 -0.04546,0.03804m16.63407,0.24744c-0.00182,0.14154 0.02037,0.29267 0.04946,0.3362c0.03273,0.04866 0.04219,-0.0281 0.02437,-0.20014c-0.04,-0.38658 -0.0691,-0.44072 -0.07383,-0.13606m5.16319,0c0,0.14154 0.01164,0.19911 0.02619,0.12852c0.01455,-0.0706 0.01455,-0.18643 0,-0.25703c-0.01455,-0.0706 -0.02619,-0.01302 -0.02619,0.12852m-29.08071,-0.07745c0.3084,0.25806 0.42223,0.33311 0.30331,0.20083c-0.06619,-0.07368 -0.17493,-0.16039 -0.24221,-0.19295c-0.06692,-0.03221 -0.09456,-0.03598 -0.0611,-0.00788m1.69476,2.81913c0,1.5864 0.008,2.23549 0.01746,1.44212c0.00946,-0.79303 0.00946,-2.09121 0,-2.88424c-0.00946,-0.79337 -0.01746,-0.14428 -0.01746,1.44212m11.15302,0c0,1.5864 0.00764,2.23549 0.01746,1.44212c0.00946,-0.79303 0.00946,-2.09121 0,-2.88424c-0.00982,-0.79337 -0.01746,-0.14428 -0.01746,1.44212m9.84923,-2.55593c0.14875,0.14908 0.27822,0.27108 0.28804,0.27108c0.04546,0 -0.00255,-0.05106 -0.27022,-0.28788l-0.28804,-0.25463l0.27022,0.27143m-14.10575,2.19882l-0.01455,2.41336l1.17324,0c0.64517,0 1.34744,0.01165 1.56056,0.0257c0.37386,0.02468 0.37677,0.02399 0.08474,-0.02365c-0.16657,-0.02707 -0.85502,-0.05141 -1.53001,-0.05415l-1.2267,-0.00514l-0.01637,-2.38457l-0.01637,-2.38457l-0.01455,2.41302m10.19872,-2.05763c-0.13674,0.17135 -0.25821,0.36156 -0.1742,0.2728c0.02982,-0.03153 0.13383,-0.14051 0.23167,-0.24264c0.09747,-0.10213 0.15202,-0.18506 0.12074,-0.18403c-0.03128,0.00103 -0.11129,0.07026 -0.1782,0.15388m-18.39611,0.11035c0,0.08328 -0.07019,0.24401 -0.15602,0.3571l-0.15566,0.20528l0.1862,-0.19774c0.15929,-0.1693 0.26403,-0.51646 0.15566,-0.51646c-0.01673,0 -0.03019,0.06854 -0.03019,0.15182m5.67161,0.00548l-0.04401,0.18541l-1.40454,0.00103c-0.90048,0.00069 -1.43727,0.02296 -1.49546,0.06203c-0.07128,0.04798 -0.05819,0.05415 0.06073,0.02844c0.08328,-0.01782 0.759,-0.0329 1.50164,-0.03359l1.34999,-0.00069l0.0611,-0.15148c0.03382,-0.08328 0.05092,-0.17958 0.03782,-0.21419c-0.01273,-0.03461 -0.04291,0.02091 -0.06728,0.12303m-9.73467,0.18883c-0.03637,0.06443 -0.05746,0.14257 -0.04655,0.17375c0.01091,0.03084 0.05128,-0.02193 0.08947,-0.11755c0.07965,-0.19877 0.05601,-0.22996 -0.04291,-0.0562m32.29456,-0.01988c0.07528,0.01337 0.18439,0.01302 0.24258,-0.00137c0.05783,-0.01439 -0.004,-0.02536 -0.13711,-0.02468c-0.13347,0.00069 -0.18075,0.01234 -0.10547,0.02605m-30.69,0.10555c-0.11565,0.08739 -0.11565,0.08773 0.00364,0.03598c0.06655,-0.02879 0.1622,-0.06683 0.21203,-0.08431c0.07856,-0.02742 0.07819,-0.03221 -0.00327,-0.03633c-0.05201,-0.0024 -0.14765,0.03564 -0.21239,0.08465m0.76119,-0.03187c0.2073,0.06272 0.36659,0.06272 0.21239,0c-0.06692,-0.02707 -0.17602,-0.04832 -0.24258,-0.04729c-0.09747,0.00137 -0.09165,0.01062 0.03019,0.04729m21.72998,0.0305c-0.13747,0.06237 -0.14475,0.07231 -0.03019,0.04044c0.19202,-0.05381 0.64226,-0.05449 0.87902,-0.00206l0.18184,0.04078l-0.18184,-0.08088c-0.23421,-0.10384 -0.61753,-0.10316 -0.84883,0.00171m4.46746,-0.03393c1.02704,0.0425 0.92121,-0.2327 0.96157,2.50521l0.03419,2.3246l-0.004,-2.33248l-0.004,-2.33282l-0.14293,-0.10898c-0.12547,-0.09562 -0.23421,-0.10795 -0.87902,-0.09836l-0.73573,0.01097l0.76991,0.03187m2.38902,0.01988c-0.07965,0.05518 -0.10074,0.13126 -0.08219,0.29987l0.02437,0.22619l0.01018,-0.24161c0.01164,-0.26971 0.03819,-0.28445 0.58625,-0.31838c0.29495,-0.01851 0.29313,-0.01919 -0.06437,-0.02947c-0.22075,-0.00617 -0.40987,0.01919 -0.47424,0.0634m-28.10131,0.12338c0,0.01576 0.08183,0.06854 0.18184,0.11721c0.10001,0.04866 0.18184,0.07574 0.18184,0.05997c0,-0.01576 -0.08183,-0.0682 -0.18184,-0.11721c-0.10001,-0.04866 -0.18184,-0.07574 -0.18184,-0.05997m3.78302,0.17958c-0.02218,0.11275 -0.01673,0.41468 0.01273,0.67102l0.0531,0.46608l0.36368,0.00411l0.36368,0.00411l-0.34332,-0.02091l-0.34332,-0.02091l-0.04219,-0.47568c-0.02291,-0.26149 -0.02328,-0.55622 -0.00036,-0.65423c0.02291,-0.09836 0.02728,-0.17889 0.00946,-0.17889c-0.01782,0 -0.05092,0.09253 -0.07346,0.20528m15.43828,-0.0281c-0.0371,0.10041 -0.06546,0.21111 -0.06328,0.24572c0.00255,0.03427 0.04328,-0.0377 0.09128,-0.16073c0.04764,-0.12303 0.07637,-0.23339 0.06328,-0.24572c-0.01309,-0.01234 -0.05382,0.05997 -0.09128,0.16073m3.26295,0.01268c0.11492,0.11549 0.21639,0.21008 0.22548,0.21008c0.06146,0 -0.08074,-0.16587 -0.24148,-0.28171l-0.19275,-0.1388l0.20875,0.21042m-24.14482,0.18609c-0.05019,0.12303 -0.04473,0.38075 0.00982,0.46129c0.02437,0.03633 0.04437,-0.073 0.04437,-0.24298c0,-0.34134 -0.00145,-0.34751 -0.05419,-0.21831m25.82067,-0.00446c0.11529,0.34751 0.10074,0.58295 -0.04255,0.67754c-0.07783,0.05141 -0.11238,0.09356 -0.0771,0.09356c0.2353,0 0.33204,-0.4044 0.17093,-0.71421c-0.0491,-0.09425 -0.07201,-0.11995 -0.05128,-0.05689m-1.33908,0.25703c0.05164,0.09425 0.10765,0.17135 0.12438,0.17135c0.01637,0 -0.012,-0.07711 -0.06401,-0.17135c-0.05164,-0.09425 -0.10765,-0.17135 -0.12438,-0.17135c-0.01637,0 0.012,0.07711 0.06401,0.17135m-2.4163,0.12612c-0.02037,0.07197 -0.03419,0.20802 -0.03055,0.30227c0.00436,0.11823 0.02182,0.08328 0.05637,-0.11241c0.0531,-0.2985 0.03746,-0.41228 -0.02582,-0.18986m-1.39035,0.80194c-0.01928,0.35333 -0.01527,0.84821 0.008,1.09941c0.03273,0.35059 0.04401,0.20117 0.04728,-0.64258c0.00509,-1.26323 -0.00655,-1.35884 -0.05528,-0.45683m-20.07522,-0.30707c0.06655,0.02639 0.23021,0.06409 0.36368,0.08396c0.15384,0.02262 0.19821,0.01816 0.12111,-0.01234c-0.06655,-0.02639 -0.23021,-0.06443 -0.36368,-0.08396c-0.15384,-0.02262 -0.19821,-0.01816 -0.12111,0.01234m6.74448,0.10555c0.10874,0.01302 0.2724,0.01268 0.36368,-0.00034c0.09092,-0.01302 0.00182,-0.02365 -0.19821,-0.0233c-0.20002,0.00034 -0.27458,0.01097 -0.16548,0.02365m10.84862,0c0.10838,0.01268 0.28549,0.01268 0.39387,0c0.10838,-0.01268 0.01964,-0.02296 -0.19675,-0.02296c-0.21675,0 -0.30549,0.01028 -0.19712,0.02296m-16.53224,0.08876c0.01637,0.01611 0.13711,0.05689 0.26731,0.09048c0.13056,0.03359 0.21239,0.03907 0.18184,0.01199c-0.05819,-0.05175 -0.50152,-0.15251 -0.44915,-0.10247m0.60589,0.16587c0.4786,0.40954 0.66663,0.55348 0.54552,0.41879c-0.18148,-0.2022 -0.2924,-0.29542 -0.4546,-0.38075c-0.06655,-0.03496 -0.10765,-0.05209 -0.09092,-0.03804m17.17123,0.30398c0.00036,0.15696 0.012,0.21454 0.02619,0.12749c0.01382,-0.08671 0.01346,-0.21522 -0.00109,-0.28548c-0.01418,-0.07026 -0.02582,0.00069 -0.02509,0.15799m-11.1563,-0.02879c0,0.11001 0.01237,0.1549 0.02764,0.10007c0.01527,-0.05483 0.01527,-0.14497 0,-0.1998c-0.01527,-0.05518 -0.02764,-0.01028 -0.02764,0.09973m13.76789,0.69844c0.00764,0.4349 0.03455,0.63367 0.09383,0.68542c0.06837,0.05997 0.07383,0.05758 0.03128,-0.01268c-0.02873,-0.04695 -0.07092,-0.35539 -0.09383,-0.68542l-0.04219,-0.60008l0.01091,0.61276m-22.02529,-0.24744c0.04982,0.02913 0.20002,0.06786 0.33313,0.08602c0.17166,0.02365 0.19821,0.01953 0.09092,-0.01405c-0.27822,-0.08705 -0.52152,-0.12852 -0.42405,-0.07197m3.03783,0.17855c0.09201,0.256 0.14365,0.3057 0.08801,0.08465c-0.024,-0.09425 -0.06946,-0.19672 -0.1011,-0.22722c-0.032,-0.03084 -0.02619,0.03359 0.01309,0.14257m2.5505,0.01028c-0.04,0.0377 -0.07274,0.0939 -0.07274,0.12509c0,0.03119 0.03419,0.01337 0.07601,-0.03907c0.0651,-0.08259 0.23094,-0.09836 1.19688,-0.11241l1.12159,-0.01645l-1.1245,-0.01268c-0.80956,-0.00925 -1.14487,0.00617 -1.19724,0.05552m13.15618,-0.02913c0.05855,0.01439 0.15384,0.01439 0.21239,0c0.05819,-0.01439 0.01055,-0.02605 -0.1062,-0.02605c-0.11674,0 -0.16438,0.01165 -0.1062,0.02605m-17.5931,0.05826c0.05019,0.01714 0.17966,0.06546 0.28804,0.10658c0.10838,0.04147 0.19712,0.06272 0.19712,0.04695c0,-0.04078 -0.4055,-0.195 -0.49824,-0.18952c-0.05019,0.00274 -0.04582,0.01542 0.01309,0.03598m15.55757,-0.0024c-0.05601,0.05243 -0.05128,1.37701 0.00509,1.40922c0.02509,0.01439 0.67281,0.03907 1.43945,0.05483l1.39436,0.02879l-1.40927,-0.05826l-1.40927,-0.0586l0,-0.67377c0,-0.48562 0.02109,-0.68165 0.07565,-0.70255c0.04219,-0.01611 0.04691,-0.03084 0.01018,-0.03324c-0.03637,-0.0024 -0.08401,0.01268 -0.1062,0.03359m8.4305,0.17341c0.07492,0.01371 0.19748,0.01371 0.27276,0c0.07492,-0.01337 0.01346,-0.02468 -0.13638,-0.02468c-0.1502,0 -0.21166,0.01131 -0.13638,0.02468m-23.35163,0.15319c0.07601,0.11961 0.09674,0.24332 0.07601,0.44758c-0.01673,0.16553 -0.00764,0.25086 0.02255,0.20631c0.09856,-0.14668 0.05528,-0.52743 -0.07674,-0.67582l-0.12692,-0.14291l0.1051,0.16484m3.64482,-0.00788c-0.07092,0.24949 -0.04255,1.07337 0.03746,1.09804c0.04182,0.01268 0.71682,0.03153 1.50019,0.04181c0.78337,0.01028 1.30162,0.00103 1.15178,-0.02091c-0.1502,-0.02159 -0.81465,-0.04147 -1.47691,-0.04352l-1.20379,-0.00446l0.02364,-0.59974c0.02509,-0.64327 0.02364,-0.6676 -0.03237,-0.47123m19.26349,0.05723l-0.1782,0.18575l0.21203,-0.17135c0.11638,-0.09425 0.2233,-0.17787 0.23748,-0.18575c0.01382,-0.00788 -0.00145,-0.01439 -0.03382,-0.01439c-0.03273,0 -0.13965,0.08362 -0.23748,0.18575m1.05795,-0.09219c0.14329,0.09459 0.15529,0.33209 0.03382,0.68028c-0.03128,0.09048 -0.02655,0.09527 0.02582,0.02605c0.20075,-0.26629 0.10947,-0.79988 -0.13674,-0.79988c-0.03528,0 -0.00073,0.04215 0.0771,0.09356m-26.81788,0.77761l-0.23967,0.24264l0.25821,-0.22619l0.25821,-0.22619l0.19639,0.10247l0.19639,0.10247l-0.15129,-0.11755c-0.20912,-0.16244 -0.24549,-0.15388 -0.51825,0.12235m21.88454,-0.01439c0.05455,0.17135 0.20512,0.45717 0.24039,0.45717c0.028,0 -0.2073,-0.52503 -0.25603,-0.5713c-0.01637,-0.01576 -0.00946,0.03564 0.01564,0.11412m1.42418,-0.0963c0,0.00994 0.08874,0.09356 0.19712,0.18575l0.19712,0.16758l-0.1782,-0.18541c-0.16584,-0.17307 -0.21603,-0.21214 -0.21603,-0.16793m1.90569,0.16793l-0.1782,0.18541l0.19712,-0.16758c0.18366,-0.15628 0.22476,-0.20357 0.1782,-0.20357c-0.01055,0 -0.09929,0.08362 -0.19712,0.18575m1.45836,0.21419c-0.05164,0.09425 -0.08037,0.17135 -0.06364,0.17135c0.01673,0 0.07274,-0.07711 0.12438,-0.17135c0.05164,-0.09425 0.08037,-0.17135 0.06364,-0.17135c-0.01673,0 -0.07237,0.07711 -0.12438,0.17135m-27.06337,0.11344c-0.05382,0.09493 -0.02873,0.14805 0.15602,0.32832l0.22039,0.21488l-0.18511,-0.22345c-0.14511,-0.17478 -0.17239,-0.24641 -0.12583,-0.32832c0.03273,-0.05792 0.04582,-0.10487 0.02909,-0.10487c-0.01637,0 -0.05928,0.05106 -0.09456,0.11344m2.60578,-0.04866c-0.14984,0.02879 -0.40914,0.03975 -0.57571,0.02433c-0.27531,-0.02502 -0.28367,-0.02262 -0.09092,0.02707c0.23057,0.05963 0.83392,0.02091 0.97394,-0.06272c0.10183,-0.06066 0.06001,-0.05929 -0.30731,0.01131m21.6496,-0.03838c0.08146,0.08156 0.50988,0.1364 0.71682,0.09219c0.1913,-0.04113 0.1793,-0.04558 -0.12111,-0.04352c-0.1833,0.00103 -0.4015,-0.01851 -0.48479,-0.04387c-0.08328,-0.02502 -0.13347,-0.02707 -0.11092,-0.0048m-19.86865,0.27348c-0.20839,0.33346 -0.22221,0.3619 -0.11601,0.24264c0.12329,-0.13811 0.22948,-0.31426 0.18948,-0.31426c-0.01564,0 -0.04873,0.03221 -0.07346,0.07163m22.37006,0.13811c-0.09347,0.11549 -0.13893,0.19157 -0.1011,0.16964c0.07746,-0.04524 0.34004,-0.37938 0.29786,-0.37938c-0.01491,0 -0.10365,0.09459 -0.19675,0.20974m4.29508,0.1902c0,0.17273 0.01127,0.24332 0.02509,0.15696c0.01418,-0.08636 0.01418,-0.22756 0,-0.31392c-0.01382,-0.08636 -0.02509,-0.01576 -0.02509,0.15696m-8.18429,-0.02159c0.1582,0.16347 0.6499,0.46437 0.6499,0.39789c0,-0.01679 -0.08146,-0.07026 -0.18075,-0.11892c-0.09965,-0.04832 -0.28367,-0.16998 -0.40914,-0.27006l-0.22839,-0.18198l0.16838,0.17307m-22.14057,0.27794c0,0.03907 0.37096,0.21248 0.3986,0.18643c0.01346,-0.01234 -0.07092,-0.06511 -0.1873,-0.11755c-0.11638,-0.05209 -0.2113,-0.08328 -0.2113,-0.06888m20.492,0.04352c-0.00255,0.05483 -0.05928,0.15148 -0.12583,0.21419c-0.06692,0.06272 -0.09456,0.11412 -0.06219,0.11412c0.08874,0 0.26003,-0.27108 0.22403,-0.35505c-0.01964,-0.04592 -0.0331,-0.03598 -0.036,0.02673m4.81405,0.04284c-0.10001,0.06237 -0.15456,0.11309 -0.12111,0.11275c0.06073,-0.00103 0.39023,-0.22379 0.33313,-0.2255c-0.01673,-0.00034 -0.11201,0.05038 -0.21203,0.11275m-9.2437,0.05038c0,0.05552 0.23567,0.26354 0.26112,0.22996c0.00982,-0.01268 -0.04473,-0.08019 -0.12147,-0.14976c-0.07674,-0.06957 -0.13965,-0.10555 -0.13965,-0.08019m-6.90122,0.12577c-0.07892,0.06032 -0.1182,0.10932 -0.08765,0.10932c0.08146,0 0.2964,-0.15696 0.26076,-0.1902c-0.01673,-0.01542 -0.09456,0.02091 -0.17311,0.08088m15.5994,0.02536c-0.13347,0.04147 -0.18802,0.07608 -0.12111,0.07711c0.06655,0.00103 0.20293,-0.03359 0.30295,-0.07677c0.22912,-0.0987 0.13565,-0.09904 -0.18184,-0.00034m-24.06372,0.02707c0.06692,0.02673 0.17602,0.04832 0.24258,0.04729c0.09747,-0.00137 0.09165,-0.01062 -0.03019,-0.04729c-0.2073,-0.06272 -0.36659,-0.06272 -0.21239,0m1.60638,0c-0.12183,0.03667 -0.12765,0.04592 -0.03019,0.04729c0.06655,0.00103 0.17566,-0.02056 0.24221,-0.04729c0.15456,-0.06272 -0.00473,-0.06272 -0.21203,0m20.94188,-0.00274c0.11638,0.04969 0.44115,0.08191 0.38914,0.03873c-0.01382,-0.01165 -0.13456,-0.03667 -0.26767,-0.05586c-0.16911,-0.02399 -0.20584,-0.01885 -0.12147,0.01714m-17.68184,0.10178c0.17602,0.01165 0.44878,0.01165 0.60626,0c0.15711,-0.01199 0.01309,-0.02125 -0.3204,-0.02125c-0.3335,0.00034 -0.46188,0.00994 -0.28585,0.02125m2.54577,0c0.17602,0.01165 0.44878,0.01165 0.60626,0c0.15711,-0.01199 0.01309,-0.02125 -0.3204,-0.02125c-0.3335,0.00034 -0.46188,0.00994 -0.28585,0.02125m2.9691,-0.00069c0.1091,0.01268 0.27276,0.01234 0.36368,-0.00069c0.09092,-0.01302 0.00182,-0.0233 -0.19821,-0.02296c-0.20002,0.00034 -0.27458,0.01097 -0.16548,0.02365m1.9417,0.00137c0.34368,0.01028 0.8892,0.00994 1.21251,-0.00034c0.32295,-0.00994 0.04219,-0.01851 -0.6248,-0.01851c-0.66663,0.00034 -0.93102,0.00857 -0.58771,0.01885m4.33072,0c0.52516,0.0096 1.38417,0.0096 1.90933,0c0.52516,-0.0096 0.09528,-0.01714 -0.95466,-0.01714c-1.05031,0 -1.47982,0.00754 -0.95466,0.01714m6.51463,-0.00137c0.10765,0.01234 0.29858,0.01268 0.42442,0.00034c0.12547,-0.01234 0.03746,-0.02262 -0.19566,-0.02296c-0.23348,-0.00034 -0.33641,0.00994 -0.22876,0.02262m5.73017,-0.00034c0.09201,0.01302 0.22839,0.01268 0.30295,-0.00069c0.07455,-0.01371 -0.00073,-0.02433 -0.16729,-0.02399c-0.16693,0.00034 -0.22766,0.01165 -0.13565,0.02468" id="svg_6"/>
    <path stroke="null" fill-rule="evenodd" fill="#7c7c7c" d="m124.13284,24.65227c0,1.47639 0.00764,2.08847 0.01746,1.36021c0.00946,-0.72791 0.00946,-1.93597 0,-2.68444c-0.00946,-0.74813 -0.01746,-0.15251 -0.01746,1.32423m-14.49962,-2.04563c0.05855,0.01439 0.15384,0.01439 0.21239,0c0.05819,-0.01439 0.01055,-0.02605 -0.1062,-0.02605c-0.11674,0 -0.16438,0.01165 -0.1062,0.02605m29.91354,0.00103c0.07565,0.01371 0.18475,0.01337 0.24258,-0.00103c0.05783,-0.01439 -0.00364,-0.02536 -0.13711,-0.02502c-0.13347,0.00069 -0.18075,0.01234 -0.10547,0.02605m-25.18131,0.64498c0,0.20425 0.01091,0.28788 0.02437,0.18575c0.01346,-0.10213 0.01346,-0.26903 0,-0.37115c-0.01346,-0.10213 -0.02437,-0.01885 -0.02437,0.18541m-6.85358,0.08568c0.00073,0.12577 0.01309,0.17033 0.02764,0.09939c0.01455,-0.07094 0.01418,-0.17375 -0.00109,-0.22859c-0.01527,-0.05449 -0.02691,0.00377 -0.02655,0.1292m31.04641,1.74233c0,1.08365 0.008,1.52711 0.01782,0.98529c0.01018,-0.54217 0.01018,-1.42876 0,-1.97058c-0.00982,-0.54217 -0.01782,-0.0987 -0.01782,0.98529m-7.64604,-0.82833c0.00036,0.18849 0.01164,0.25875 0.02509,0.15593c0.01382,-0.10247 0.01346,-0.25669 -0.00036,-0.34271c-0.01382,-0.08568 -0.02509,-0.00171 -0.02473,0.18678m-15.57939,-0.21488c0.15929,0.01165 0.40478,0.01165 0.54552,-0.00034c0.14074,-0.01199 0.01018,-0.02159 -0.28985,-0.02159c-0.30004,0.00034 -0.41496,0.00994 -0.25567,0.02193m10.66605,0c0.19166,0.01131 0.50552,0.01131 0.69718,0c0.19166,-0.01131 0.03491,-0.02056 -0.34841,-0.02056c-0.38368,0 -0.54043,0.00925 -0.34877,0.02056m3.51462,0.18643c0,0.10967 0.01237,0.1549 0.02764,0.09973c0.01527,-0.05483 0.01527,-0.14497 0,-0.1998c-0.01527,-0.05483 -0.02764,-0.00994 -0.02764,0.10007m-17.39125,1.79922c0.00036,0.18849 0.01164,0.25875 0.02509,0.15593c0.01346,-0.10281 0.01309,-0.25703 -0.00073,-0.34271c-0.01382,-0.08568 -0.02473,-0.00171 -0.02437,0.18678m2.2421,0.37115c0,0.17273 0.01127,0.24332 0.02509,0.15696c0.01382,-0.08636 0.01382,-0.22756 0,-0.31392c-0.01382,-0.08636 -0.02509,-0.01576 -0.02509,0.15696" id="svg_5"/>
    <path stroke="null" fill-rule="evenodd" fill="#747474" d="m112.97982,24.68071c0,1.49216 0.008,2.10252 0.01746,1.35644c0.00982,-0.74608 0.00982,-1.96681 0,-2.71289c-0.00946,-0.74608 -0.01746,-0.13571 -0.01746,1.35644m7.03106,-0.34271c0,1.30367 0.008,1.83692 0.01746,1.18509c0.00982,-0.65183 0.00982,-1.71834 0,-2.37018c-0.00946,-0.65183 -0.01746,-0.11858 -0.01746,1.18509m19.9603,-1.73034c0.07528,0.01371 0.18439,0.01337 0.24258,-0.00103c0.05783,-0.01439 -0.004,-0.02536 -0.13711,-0.02502c-0.13347,0.00069 -0.18075,0.01234 -0.10547,0.02605m-1.18269,0.0562c0.05819,0.01439 0.15384,0.01439 0.21203,0c0.05855,-0.01439 0.01091,-0.02605 -0.10583,-0.02605c-0.11674,0 -0.16438,0.01165 -0.1062,0.02605m-1.6242,2.55935c0,1.194 0.008,1.69024 0.01782,1.10352c0.00982,-0.58706 0.00982,-1.56378 0,-2.17072c-0.00982,-0.6066 -0.01782,-0.12646 -0.01782,1.0672m-22.58972,-1.18646c0.10874,0.01268 0.2724,0.01234 0.36368,-0.00069c0.09092,-0.01302 0.00182,-0.0233 -0.19821,-0.02296c-0.20002,0.00034 -0.27458,0.01097 -0.16548,0.02365m1.66639,-0.00034c0.09238,0.01302 0.22876,0.01268 0.30331,-0.00103c0.07455,-0.01337 -0.00109,-0.02433 -0.16766,-0.02365c-0.16657,0.00034 -0.22766,0.01131 -0.13565,0.02468m10.91045,0c0.09238,0.01302 0.22876,0.01268 0.30331,-0.00103c0.07455,-0.01337 -0.00109,-0.02433 -0.16766,-0.02365c-0.16657,0.00034 -0.22766,0.01131 -0.13565,0.02468m-12.64448,1.25843c-0.01564,0.0233 0.30331,0.03598 0.70845,0.02776c1.38199,-0.0281 1.52637,-0.04832 0.42223,-0.05963c-0.60626,-0.00617 -1.11541,0.00823 -1.13069,0.03187m11.97967,-0.00034c0.26003,0.01062 0.66917,0.01062 0.9092,-0.00034c0.24039,-0.01062 0.02764,-0.01953 -0.47242,-0.01953c-0.50006,0.00034 -0.69645,0.00891 -0.43678,0.01988m0.84592,1.42738c0.19166,0.01165 0.50552,0.01165 0.69718,0c0.19166,-0.01131 0.03455,-0.02056 -0.34877,-0.02056c-0.38332,0 -0.54007,0.00925 -0.34841,0.02056m11.21485,0.52914c0,0.1412 0.012,0.19911 0.02619,0.12852c0.01455,-0.0706 0.01455,-0.18643 0,-0.25703c-0.01418,-0.0706 -0.02619,-0.01302 -0.02619,0.12852m-20.97243,0.05723c0,0.1412 0.012,0.19911 0.02655,0.12852c0.01418,-0.07094 0.01418,-0.18643 0,-0.25703c-0.01455,-0.07094 -0.02655,-0.01302 -0.02655,0.12852" id="svg_4"/>
    <path stroke="null" fill-rule="evenodd" fill="#040404" d="m12.38476,3.94817c-0.22512,0.03667 -0.65826,0.38006 -0.73646,0.58398c-0.02109,0.05518 -0.06655,0.10007 -0.1011,0.10007c-0.03419,0 -0.06255,0.02844 -0.06255,0.06306c0,0.03496 -0.0611,0.13297 -0.13638,0.21796c-0.16657,0.18918 -0.31386,0.37835 -0.4706,0.6042c-0.23239,0.33586 -0.27276,0.39103 -0.35204,0.48048c-0.28622,0.32386 -0.37423,0.44107 -0.37423,0.49898c0,0.03564 -0.0411,0.07985 -0.09092,0.09801c-0.05019,0.01816 -0.09092,0.07128 -0.09092,0.11823c0,0.04695 -0.05455,0.11309 -0.12147,0.14668c-0.06655,0.03359 -0.12111,0.08602 -0.12111,0.11618c0,0.0305 -0.04291,0.10007 -0.09528,0.15525c-0.23494,0.24607 -0.3895,0.44758 -0.3895,0.5079c0,0.03598 -0.0411,0.08019 -0.09092,0.09801c-0.05019,0.01816 -0.09092,0.07128 -0.09092,0.11858c0,0.04695 -0.05455,0.11275 -0.12147,0.14634c-0.06655,0.03359 -0.12111,0.08876 -0.12111,0.12235c0,0.05518 -0.16838,0.27691 -0.38441,0.50618c-0.04437,0.04695 -0.09783,0.13057 -0.11892,0.18541c-0.02109,0.05518 -0.06655,0.10007 -0.10074,0.10007c-0.03455,0 -0.06255,0.02844 -0.06255,0.06306c0,0.03496 -0.06146,0.13297 -0.13638,0.21796c-0.07528,0.08499 -0.19093,0.22756 -0.25785,0.31666c-0.06655,0.08945 -0.1622,0.20425 -0.21203,0.25532c-0.05019,0.05106 -0.13202,0.16861 -0.18184,0.2608c-0.05019,0.09219 -0.13202,0.21179 -0.18184,0.2656c-0.05019,0.05346 -0.1182,0.13194 -0.15166,0.1741c-0.0331,0.04215 -0.19021,0.23476 -0.34841,0.4277c-0.1582,0.19295 -0.28804,0.36601 -0.28804,0.38452c0,0.01816 -0.04291,0.07814 -0.09528,0.13331c-0.22621,0.23715 -0.3895,0.44655 -0.3895,0.50036c0,0.03153 -0.05455,0.08945 -0.12111,0.12886c-0.06692,0.03907 -0.12147,0.10967 -0.12147,0.15662c0,0.04661 -0.028,0.08499 -0.06183,0.08499c-0.03419,0 -0.08837,0.06443 -0.12001,0.14291c-0.03164,0.07848 -0.08219,0.14291 -0.11238,0.14291c-0.02982,0 -0.08765,0.07505 -0.12802,0.16724c-0.04073,0.09185 -0.11201,0.18095 -0.15893,0.19809c-0.04691,0.01679 -0.08547,0.06888 -0.08547,0.11549c0,0.04661 -0.03419,0.10521 -0.07565,0.13023c-0.04182,0.02502 -0.17057,0.1741 -0.28622,0.3314c-0.24403,0.33106 -0.29713,0.39686 -0.44115,0.54662c-0.05855,0.06066 -0.10656,0.12954 -0.10692,0.15285c-0.00036,0.02365 -0.05492,0.10727 -0.12111,0.18575c-0.06619,0.07848 -0.3044,0.37424 -0.52916,0.65697c-0.22512,0.28274 -0.44333,0.54799 -0.48515,0.58946c-0.04182,0.04147 -0.07601,0.09527 -0.07601,0.11961c0,0.02433 -0.06837,0.11892 -0.15166,0.21008c-0.08328,0.09116 -0.15129,0.19809 -0.15129,0.2375c-0.00036,0.03907 -0.02728,0.07128 -0.06001,0.07128c-0.07746,0 -0.2433,0.37424 -0.2433,0.54971l0,0.13571l2.07589,0.01199c2.27119,0.01337 2.96946,-0.00206 3.01565,-0.06649c0.01673,-0.0233 0.10765,-0.05997 0.20257,-0.08191c0.20075,-0.04627 0.73209,-0.5264 0.79755,-0.72072c0.02473,-0.07334 0.07601,-0.1693 0.11347,-0.21248c0.2313,-0.26731 0.39896,-0.40234 0.54007,-0.43593c0.22185,-0.05243 15.36918,-0.06134 15.57576,-0.00925c0.32259,0.08156 1.01322,0.47088 1.01467,0.57232c0.00036,0.03153 0.06728,0.12989 0.14838,0.21899c0.08146,0.0891 0.16438,0.23304 0.18475,0.32043c0.02146,0.09219 0.1051,0.19123 0.20075,0.23784c0.09019,0.04352 0.1833,0.10521 0.20693,0.1364c0.05092,0.06751 4.29435,0.11446 5.06354,0.0562c0.6619,-0.05004 0.68954,-0.24092 0.12111,-0.83107c-0.05819,-0.06066 -0.10583,-0.13091 -0.10583,-0.15628c0,-0.02536 -0.09565,-0.14394 -0.21239,-0.26423c-0.11674,-0.11995 -0.21203,-0.23407 -0.21203,-0.25395c0,-0.01953 -0.06837,-0.11035 -0.15166,-0.20151c-0.08328,-0.09116 -0.15129,-0.18369 -0.15129,-0.20528c0,-0.02159 -0.06837,-0.11412 -0.15166,-0.20528c-0.08328,-0.09116 -0.15129,-0.19192 -0.15129,-0.22379c-0.00036,-0.03153 -0.05492,-0.08945 -0.12147,-0.12886c-0.06655,-0.03907 -0.12111,-0.10967 -0.12111,-0.15662c0,-0.04661 -0.02837,-0.08499 -0.06255,-0.08499c-0.03455,0 -0.08001,-0.04524 -0.10147,-0.10007c-0.02109,-0.05483 -0.09528,-0.1669 -0.16475,-0.24915c-0.0691,-0.08191 -0.16693,-0.20837 -0.21675,-0.28068c-0.05019,-0.07231 -0.13893,-0.17889 -0.19712,-0.23647c-0.05819,-0.05758 -0.1062,-0.12406 -0.1062,-0.14771c0,-0.0233 -0.06801,-0.11755 -0.15166,-0.20871c-0.08328,-0.09116 -0.15129,-0.18575 -0.15129,-0.21008c0,-0.02433 -0.03419,-0.07848 -0.07565,-0.12029c-0.15929,-0.16005 -0.65172,-0.78103 -0.65172,-0.82216c0,-0.0233 -0.04182,-0.08328 -0.09274,-0.13331c-0.20693,-0.20151 -0.39205,-0.43695 -0.39205,-0.4983c0,-0.03598 -0.0411,-0.08019 -0.09092,-0.09836c-0.05019,-0.01782 -0.09092,-0.07128 -0.09092,-0.11823c0,-0.04695 -0.05455,-0.11309 -0.12147,-0.14668c-0.06655,-0.03359 -0.12111,-0.09939 -0.12111,-0.14634c0,-0.04729 -0.0411,-0.10041 -0.09092,-0.11858c-0.05019,-0.01782 -0.09092,-0.06203 -0.09092,-0.09801c0,-0.05792 -0.12656,-0.22516 -0.37459,-0.49556c-0.04401,-0.04798 -0.12111,-0.16279 -0.17093,-0.25532c-0.05019,-0.09219 -0.13202,-0.2094 -0.18184,-0.26012c-0.05019,-0.05072 -0.13202,-0.15079 -0.18184,-0.22242c-0.1382,-0.19774 -0.41023,-0.53463 -0.51388,-0.63607c-0.05055,-0.04969 -0.09238,-0.11892 -0.09238,-0.15422c0,-0.03496 -0.03382,-0.08431 -0.07565,-0.10932c-0.04182,-0.02502 -0.11056,-0.09699 -0.15311,-0.16005c-0.04219,-0.06272 -0.13347,-0.19774 -0.20293,-0.29987c-0.0691,-0.10213 -0.1502,-0.18541 -0.18039,-0.18541c-0.02982,0 -0.05455,-0.03941 -0.05455,-0.08773c0,-0.04798 -0.0411,-0.10213 -0.09092,-0.12029c-0.05019,-0.01782 -0.09092,-0.06717 -0.09092,-0.10898c0,-0.04215 -0.04764,-0.11001 -0.1062,-0.15113c-0.05819,-0.04113 -0.14693,-0.15079 -0.19675,-0.24435c-0.05019,-0.09322 -0.12729,-0.20871 -0.17129,-0.25703c-0.24767,-0.27006 -0.37423,-0.4373 -0.37423,-0.49522c0,-0.03598 -0.0411,-0.08019 -0.09092,-0.09836c-0.05019,-0.01782 -0.09092,-0.07128 -0.09092,-0.11823c0,-0.04695 -0.05455,-0.11309 -0.12147,-0.14668c-0.06655,-0.03359 -0.12111,-0.09939 -0.12111,-0.14634c0,-0.04729 -0.0411,-0.10041 -0.09092,-0.11858c-0.05019,-0.01782 -0.09092,-0.06203 -0.09092,-0.09801c0,-0.03598 -0.06837,-0.14017 -0.15166,-0.23133c-0.08328,-0.09116 -0.15129,-0.18301 -0.15129,-0.20425c0,-0.13194 -0.8932,-1.12272 -1.0605,-1.17618c-0.1542,-0.04935 -9.31861,-0.07094 -9.61683,-0.02296m67.15381,0.03941c-0.09165,0.01337 -0.16657,0.0425 -0.16657,0.06546c0,0.02296 -0.16366,0.07574 -0.36368,0.11755c-0.20002,0.04181 -0.36368,0.09664 -0.36368,0.12166c0,0.02502 -0.08183,0.06237 -0.18148,0.08294c-0.09965,0.02056 -0.20221,0.06751 -0.2273,0.10453c-0.02509,0.03667 -0.11747,0.10521 -0.20475,0.15251c-0.2033,0.10967 -0.54661,0.37013 -0.84738,0.64258c-0.12983,0.11789 -0.25094,0.21419 -0.26876,0.21419c-0.04255,0 -0.87684,0.78652 -0.87684,0.82696c0,0.01714 -0.13638,0.15902 -0.30295,0.31529c-0.16657,0.15628 -0.30295,0.30398 -0.30295,0.32797c0,0.02399 -0.08183,0.11652 -0.18184,0.20563c-0.10001,0.08876 -0.18184,0.19192 -0.18184,0.22859c0,0.03701 -0.05455,0.09939 -0.12147,0.13845c-0.06655,0.03941 -0.12111,0.10967 -0.12111,0.15662c0,0.04695 -0.028,0.08533 -0.06219,0.08533c-0.03419,0 -0.08801,0.06409 -0.11965,0.14257c-0.03164,0.07882 -0.08037,0.14291 -0.10838,0.14291c-0.028,0 -0.08837,0.08979 -0.1342,0.1998c-0.04582,0.11001 -0.10365,0.20014 -0.12911,0.20014c-0.04691,0 -0.15675,0.1693 -0.32404,0.49967c-0.05164,0.10213 -0.11638,0.18575 -0.14402,0.18575c-0.02764,0 -0.08619,0.10281 -0.1302,0.22824c-0.04401,0.12577 -0.10292,0.22859 -0.13093,0.22859c-0.028,0 -0.05164,0.03221 -0.05273,0.07128c-0.00109,0.03941 -0.05492,0.17444 -0.11929,0.29987c-0.22985,0.44895 -0.08583,1.91369 0.18802,1.91369c0.02473,0 0.06328,0.07882 0.08547,0.17512c0.02255,0.0963 0.07528,0.1878 0.11747,0.20288c0.04219,0.01508 0.11201,0.1292 0.15566,0.25326c0.04328,0.12406 0.10256,0.2255 0.13129,0.2255c0.02873,0 0.07856,0.06409 0.1102,0.14257c0.03164,0.07848 0.08037,0.14291 0.10838,0.14291c0.028,0 0.08801,0.08979 0.13383,0.1998c0.04582,0.11001 0.1062,0.20014 0.1342,0.20014c0.028,0 0.07674,0.06409 0.10838,0.14257c0.03164,0.07882 0.0811,0.14291 0.10983,0.14291c0.02909,0 0.08619,0.06957 0.12729,0.15456c0.0411,0.08499 0.12729,0.18952 0.19166,0.23167c0.06401,0.0425 0.11674,0.10281 0.11674,0.13434c0,0.09767 1.32344,1.41745 1.42454,1.42053c0.0331,0.00103 0.15602,0.10418 0.27276,0.22927c0.11638,0.12509 0.24694,0.22756 0.28985,0.2279c0.04255,0.00034 0.09238,0.03701 0.1102,0.08122c0.01818,0.04421 0.11274,0.11138 0.21021,0.14976c0.09783,0.03804 0.17748,0.08979 0.17748,0.11481c0,0.02536 0.10183,0.07745 0.22585,0.11618c0.12402,0.03838 0.26076,0.10316 0.30367,0.1436c0.04291,0.04044 0.2073,0.09185 0.3655,0.11378c0.15784,0.02193 0.30658,0.0682 0.33022,0.10316c0.03128,0.04592 2.82544,0.06786 10.16817,0.07917l10.12453,0.01576l0,-3.97097l0,-3.97132l-0.63281,0c-0.35641,0 -0.64917,-0.02502 -0.67027,-0.05723c-0.02473,-0.03736 -1.8395,-0.05689 -5.24683,-0.05689c-3.43243,0 -5.20901,0.01953 -5.20901,0.05689c0,0.03633 -0.48042,0.05758 -1.31835,0.05758c-0.72518,0.00034 -1.46164,0.01679 -1.63657,0.03667l-0.31822,0.03598l0,1.33451l0,1.33417l5.30357,0l5.30357,0l0,0.88522l0,0.88556l-6.33024,0c-3.48189,0 -6.34479,-0.02159 -6.36188,-0.04764c-0.01709,-0.02605 -0.1822,-0.07917 -0.36732,-0.11823c-0.18475,-0.03907 -0.33604,-0.09287 -0.33604,-0.11995c0,-0.02707 -0.06146,-0.06751 -0.13638,-0.08979c-0.07492,-0.02262 -0.22075,-0.10144 -0.32404,-0.17547c-0.10292,-0.07403 -0.20548,-0.13434 -0.2273,-0.13434c-0.02182,0 -0.09092,-0.04524 -0.15384,-0.10007c-0.06255,-0.05483 -0.16875,-0.13845 -0.23567,-0.18575c-0.24767,-0.1741 -0.80265,-0.69467 -0.87065,-0.81668c-0.03855,-0.06888 -0.10692,-0.14634 -0.15202,-0.17135c-0.0451,-0.02502 -0.08219,-0.08191 -0.08219,-0.12646c0,-0.04455 -0.05128,-0.10693 -0.1142,-0.13845c-0.06292,-0.03187 -0.13238,-0.12577 -0.15456,-0.20871c-0.02218,-0.08328 -0.08256,-0.19123 -0.13456,-0.24024c-0.13383,-0.12577 -0.0891,-0.7992 0.05819,-0.87699c0.05637,-0.02982 0.10256,-0.08259 0.10256,-0.11721c0,-0.03496 0.10765,-0.16244 0.23894,-0.28376c0.13129,-0.12132 0.25567,-0.27143 0.27676,-0.3338c0.02109,-0.06237 0.06037,-0.11344 0.08728,-0.11344c0.05819,0 0.60917,-0.52503 0.60953,-0.58055c0,-0.0706 1.10159,-1.07131 1.21761,-1.10592c0.06364,-0.01919 0.11565,-0.05655 0.11565,-0.08362c0,-0.02673 0.10256,-0.08019 0.2273,-0.11858c0.12511,-0.03838 0.24112,-0.08945 0.25821,-0.11378c0.09347,-0.134 1.35581,-0.15148 9.04622,-0.12372l8.16756,0.02947l0,-1.5792l0,-1.57886l-9.74376,0.00857c-5.35885,0.0048 -9.81868,0.01919 -9.91032,0.03221m25.79121,3.1423l-2.13663,0.01714l0,4.85414l0,4.85448l1.6973,0l1.69694,0l0,-1.56961l0,-1.56995l0.13638,-0.03153c0.07528,-0.01748 1.46018,-0.02433 3.07784,-0.01542c3.16658,0.01748 2.95819,-0.0024 3.29932,0.31632c0.07565,0.0706 0.15929,0.12852 0.18548,0.12852c0.02655,0 0.14875,0.0963 0.27203,0.21419c0.12292,0.11755 0.42005,0.36841 0.66045,0.5569c0.24003,0.18849 0.54007,0.43901 0.66626,0.5569c0.12656,0.11755 0.2513,0.21419 0.27785,0.21419c0.02619,0 0.13383,0.08602 0.23967,0.19157c0.10547,0.10555 0.2553,0.22379 0.33277,0.26286c0.07746,0.03907 0.23894,0.17135 0.35823,0.2937c0.11965,0.12269 0.23894,0.22276 0.26512,0.22276c0.02655,0 0.10256,0.05141 0.16948,0.11412c0.06655,0.06306 0.17348,0.11446 0.23712,0.11446c0.06401,0 0.12765,0.03187 0.14147,0.07128c0.0371,0.10418 4.358,0.10418 4.39473,0c0.01382,-0.03941 0.06364,-0.07128 0.11092,-0.07128c0.04728,0 0.08583,-0.02433 0.08583,-0.05381c0,-0.05895 -0.4306,-0.45923 -0.49497,-0.45992c-0.02218,-0.00034 -0.2153,-0.16758 -0.42878,-0.37184c-0.21348,-0.20425 -0.40623,-0.37115 -0.42805,-0.37115c-0.02146,0 -0.18839,-0.13503 -0.37023,-0.29987c-0.18184,-0.16484 -0.47097,-0.41571 -0.64226,-0.5569c-0.41969,-0.34648 -0.74955,-0.63024 -1.1656,-1.00242c-0.1913,-0.17135 -0.3655,-0.31118 -0.38696,-0.31118c-0.02146,0 -0.09747,-0.05929 -0.16875,-0.13194l-0.12983,-0.1316l0.12474,-0.12543c0.06874,-0.06888 0.14365,-0.12509 0.16693,-0.12509c0.16184,0 1.80241,-1.70772 1.80241,-1.87599c0,-0.03633 0.02364,-0.06614 0.05237,-0.06614c0.1873,0 0.63208,-1.06754 0.66045,-1.58537c0.028,-0.50721 -0.04328,-0.87082 -0.17057,-0.87082c-0.02691,0 -0.06728,-0.05381 -0.08947,-0.11961c-0.05019,-0.14839 -0.76664,-0.85129 -0.86774,-0.85129c-0.04073,0 -0.08874,-0.03633 -0.10692,-0.08088c-0.01782,-0.04455 -0.17384,-0.11275 -0.34659,-0.15113c-0.17239,-0.03873 -0.33277,-0.0987 -0.35677,-0.13331c-0.04255,-0.06237 -7.59985,-0.09185 -12.82196,-0.05004m30.89257,-0.00171l-5.43049,0.01782l-0.03673,2.12754c-0.04401,2.53091 0.03419,7.5636 0.11856,7.6431c0.03528,0.03324 0.70227,0.04901 1.69076,0.03975l1.63257,-0.01508l0.016,-1.49935l0.01637,-1.49935l4.5602,-0.00137c4.2518,-0.00103 5.34103,-0.0329 5.43631,-0.1597c0.01818,-0.02399 0.14765,-0.07848 0.28731,-0.12098c0.14002,-0.0425 0.26876,-0.11207 0.28622,-0.15456c0.01709,-0.04284 0.06328,-0.07745 0.10183,-0.07745c0.07746,0 0.60007,-0.4726 0.60007,-0.54285c0,-0.02399 0.09565,-0.12852 0.21239,-0.23201c0.11674,-0.10384 0.21203,-0.20871 0.21203,-0.23339c0,-0.02433 0.05528,-0.09699 0.12329,-0.16073c0.22294,-0.21077 0.42223,-0.45786 0.42223,-0.52435c0,-0.03598 0.03491,-0.0778 0.07783,-0.09356c0.04291,-0.01542 0.15893,-0.14017 0.25785,-0.27725c0.09856,-0.13708 0.2273,-0.29919 0.28549,-0.35984c0.05855,-0.061 0.1062,-0.1316 0.1062,-0.1573c0,-0.02536 0.04764,-0.09596 0.1062,-0.15628c0.22839,-0.2375 0.26076,-0.29713 0.34768,-0.64464c0.1542,-0.61619 0.05892,-1.64432 -0.15238,-1.64432c-0.028,0 -0.06801,-0.05038 -0.08874,-0.11207c-0.0491,-0.14565 -0.75137,-0.80194 -0.85829,-0.80194c-0.0451,0 -0.08183,-0.02468 -0.08183,-0.05483c0,-0.03016 -0.11601,-0.08671 -0.25749,-0.12577c-0.14184,-0.03873 -0.27713,-0.09767 -0.30113,-0.13057c-0.0491,-0.0682 -1.49,-0.0754 -9.6903,-0.04866m-120.13094,0.07437c0,0.0353 0.30295,0.05723 0.7881,0.05723c0.48479,0 0.78773,-0.02193 0.78773,-0.05723c0,-0.03153 0.1502,-0.05723 0.3335,-0.05723c0.1833,0 0.3335,0.02262 0.3335,0.05004c0,0.02742 0.08474,0.06614 0.18802,0.08533c0.2033,0.03838 0.4757,0.24744 0.47751,0.36636c0.00073,0.0401 0.04182,0.08808 0.09201,0.1059c0.04982,0.01816 0.09092,0.06854 0.09092,0.11207c0,0.04352 0.05455,0.11138 0.12111,0.15045c0.06692,0.03941 0.12147,0.09733 0.12147,0.12886c0,0.03187 0.06801,0.13263 0.15166,0.22379c0.08328,0.09116 0.15129,0.18575 0.15129,0.21008c0,0.02433 0.03419,0.07882 0.07565,0.12098c0.18875,0.19123 0.46988,0.55862 0.46988,0.61345c0,0.03324 0.028,0.06032 0.06219,0.06032c0.03419,0 0.08801,0.06443 0.11965,0.14291c0.03164,0.07848 0.08219,0.14291 0.11238,0.14291c0.03019,0 0.08801,0.07505 0.12838,0.16724c0.04037,0.09185 0.11165,0.18095 0.15893,0.19809c0.04691,0.01679 0.0851,0.06888 0.0851,0.11549c0,0.04661 0.03419,0.10521 0.07601,0.13023c0.04146,0.02502 0.1102,0.09699 0.15275,0.16005c0.04255,0.06272 0.13383,0.19774 0.20293,0.29987c0.06946,0.10213 0.15056,0.18541 0.18039,0.18541c0.03019,0 0.05492,0.03359 0.05492,0.07471c0,0.04078 0.09528,0.17273 0.21203,0.29267c0.11674,0.11995 0.21203,0.23578 0.21203,0.25737c0,0.02159 0.05092,0.09082 0.1131,0.15353c0.1131,0.11412 0.25058,0.32797 0.25058,0.38898c0,0.01782 -2.45703,0.03221 -5.46032,0.03221c-3.00292,0 -5.44941,-0.01919 -5.43668,-0.04284c0.01273,-0.0233 0.07019,-0.13914 0.12692,-0.25703c0.0571,-0.11755 0.13165,-0.21419 0.16548,-0.21419c0.03382,0 0.07928,-0.04489 0.10074,-0.09973c0.04,-0.10213 0.28985,-0.43901 0.42696,-0.57541c0.04182,-0.04147 0.07565,-0.09527 0.07565,-0.11961c0,-0.02433 0.06837,-0.11892 0.15166,-0.21008c0.08328,-0.09116 0.15129,-0.19534 0.15129,-0.23133c0.00036,-0.03598 0.0411,-0.08019 0.09128,-0.09801c0.04982,-0.01816 0.09092,-0.05963 0.09092,-0.09185c0,-0.03256 0.04764,-0.10864 0.10583,-0.16896c0.19566,-0.20323 0.25785,-0.28479 0.3284,-0.43044c0.03855,-0.07985 0.09347,-0.14497 0.12256,-0.14497c0.02873,0 0.07819,-0.06409 0.10983,-0.14291c0.03164,-0.07848 0.08547,-0.14257 0.11965,-0.14257c0.03419,0 0.06328,-0.03221 0.06474,-0.07163c0.00109,-0.03907 0.08292,-0.16039 0.18184,-0.26903c0.09856,-0.10864 0.1793,-0.21796 0.1793,-0.24264c0,-0.02502 0.04764,-0.09459 0.1062,-0.15525c0.17275,-0.17958 0.23676,-0.2608 0.31822,-0.40405c0.19166,-0.33757 0.6379,-0.74231 0.81828,-0.74231c0.08328,0 0.15129,-0.0257 0.15129,-0.05723c0,-0.03153 0.13638,-0.05723 0.30331,-0.05723c0.16657,0 0.30295,0.0257 0.30295,0.05723m17.51745,3.68481c0,2.15736 0.02328,3.7842 0.05528,3.84143c0.03055,0.05449 0.08874,0.18266 0.12874,0.28479c0.04,0.10213 0.0971,0.18541 0.1262,0.18541c0.02946,0 0.05346,0.0377 0.05346,0.08362c0,0.04627 0.05455,0.11138 0.12111,0.14497c0.06655,0.03359 0.12111,0.0891 0.12111,0.12372c0,0.08088 1.23688,1.24712 1.32271,1.24712c0.036,0 0.09238,0.04489 0.12474,0.10007c0.0851,0.14257 14.82403,0.15662 14.91967,0.01405c0.06401,-0.09562 0.08074,-2.12034 0.02109,-2.53228l-0.03855,-0.26389l-6.12913,-0.01542l-6.12913,-0.01576l-0.23421,-0.12475c-0.74846,-0.39891 -0.72991,-0.30604 -0.75246,-3.80202l-0.01928,-3.0131l-1.84568,0l-1.84568,0l0,3.74204m19.37368,-3.61353c-0.10947,0.38486 -0.00291,7.60746 0.11347,7.71747c0.03928,0.03667 0.08256,0.0987 0.09638,0.13708c0.02946,0.08259 0.3575,0.43867 0.90375,0.98049c0.21675,0.21488 0.43824,0.44621 0.49206,0.51406c0.05382,0.06751 0.20403,0.17992 0.3335,0.24915l0.2353,0.12612l6.81903,0.01782c3.75028,0.00994 7.07106,0.00103 7.37946,-0.01953l0.5608,-0.03736l-0.00073,-1.29407c-0.00073,-0.71181 -0.01709,-1.35165 -0.0371,-1.42156l-0.03637,-0.12749l-6.13022,-0.01542c-6.09421,-0.01508 -6.13167,-0.01611 -6.3517,-0.13468c-0.28513,-0.15388 -0.52916,-0.40337 -0.57753,-0.59015c-0.02109,-0.08088 -0.06801,-0.16553 -0.10474,-0.1878c-0.04619,-0.02844 -0.07165,-0.94588 -0.08401,-3.04155l-0.01782,-3.00111l-1.7784,0l-1.7784,0l-0.03673,0.12852m70.63751,4.78388l0,4.91205l1.69694,0l1.6973,0l0,-4.91205l0,-4.9124l-1.6973,0l-1.69694,0l0,4.9124m-9.2637,-2.46442c1.61111,0.03393 1.93479,0.06477 1.77258,0.16827c-0.03419,0.02193 -0.0971,0.12132 -0.13965,0.22036c-0.10219,0.23853 -0.81283,0.9212 -1.00631,0.96678c-0.08365,0.01988 -0.15202,0.05381 -0.15202,0.0754c0,0.08191 -0.41678,0.17684 -0.77719,0.17684c-0.20912,0 -0.37459,0.02502 -0.37459,0.05689c0,0.03701 -0.68699,0.05723 -1.93951,0.05723c-1.25252,0 -1.93951,-0.02022 -1.93951,-0.05723c0,-0.03667 -0.57607,-0.05689 -1.60638,-0.05689l-1.60638,0l0,-0.7711c0,-0.6933 0.01091,-0.77212 0.1062,-0.77932c0.91357,-0.06923 5.49159,-0.1035 7.66277,-0.05723m29.13926,0.01234c0.29567,0.05997 0.39932,0.31701 0.18257,0.4534c-0.02546,0.01611 -0.0651,0.10007 -0.08837,0.18712c-0.02291,0.08705 -0.09347,0.18403 -0.15638,0.21556c-0.06255,0.03187 -0.1142,0.09013 -0.1142,0.12989c0,0.03941 -0.08256,0.13503 -0.18366,0.21214c-0.1011,0.07711 -0.21712,0.16656 -0.25749,0.19911c-0.20257,0.16176 -0.48297,0.32283 -0.66226,0.38075c-0.10983,0.0353 -0.21894,0.09219 -0.24294,0.12646c-0.03019,0.04318 -1.19942,0.06683 -3.86412,0.07848l-3.82084,0.01611l0,-1.03018l0,-1.03018l4.45219,0c2.94437,0 4.55475,0.02091 4.7555,0.06134" id="svg_3"/>
   </g>
  </g>
 </g>

</svg>