<svg width="32" height="33" viewBox="0 0 32 33" fill="none" xmlns="http://www.w3.org/2000/svg">
<path d="M15.6447 6.04846C15.0044 6.04846 14.4834 6.56949 14.4834 7.20976C14.4834 7.85002 15.0044 8.37105 15.6447 8.37105C16.285 8.37105 16.806 7.85002 16.806 7.20976C16.806 6.56949 16.285 6.04846 15.6447 6.04846ZM15.6447 7.59683C15.431 7.59683 15.2576 7.42342 15.2576 7.20972C15.2576 6.99601 15.431 6.82261 15.6447 6.82261C15.8584 6.82261 16.0318 6.99601 16.0318 7.20972C16.0318 7.42342 15.8584 7.59683 15.6447 7.59683Z" fill="black"/>
<path d="M15.6447 26.9517C16.285 26.9517 16.806 26.4307 16.806 25.7904C16.806 25.1502 16.285 24.6292 15.6447 24.6292C15.0044 24.6292 14.4834 25.1502 14.4834 25.7904C14.4834 26.4307 15.0044 26.9517 15.6447 26.9517ZM15.6447 25.4033C15.8584 25.4033 16.0318 25.5767 16.0318 25.7904C16.0318 26.0041 15.8584 26.1776 15.6447 26.1776C15.431 26.1776 15.2576 26.0041 15.2576 25.7904C15.2576 25.5767 15.431 25.4033 15.6447 25.4033Z" fill="black"/>
<path d="M19.1291 17.6613C19.7694 17.6613 20.2904 17.1403 20.2904 16.5C20.2904 15.8597 19.7694 15.3387 19.1291 15.3387H16.8065V14.5645H19.1291C19.7694 14.5645 20.2904 14.0435 20.2904 13.4032C20.2904 12.763 19.7694 12.2419 19.1291 12.2419V10.3065C19.1291 9.6662 18.6081 9.14517 17.9678 9.14517H17.5377C18.0413 8.65279 18.3549 7.96763 18.3549 7.2097C18.3549 5.71587 17.139 4.5 15.6452 4.5C14.1514 4.5 12.9355 5.71587 12.9355 7.2097C12.9355 7.96763 13.249 8.65279 13.7527 9.14517H13.3226C12.6823 9.14517 12.1613 9.6662 12.1613 10.3065V12.2419C11.521 12.2419 11 12.763 11 13.4032C11 14.0435 11.521 14.5645 12.1613 14.5645H14.4839V15.3387H12.1613C11.521 15.3387 11 15.8597 11 16.5C11 17.1403 11.521 17.6613 12.1613 17.6613H14.4839V18.4355H12.1613C11.521 18.4355 11 18.9565 11 19.5968C11 20.237 11.521 20.7581 12.1613 20.7581V22.6935C12.1613 23.3338 12.6823 23.8548 13.3226 23.8548H13.7527C13.249 24.3472 12.9355 25.0324 12.9355 25.7903C12.9355 27.2841 14.1514 28.5 15.6452 28.5C17.1391 28.5 18.3549 27.2841 18.3549 25.7903C18.3549 25.0324 18.0414 24.3472 17.5378 23.8548H17.9678C18.6081 23.8548 19.1291 23.3338 19.1291 22.6935V20.7581C19.7694 20.7581 20.2904 20.237 20.2904 19.5968C20.2904 18.9565 19.7694 18.4355 19.1291 18.4355H16.8066V17.6613H19.1291ZM13.7097 7.2097C13.7097 6.14247 14.578 5.27422 15.6452 5.27422C16.7124 5.27422 17.5807 6.14247 17.5807 7.2097C17.5807 8.27692 16.7124 9.14517 15.6452 9.14517C14.578 9.14517 13.7097 8.27692 13.7097 7.2097ZM12.9355 10.3065C12.9355 10.0928 13.1089 9.91935 13.3226 9.91935H17.9678C18.1815 9.91935 18.3549 10.0928 18.3549 10.3065V12.2419H12.9355V10.3065ZM11.7742 13.4032C11.7742 13.1896 11.9476 13.0161 12.1613 13.0161H19.1291C19.3428 13.0161 19.5162 13.1895 19.5162 13.4032C19.5162 13.6169 19.3428 13.7903 19.1291 13.7903H12.1613C11.9476 13.7903 11.7742 13.6169 11.7742 13.4032ZM15.2581 14.5645H16.0323V15.3387H15.2581V14.5645ZM11.7742 16.5C11.7742 16.2863 11.9476 16.1129 12.1613 16.1129H19.1291C19.3428 16.1129 19.5162 16.2863 19.5162 16.5C19.5162 16.7137 19.3428 16.8871 19.1291 16.8871H12.1613C11.9476 16.8871 11.7742 16.7137 11.7742 16.5ZM17.5807 25.7903C17.5807 26.8576 16.7124 27.7258 15.6452 27.7258C14.578 27.7258 13.7097 26.8576 13.7097 25.7903C13.7097 24.7231 14.578 23.8549 15.6452 23.8549C16.7124 23.8549 17.5807 24.7231 17.5807 25.7903ZM18.3549 22.6936C18.3549 22.9072 18.1815 23.0807 17.9678 23.0807H13.3226C13.109 23.0807 12.9355 22.9073 12.9355 22.6936V20.7581H18.3549V22.6936ZM19.5162 19.5968C19.5162 19.8104 19.3428 19.9839 19.1291 19.9839H12.1613C11.9477 19.9839 11.7742 19.8105 11.7742 19.5968C11.7742 19.3831 11.9476 19.2097 12.1613 19.2097H19.1291C19.3428 19.2097 19.5162 19.3831 19.5162 19.5968ZM16.0323 18.4355H15.2581V17.6613H16.0323V18.4355Z" fill="black"/>
</svg>
