<svg width="31" height="20" xmlns="http://www.w3.org/2000/svg" fill="none">
 <g id="Layer_1">
  <title>Layer 1</title>
  <g stroke="null">
   <g stroke="null" id="svg_5">
    <path stroke="null" fill="#ffffff" d="m14.76836,2.14357c-0.07147,0.00025 -0.14066,-0.02518 -0.19495,-0.07165c-0.05429,-0.04647 -0.0901,-0.1109 -0.10093,-0.18158c-0.01083,-0.07067 0.004,-0.14289 0.04187,-0.20352c0.03787,-0.06062 0.09624,-0.10564 0.16446,-0.12684l0.86516,-0.27165c0.07547,-0.02375 0.15729,-0.01653 0.22745,0.02009c0.0347,0.01813 0.06554,0.04292 0.09072,0.07297c0.02518,0.03006 0.04415,0.06477 0.05595,0.10216c0.01173,0.0374 0.016,0.07675 0.01256,0.1158c-0.00345,0.03905 -0.01456,0.07704 -0.03263,0.1118c-0.01814,0.03476 -0.04291,0.06561 -0.07299,0.09079c-0.03001,0.02518 -0.06471,0.04419 -0.1021,0.05594l-0.86509,0.27165c-0.02891,0.00933 -0.05912,0.01407 -0.08948,0.01403z" id="svg_26"/>
    <path stroke="null" fill="#ffffff" d="m19.71156,20.00019l-8.42452,0c-0.07913,0 -0.15501,-0.03148 -0.21096,-0.08746c-0.05595,-0.05598 -0.08738,-0.13192 -0.08738,-0.21103l0,-16.77028c-0.00007,-0.06358 0.02015,-0.12552 0.05771,-0.17679c0.03753,-0.05128 0.09051,-0.08921 0.15108,-0.10829l1.3929,-0.43582c0.07547,-0.02375 0.15736,-0.01651 0.22752,0.02013c0.07023,0.03664 0.12293,0.09968 0.14673,0.17525c0.02373,0.07557 0.01649,0.15747 -0.02014,0.2277c-0.03663,0.07023 -0.09962,0.12303 -0.17516,0.14678l-1.18401,0.37045l0,16.25232l7.82786,0l0,-18.6989l-1.60255,0.5003c-0.07554,0.02375 -0.15743,0.01649 -0.22765,-0.02018c-0.07023,-0.03667 -0.123,-0.09974 -0.14673,-0.17535c-0.02373,-0.07561 -0.01649,-0.15755 0.02014,-0.22781c0.03663,-0.07026 0.09969,-0.12307 0.17522,-0.14682l1.98984,-0.6209c0.0447,-0.01407 0.0921,-0.0174 0.13832,-0.00972c0.04622,0.00768 0.09003,0.02614 0.12776,0.05391c0.0378,0.02776 0.0685,0.06405 0.08961,0.10589c0.02118,0.04185 0.03215,0.0881 0.03208,0.135l0,19.40313c0,0.07904 -0.03132,0.1549 -0.08713,0.21082c-0.05581,0.05598 -0.13156,0.08753 -0.21055,0.08767z" id="svg_25"/>
    <path stroke="null" fill="#ffffff" d="m24.4494,20.00019l-4.73583,0c-0.07913,0 -0.15501,-0.03141 -0.21096,-0.08739c-0.05595,-0.05598 -0.08734,-0.13192 -0.08734,-0.21109l0,-13.30303c0,-0.04887 0.012,-0.09706 0.03491,-0.1402c0.02297,-0.04314 0.05615,-0.08001 0.09665,-0.10734c0.04049,-0.02734 0.08706,-0.04425 0.1357,-0.04936c0.04857,-0.00511 0.09762,0.00179 0.14294,0.02016l4.73611,1.92422c0.05498,0.0223 0.1021,0.06061 0.13528,0.1099c0.03318,0.04929 0.05084,0.10734 0.05084,0.16678l0,11.37888c0,0.07918 -0.03146,0.15511 -0.08741,0.21109c-0.05588,0.05598 -0.13176,0.08739 -0.21089,0.08739zm-4.43754,-0.59697l4.13917,0l0,-10.87945l-4.13917,-1.68185l0,12.5613z" id="svg_24"/>
    <path stroke="null" fill="#ffffff" d="m11.28538,20.00019l-4.73578,0c-0.07912,0 -0.155,-0.03141 -0.21094,-0.08739c-0.05595,-0.05598 -0.08738,-0.13192 -0.08738,-0.21109l0,-11.37888c-0.00002,-0.05944 0.01768,-0.11749 0.05084,-0.16678c0.03316,-0.04929 0.08028,-0.0876 0.13531,-0.1099l4.73612,-1.92422c0.04525,-0.01836 0.09437,-0.02527 0.14294,-0.02016c0.04857,0.00511 0.0952,0.02202 0.1357,0.04936c0.04049,0.02734 0.07368,0.0642 0.09658,0.10734c0.02297,0.04314 0.03498,0.09133 0.03498,0.1402l0,13.30303c0,0.07918 -0.03146,0.15511 -0.08741,0.21109c-0.05595,0.05598 -0.13183,0.08739 -0.21096,0.08739zm-4.43746,-0.59697l4.13917,0l0,-12.5613l-4.13917,1.68185l0,10.87945z" id="svg_23"/>
    <path stroke="null" fill="#ffffff" d="m25.64286,20.00026l-20.28569,0c-0.07912,0 -0.155,-0.03148 -0.21095,-0.08746c-0.05595,-0.05598 -0.08738,-0.13192 -0.08738,-0.21109c0,-0.07911 0.03143,-0.15504 0.08738,-0.21103c0.05595,-0.05598 0.13183,-0.08746 0.21095,-0.08746l20.28569,0c0.07913,0 0.15501,0.03148 0.21096,0.08746c0.05588,0.05598 0.08734,0.13192 0.08734,0.21103c0,0.07918 -0.03146,0.15511 -0.08734,0.21109c-0.05595,0.05598 -0.13183,0.08746 -0.21096,0.08746z" id="svg_22"/>
    <path stroke="null" fill="#ffffff" d="m17.50097,17.01504l-0.54685,0c-0.07913,0 -0.15501,-0.03141 -0.21096,-0.08739c-0.05595,-0.05598 -0.08734,-0.13192 -0.08734,-0.21109c0,-0.07918 0.03139,-0.15511 0.08734,-0.21109c0.05595,-0.05598 0.13183,-0.08746 0.21096,-0.08746l0.54685,0c0.07913,0 0.15501,0.03148 0.21096,0.08746c0.05588,0.05598 0.08734,0.13192 0.08734,0.21109c0,0.07918 -0.03146,0.15511 -0.08734,0.21109c-0.05595,0.05598 -0.13183,0.08739 -0.21096,0.08739z" id="svg_21"/>
    <path stroke="null" fill="#ffffff" d="m14.0449,17.01504l-0.54685,0c-0.07906,0 -0.15494,-0.03141 -0.21089,-0.08739c-0.05595,-0.05598 -0.08741,-0.13192 -0.08741,-0.21109c0,-0.07918 0.03146,-0.15511 0.08741,-0.21109c0.05595,-0.05598 0.13183,-0.08746 0.21089,-0.08746l0.54685,0c0.07913,0 0.15501,0.03148 0.21096,0.08746c0.05595,0.05598 0.08734,0.13192 0.08734,0.21109c0,0.07918 -0.03139,0.15511 -0.08734,0.21109c-0.05595,0.05598 -0.13183,0.08739 -0.21096,0.08739z" id="svg_20"/>
    <path stroke="null" fill="#ffffff" d="m17.50097,13.53267l-0.54685,0c-0.07913,0 -0.15501,-0.03141 -0.21096,-0.08739c-0.05595,-0.05598 -0.08734,-0.13192 -0.08734,-0.21109c0,-0.07918 0.03139,-0.15511 0.08734,-0.21109c0.05595,-0.05598 0.13183,-0.08739 0.21096,-0.08739l0.54685,0c0.07913,0 0.15501,0.03141 0.21096,0.08739c0.05588,0.05598 0.08734,0.13192 0.08734,0.21109c0,0.07918 -0.03146,0.15511 -0.08734,0.21109c-0.05595,0.05598 -0.13183,0.08739 -0.21096,0.08739z" id="svg_19"/>
    <path stroke="null" fill="#ffffff" d="m14.0449,13.53267l-0.54685,0c-0.07906,0 -0.15494,-0.03141 -0.21089,-0.08739c-0.05595,-0.05598 -0.08741,-0.13192 -0.08741,-0.21109c0,-0.07918 0.03146,-0.15511 0.08741,-0.21109c0.05595,-0.05598 0.13183,-0.08739 0.21089,-0.08739l0.54685,0c0.07913,0 0.15501,0.03141 0.21096,0.08739c0.05595,0.05598 0.08734,0.13192 0.08734,0.21109c0,0.07918 -0.03139,0.15511 -0.08734,0.21109c-0.05595,0.05598 -0.13183,0.08739 -0.21096,0.08739z" id="svg_18"/>
    <path stroke="null" fill="#ffffff" d="m17.50097,10.04968l-0.54685,0c-0.07913,0 -0.15501,-0.03148 -0.21096,-0.08746c-0.05595,-0.05598 -0.08734,-0.13192 -0.08734,-0.21109c0,-0.07911 0.03139,-0.15504 0.08734,-0.21103c0.05595,-0.05598 0.13183,-0.08746 0.21096,-0.08746l0.54685,0c0.07913,0 0.15501,0.03148 0.21096,0.08746c0.05588,0.05598 0.08734,0.13192 0.08734,0.21103c0,0.07918 -0.03146,0.15511 -0.08734,0.21109c-0.05595,0.05598 -0.13183,0.08746 -0.21096,0.08746z" id="svg_17"/>
    <path stroke="null" fill="#ffffff" d="m14.0449,10.04968l-0.54685,0c-0.07906,0 -0.15494,-0.03148 -0.21089,-0.08746c-0.05595,-0.05598 -0.08741,-0.13192 -0.08741,-0.21109c0,-0.07911 0.03146,-0.15504 0.08741,-0.21103c0.05595,-0.05598 0.13183,-0.08746 0.21089,-0.08746l0.54685,0c0.07913,0 0.15501,0.03148 0.21096,0.08746c0.05595,0.05598 0.08734,0.13192 0.08734,0.21103c0,0.07918 -0.03139,0.15511 -0.08734,0.21109c-0.05595,0.05598 -0.13183,0.08746 -0.21096,0.08746z" id="svg_16"/>
    <path stroke="null" fill="#ffffff" d="m17.50097,6.56724l-0.54685,0c-0.07913,0 -0.15501,-0.03148 -0.21096,-0.08746c-0.05595,-0.05598 -0.08734,-0.13192 -0.08734,-0.21109c0,-0.07911 0.03139,-0.15504 0.08734,-0.21103c0.05595,-0.05598 0.13183,-0.08746 0.21096,-0.08746l0.54685,0c0.07913,0 0.15501,0.03148 0.21096,0.08746c0.05588,0.05598 0.08734,0.13192 0.08734,0.21103c0,0.07918 -0.03146,0.15511 -0.08734,0.21109c-0.05595,0.05598 -0.13183,0.08746 -0.21096,0.08746z" id="svg_15"/>
    <path stroke="null" fill="#ffffff" d="m14.0449,6.56724l-0.54685,0c-0.07906,0 -0.15494,-0.03148 -0.21089,-0.08746c-0.05595,-0.05598 -0.08741,-0.13192 -0.08741,-0.21109c0,-0.07911 0.03146,-0.15504 0.08741,-0.21103c0.05595,-0.05598 0.13183,-0.08746 0.21089,-0.08746l0.54685,0c0.07913,0 0.15501,0.03148 0.21096,0.08746c0.05595,0.05598 0.08734,0.13192 0.08734,0.21103c0,0.07918 -0.03139,0.15511 -0.08734,0.21109c-0.05595,0.05598 -0.13183,0.08746 -0.21096,0.08746z" id="svg_14"/>
    <path stroke="null" fill="#ffffff" d="m22.56573,10.7464l-0.72732,0c-0.07913,0 -0.15501,-0.03148 -0.21096,-0.08746c-0.05595,-0.05598 -0.08734,-0.13192 -0.08734,-0.21109c0,-0.07918 0.03139,-0.15511 0.08734,-0.21109c0.05595,-0.05598 0.13183,-0.08739 0.21096,-0.08739l0.72732,0c0.07906,0 0.15494,0.03141 0.21089,0.08739c0.05595,0.05598 0.08741,0.13192 0.08741,0.21109c0,0.07918 -0.03146,0.15511 -0.08741,0.21109c-0.05595,0.05598 -0.13183,0.08746 -0.21089,0.08746z" id="svg_13"/>
    <path stroke="null" fill="#ffffff" d="m22.56573,13.04994l-0.72732,0c-0.07913,0 -0.15501,-0.03148 -0.21096,-0.08746c-0.05595,-0.05598 -0.08734,-0.13192 -0.08734,-0.21103c0,-0.07918 0.03139,-0.15511 0.08734,-0.21109c0.05595,-0.05598 0.13183,-0.08746 0.21096,-0.08746l0.72732,0c0.07906,0 0.15494,0.03148 0.21089,0.08746c0.05595,0.05598 0.08741,0.13192 0.08741,0.21109c0,0.07911 -0.03146,0.15504 -0.08741,0.21103c-0.05595,0.05598 -0.13183,0.08746 -0.21089,0.08746z" id="svg_12"/>
    <path stroke="null" fill="#ffffff" d="m22.56573,15.3539l-0.72732,0c-0.07913,0 -0.15501,-0.03141 -0.21096,-0.08739c-0.05595,-0.05598 -0.08734,-0.13192 -0.08734,-0.21109c0,-0.07918 0.03139,-0.15511 0.08734,-0.21109c0.05595,-0.05598 0.13183,-0.08739 0.21096,-0.08739l0.72732,0c0.07906,0 0.15494,0.03141 0.21089,0.08739c0.05595,0.05598 0.08741,0.13192 0.08741,0.21109c0,0.07918 -0.03146,0.15511 -0.08741,0.21109c-0.05595,0.05598 -0.13183,0.08739 -0.21089,0.08739z" id="svg_11"/>
    <path stroke="null" fill="#ffffff" d="m22.56573,17.65751l-0.72732,0c-0.07913,0 -0.15501,-0.03148 -0.21096,-0.08746c-0.05595,-0.05598 -0.08734,-0.13192 -0.08734,-0.21109c0,-0.07911 0.03139,-0.15504 0.08734,-0.21103c0.05595,-0.05598 0.13183,-0.08746 0.21096,-0.08746l0.72732,0c0.07906,0 0.15494,0.03148 0.21089,0.08746c0.05595,0.05598 0.08741,0.13192 0.08741,0.21103c0,0.07918 -0.03146,0.15511 -0.08741,0.21109c-0.05595,0.05598 -0.13183,0.08746 -0.21089,0.08746z" id="svg_10"/>
    <path stroke="null" fill="#ffffff" d="m9.16055,10.7464l-0.7273,0c-0.07912,0 -0.155,-0.03148 -0.21094,-0.08746c-0.05595,-0.05598 -0.08738,-0.13192 -0.08738,-0.21109c0,-0.07918 0.03143,-0.15511 0.08738,-0.21109c0.05594,-0.05598 0.13182,-0.08739 0.21094,-0.08739l0.7273,0c0.07912,0 0.155,0.03141 0.21095,0.08739c0.05594,0.05598 0.08737,0.13192 0.08737,0.21109c0,0.07918 -0.03143,0.15511 -0.08737,0.21109c-0.05595,0.05598 -0.13183,0.08746 -0.21095,0.08746z" id="svg_9"/>
    <path stroke="null" fill="#ffffff" d="m9.16055,13.04994l-0.7273,0c-0.07912,0 -0.155,-0.03148 -0.21094,-0.08746c-0.05595,-0.05598 -0.08738,-0.13192 -0.08738,-0.21103c0,-0.07918 0.03143,-0.15511 0.08738,-0.21109c0.05594,-0.05598 0.13182,-0.08746 0.21094,-0.08746l0.7273,0c0.07912,0 0.155,0.03148 0.21095,0.08746c0.05594,0.05598 0.08737,0.13192 0.08737,0.21109c0,0.07911 -0.03143,0.15504 -0.08737,0.21103c-0.05595,0.05598 -0.13183,0.08746 -0.21095,0.08746z" id="svg_8"/>
    <path stroke="null" fill="#ffffff" d="m9.16055,15.3539l-0.7273,0c-0.07912,0 -0.155,-0.03141 -0.21094,-0.08739c-0.05595,-0.05598 -0.08738,-0.13192 -0.08738,-0.21109c0,-0.07918 0.03143,-0.15511 0.08738,-0.21109c0.05594,-0.05598 0.13182,-0.08739 0.21094,-0.08739l0.7273,0c0.07912,0 0.155,0.03141 0.21095,0.08739c0.05594,0.05598 0.08737,0.13192 0.08737,0.21109c0,0.07918 -0.03143,0.15511 -0.08737,0.21109c-0.05595,0.05598 -0.13183,0.08739 -0.21095,0.08739z" id="svg_7"/>
    <path stroke="null" fill="#ffffff" d="m9.16055,17.65751l-0.7273,0c-0.07912,0 -0.155,-0.03148 -0.21094,-0.08746c-0.05595,-0.05598 -0.08738,-0.13192 -0.08738,-0.21109c0,-0.07911 0.03143,-0.15504 0.08738,-0.21103c0.05594,-0.05598 0.13182,-0.08746 0.21094,-0.08746l0.7273,0c0.07912,0 0.155,0.03148 0.21095,0.08746c0.05594,0.05598 0.08737,0.13192 0.08737,0.21103c0,0.07918 -0.03143,0.15511 -0.08737,0.21109c-0.05595,0.05598 -0.13183,0.08746 -0.21095,0.08746z" id="svg_6"/>
   </g>
  </g>
 </g>

</svg>