<svg width="30" height="30" viewBox="2 2 30 30" fill="none" xmlns="http://www.w3.org/2000/svg">
<path d="M15.1927 11.948C12.2378 11.948 9.83398 14.3518 9.83398 17.3068C9.83398 20.2617 12.2378 22.6655 15.1927 22.6655C18.1477 22.6655 20.5515 20.2617 20.5515 17.3068C20.5515 14.3518 18.1477 11.948 15.1927 11.948ZM15.1927 21.2593C13.0136 21.2593 11.2402 19.4859 11.2402 17.3068C11.2402 15.1274 13.0136 13.3542 15.1927 13.3542C17.3721 13.3542 19.1453 15.1274 19.1453 17.3068C19.1453 19.4859 17.3721 21.2593 15.1927 21.2593Z" fill="black"/>
<path d="M15.1929 14.7065C13.759 14.7065 12.5928 15.8729 12.5928 17.3068C12.5928 18.7407 13.759 19.9069 15.1929 19.9069C16.6268 19.9069 17.7932 18.7407 17.7932 17.3068C17.7932 15.8729 16.6268 14.7065 15.1929 14.7065ZM15.1929 18.5007C14.5342 18.5007 13.999 17.9655 13.999 17.3068C13.999 16.6482 14.5342 16.1128 15.1929 16.1128C15.8515 16.1128 16.3869 16.6482 16.3869 17.3068C16.3869 17.9655 15.8515 18.5007 15.1929 18.5007Z" fill="black"/>
<path d="M16.0155 24.8671C16.0155 25.2771 15.6833 25.6093 15.2734 25.6093C14.8634 25.6093 14.5312 25.2771 14.5312 24.8671C14.5312 24.4572 14.8634 24.125 15.2734 24.125C15.6833 24.125 16.0155 24.4572 16.0155 24.8671Z" fill="black"/>
<path d="M19.6885 23.4405C19.4835 23.0856 19.0295 22.9642 18.6747 23.1693C18.3198 23.3744 18.1982 23.8285 18.4035 24.1833C18.6086 24.5382 19.0625 24.6596 19.4174 24.4545C19.7722 24.2494 19.8936 23.7953 19.6885 23.4405Z" fill="black"/>
<path d="M22.1538 20.3703C21.7988 20.1656 21.3448 20.2875 21.1403 20.6428C20.9356 20.9978 21.0576 21.4517 21.4128 21.6563C21.7678 21.861 22.2217 21.739 22.4263 21.3838C22.631 21.0288 22.509 20.575 22.1538 20.3703Z" fill="black"/>
<path d="M11.9659 10.437C11.7599 10.0827 11.3057 9.96235 10.9513 10.1685C10.5968 10.3745 10.4767 10.8288 10.6827 11.1831C10.8887 11.5374 11.343 11.6577 11.6973 11.4517C12.0516 11.2457 12.1719 10.7915 11.9659 10.437Z" fill="black"/>
<path d="M8.96185 12.9744C8.60608 12.7706 8.15271 12.8939 7.94891 13.2495C7.74512 13.6052 7.86835 14.0586 8.22394 14.2624C8.57953 14.4662 9.03308 14.3431 9.23688 13.9874C9.44067 13.6318 9.31744 13.1782 8.96185 12.9744Z" fill="black"/>
<path d="M8.37507 17.413C8.37342 17.003 8.03998 16.6719 7.63001 16.6736C7.22022 16.6751 6.88916 17.0087 6.89063 17.4186C6.89228 17.8284 7.22571 18.1595 7.63569 18.1578C8.04566 18.1564 8.37653 17.8228 8.37507 17.413Z" fill="black"/>
<path d="M9.34343 20.8097C9.13707 20.4556 8.68261 20.336 8.32848 20.5424C7.97435 20.7489 7.8546 21.2034 8.06115 21.5573C8.26769 21.9115 8.72197 22.0312 9.0761 21.8247C9.43023 21.6183 9.54998 21.1638 9.34343 20.8097Z" fill="black"/>
<path d="M11.8809 23.2681C11.5251 23.0649 11.0717 23.1885 10.8683 23.5444C10.6651 23.9004 10.7888 24.3536 11.1446 24.557C11.5006 24.7603 11.9539 24.6365 12.1572 24.2807C12.3606 23.9247 12.2368 23.4714 11.8809 23.2681Z" fill="black"/>
<path d="M24.2491 8.25092C21.8303 5.83228 18.6142 4.5 15.1932 4.5H14.4901V6.13495C11.7648 6.30286 9.22601 7.44415 7.2785 9.39185C5.16437 11.506 4 14.317 4 17.3068C4 20.2963 5.16437 23.1075 7.2785 25.2215C9.39246 27.3356 12.2037 28.5 15.1932 28.5C18.183 28.5 20.994 27.3356 23.1082 25.2215C25.0103 23.3194 26.1433 20.8533 26.3513 18.2007H27.9865L27.9982 17.4666C27.9991 17.4135 28 17.3602 28 17.3068C28 13.8858 26.6677 10.6697 24.2491 8.25092ZM23.5295 16.7944C23.2783 12.6599 20.0054 9.32812 15.8964 8.98407V5.92786C21.6873 6.2818 26.3237 10.9786 26.5826 16.7944H23.5295ZM15.1932 27.0938C9.79657 27.0938 5.40625 22.7034 5.40625 17.3068C5.40625 12.1463 9.4201 7.90649 14.4901 7.54504V10.3612H15.1932C19.0229 10.3612 22.1388 13.4771 22.1388 17.3068C22.1388 17.3648 22.1382 17.4225 22.137 17.4802L22.119 18.2007H24.9396C24.4871 23.1797 20.2885 27.0938 15.1932 27.0938Z" fill="black"/>
</svg>
