<svg width="32" height="33" viewBox="0 0 32 33" fill="none" xmlns="http://www.w3.org/2000/svg">
<path d="M26.643 7.52099L16.643 4.52099C16.549 4.493 16.45 4.493 16.356 4.52099L6.35602 7.52099C6.14498 7.58399 6 7.77899 6 8V19C6 23.422 12.742 27.355 16.352 28.478C16.4 28.493 16.45 28.5 16.5 28.5C16.55 28.5 16.6 28.493 16.648 28.478C20.258 27.354 27 23.422 27 19V8C27 7.77899 26.855 7.58497 26.643 7.52099ZM26 19C26 22.511 20.437 26.203 16.5 27.476C12.563 26.203 6.99998 22.511 6.99998 19V8.372L16.5 5.522L26 8.372V19Z" fill="black" stroke="black" stroke-width="0.4"/>
<path d="M16.5 10.5C13.467 10.5 11 12.967 11 16C11 19.033 13.467 21.5 16.5 21.5C19.533 21.5 22 19.033 22 16C22 12.967 19.533 10.5 16.5 10.5ZM16.5 20.5C14.019 20.5 12 18.481 12 16C12 13.519 14.019 11.5 16.5 11.5C18.981 11.5 21 13.519 21 16C21 18.481 18.981 20.5 16.5 20.5Z" fill="black" stroke="black" stroke-width="0.4"/>
<path d="M19.8533 13.647C19.6583 13.452 19.3413 13.452 19.1463 13.647L15.5003 17.293L13.8533 15.6469C13.6583 15.4519 13.3413 15.4519 13.1463 15.6469C12.9512 15.8419 12.9512 16.159 13.1463 16.354L15.1463 18.354C15.2443 18.451 15.3723 18.5 15.5003 18.5C15.6283 18.5 15.7563 18.451 15.8533 18.354L19.8533 14.354C20.0483 14.159 20.0483 13.842 19.8533 13.647Z" fill="black" stroke="black" stroke-width="0.4"/>
</svg>
