<svg width="32" height="33" viewBox="0 0 32 33" fill="none" xmlns="http://www.w3.org/2000/svg">
<path d="M16 28.5C22.6075 28.5 28 23.107 28 16.5C28 9.89246 22.607 4.5 16 4.5C9.39246 4.5 4 9.89301 4 16.5C4 23.1075 9.39301 28.5 16 28.5ZM9.11597 24.5453C10.8428 22.6084 13.3684 21.4688 16 21.4688C18.6316 21.4688 21.1572 22.6084 22.884 24.5453C21.0312 26.133 18.6257 27.0938 16 27.0938C13.3743 27.0938 10.9688 26.133 9.11597 24.5453ZM8.25079 15.7969C8.39655 14.1786 9.03943 12.7015 10.0258 11.5203L10.9813 12.4757L11.9757 11.4813L11.0203 10.5258C12.2015 9.53943 13.6786 8.89655 15.2969 8.75079V10.125H16.7031V8.75079C18.3214 8.89655 19.7985 9.53943 20.9797 10.5258L20.0243 11.4813L21.0187 12.4757L21.9742 11.5203C22.9604 12.7015 23.6035 14.1786 23.7492 15.7969H22.375V17.2026H23.7488C23.5958 18.8967 22.8941 20.5045 21.7596 21.7537C20.0074 20.6257 17.9904 20.0625 16 20.0625C14.0139 20.0625 11.9962 20.6234 10.2404 21.7537C9.1059 20.5045 8.40424 18.897 8.25116 17.2031H9.625V15.7969H8.25079ZM16 5.90625C21.8414 5.90625 26.5938 10.6586 26.5938 16.5C26.5938 19.2101 25.5704 21.6854 23.8902 23.5609C23.5806 23.218 23.2469 22.8953 22.8934 22.5948C24.3591 20.9293 25.1875 18.75 25.1875 16.5C25.1875 11.4545 21.046 7.3125 16 7.3125C10.9545 7.3125 6.8125 11.454 6.8125 16.5C6.8125 18.75 7.64087 20.9293 9.10663 22.5948C8.75305 22.8953 8.41943 23.218 8.1098 23.5609C6.42963 21.6854 5.40625 19.2101 5.40625 16.5C5.40625 10.6586 10.1586 5.90625 16 5.90625Z" fill="black"/>
<path d="M13.8906 22.875H18.1094V24.2812H13.8906V22.875Z" fill="black"/>
<path d="M14.1984 17.5968C14.5847 18.2309 15.2584 18.6094 16.0003 18.6094C17.1634 18.6094 18.1097 17.6631 18.1097 16.5C18.1097 15.7581 17.7312 15.0844 17.0971 14.6981L17.0609 14.6759L11.7715 12.2714L14.1762 17.5605L14.1984 17.5968ZM16.3951 15.9179C16.5888 16.0494 16.7034 16.2643 16.7034 16.5C16.7034 16.8876 16.3879 17.2031 16.0003 17.2031C15.7646 17.2031 15.5497 17.0885 15.4182 16.8948L14.6041 15.1036L16.3951 15.9179Z" fill="black"/>
</svg>
