<svg width="24" height="25" viewBox="0 0 24 25" fill="none" xmlns="http://www.w3.org/2000/svg">
<path d="M12 0.00195312C5.3832 0.00195312 0 5.38515 0 12.002C0 18.6188 5.3832 24.002 12 24.002C18.6168 24.002 24 18.6188 24 12.002C24 5.38515 18.6168 0.00195312 12 0.00195312ZM12 21.8201C6.58618 21.8201 2.18182 17.4157 2.18182 12.002C2.18182 6.58821 6.58618 2.18377 12 2.18377C17.4138 2.18377 21.8182 6.58821 21.8182 12.002C21.8182 17.4157 17.4137 21.8201 12 21.8201Z" fill="#002C42"/>
<path d="M17.0973 7.31709L10.7923 13.4042L7.90266 10.6142C7.46747 10.1941 6.76173 10.194 6.32645 10.6142C5.89118 11.0344 5.89118 11.7157 6.32645 12.1359L10.0042 15.6867C10.2132 15.8885 10.4967 16.002 10.7923 16.002C10.7923 16.002 10.7923 16.002 10.7923 16.002C11.0879 16.002 11.3714 15.8885 11.5804 15.6868L18.6735 8.83891C19.1088 8.41868 19.1088 7.7374 18.6735 7.31716C18.2383 6.89693 17.5326 6.89686 17.0973 7.31709Z" fill="#002C42"/>
</svg>
