<svg width="75" height="74" viewBox="0 0 75 74" fill="none" xmlns="http://www.w3.org/2000/svg">
<path fill-rule="evenodd" clip-rule="evenodd" d="M59.5385 13.2308H51.0769V9H46.8462V13.2308H29.9231V9H25.6923V13.2308H17.2308C14.8942 13.2308 13 15.1249 13 17.4615V59.7692C13 62.1058 14.8942 64 17.2308 64H59.5385C61.8751 64 63.7692 62.1058 63.7692 59.7692V17.4615C63.7692 15.1249 61.8751 13.2308 59.5385 13.2308ZM59.5391 59.7691H17.2314V30.1537H59.5391V59.7691ZM59.5391 25.9229H17.2314V17.4614H25.6929V21.6922H29.9237V17.4614H46.8468V21.6922H51.0775V17.4614H59.5391V25.9229Z" fill=" #003145"/>
</svg>
