<svg width="32" height="33" viewBox="0 0 32 33" fill="none" xmlns="http://www.w3.org/2000/svg">
<mask id="path-1-outside-1" maskUnits="userSpaceOnUse" x="3.03027" y="5.04065" width="2" height="2" fill="black">
<rect fill="white" x="3.03027" y="5.04065" width="2" height="2"/>
<path d="M4.03049 6.04137C4.02978 6.03884 4.0311 6.04395 4.03049 6.04137V6.04137Z"/>
</mask>
<path d="M4.03049 6.04137C4.02978 6.03884 4.0311 6.04395 4.03049 6.04137V6.04137Z" fill="black"/>
<path d="M4.31953 5.96103C4.31937 5.96045 4.31913 5.95962 4.31886 5.95866C4.31865 5.95791 4.31811 5.95604 4.3174 5.95371C4.31707 5.9526 4.31636 5.95028 4.3154 5.94735C4.31492 5.94588 4.31412 5.94347 4.31307 5.9405C4.31253 5.93898 4.3118 5.93695 4.3109 5.93457C4.31004 5.9323 4.30872 5.9289 4.30702 5.92483C4.30614 5.92274 4.30503 5.92014 4.30368 5.91716C4.30237 5.91425 4.30057 5.91039 4.29832 5.90592C4.29616 5.90162 4.29287 5.89534 4.28851 5.88796C4.28663 5.88482 4.28238 5.87803 4.28 5.87441C4.27706 5.87008 4.27028 5.86066 4.2664 5.85559C4.2614 5.84939 4.24947 5.83583 4.24246 5.82857C4.23295 5.81946 4.20938 5.79998 4.19511 5.78999C4.17495 5.77784 4.12472 5.7559 4.0945 5.7476C4.05514 5.74168 3.97118 5.74653 3.92831 5.75851C3.88951 5.77572 3.82665 5.82033 3.80251 5.84539C3.78616 5.86626 3.76233 5.90572 3.75409 5.92351C3.74868 5.93719 3.7408 5.96186 3.73807 5.97271C3.73621 5.98126 3.73351 5.99672 3.73257 6.00361C3.73192 6.00923 3.73102 6.01951 3.73073 6.02416C3.73054 6.02808 3.73032 6.03532 3.73028 6.03864C3.73023 6.04648 3.73049 6.05298 3.73075 6.05748C3.73124 6.06627 3.73202 6.07324 3.73248 6.07701C3.733 6.08119 3.73351 6.08464 3.73387 6.08696C3.73425 6.08939 3.7346 6.09145 3.73487 6.09299C3.73541 6.09601 3.73589 6.09845 3.73619 6.09994C3.73651 6.10154 3.7368 6.10288 3.737 6.10385C3.73741 6.10574 3.73776 6.10726 3.73796 6.10816C3.73838 6.10997 3.73873 6.11142 3.73892 6.11217C3.73931 6.11377 3.73965 6.11513 3.7399 6.11609C3.74014 6.11704 3.7405 6.11841 3.74093 6.12001C3.74113 6.12076 3.74153 6.12222 3.74205 6.12404C3.74231 6.12494 3.74275 6.12649 3.74332 6.1284C3.74362 6.12937 3.74403 6.13074 3.74454 6.13237C3.74502 6.13388 3.74583 6.13639 3.74688 6.13947C3.74743 6.14105 3.74817 6.14318 3.74909 6.14568C3.74997 6.14806 3.75133 6.15167 3.75311 6.15602C3.75403 6.15825 3.75521 6.16106 3.75665 6.16428C3.75805 6.16743 3.76 6.17166 3.76248 6.17659C3.76484 6.1813 3.76854 6.18838 3.77355 6.19671C3.77573 6.20028 3.78072 6.20805 3.78354 6.21223C3.78707 6.21725 3.79536 6.22824 3.80017 6.23416C3.80646 6.24147 3.8218 6.25749 3.83098 6.26602C3.84363 6.27669 3.87553 6.29891 3.89508 6.30974C3.92241 6.32192 3.98861 6.33916 4.0271 6.3421C4.07135 6.33935 4.15549 6.31492 4.19364 6.29398C4.22293 6.27241 4.26752 6.22622 4.28361 6.20341C4.2941 6.18563 4.30942 6.15299 4.31475 6.13851C4.31828 6.12738 4.32349 6.10728 4.32533 6.09837C4.3266 6.09129 4.32845 6.07839 4.3291 6.07259C4.32955 6.06782 4.33018 6.05902 4.33038 6.055C4.3305 6.05161 4.33064 6.04529 4.33065 6.04236C4.33066 6.03543 4.33042 6.02964 4.33019 6.02554C4.32975 6.01754 4.32907 6.01116 4.32866 6.0076C4.32821 6.00369 4.32776 6.00046 4.32743 5.99824C4.32709 5.99594 4.32677 5.99399 4.32652 5.99251C4.32604 5.98962 4.3256 5.98727 4.32533 5.98582C4.32478 5.98295 4.3243 5.98068 4.32407 5.97958C4.32357 5.97727 4.32315 5.97543 4.32298 5.97468C4.32276 5.97372 4.32257 5.9729 4.32243 5.97232L3.73854 6.11043C3.73848 6.11017 3.73835 6.10961 3.73818 6.10887C3.73805 6.10832 3.73767 6.10664 3.7372 6.10444C3.73698 6.1034 3.73651 6.10117 3.73597 6.09833C3.73569 6.0969 3.73526 6.09457 3.73478 6.0917C3.73453 6.09022 3.73422 6.08827 3.73388 6.08597C3.73355 6.08376 3.7331 6.08054 3.73264 6.07663C3.73223 6.07307 3.73155 6.0667 3.73111 6.0587C3.73089 6.0546 3.73065 6.04882 3.73065 6.04188C3.73067 6.03895 3.7308 6.03264 3.73093 6.02924C3.73113 6.02522 3.73176 6.01643 3.7322 6.01166C3.73285 6.00585 3.73471 5.99296 3.73597 5.98588C3.73781 5.97697 3.74302 5.95687 3.74656 5.94574C3.75189 5.93126 3.7672 5.89862 3.77769 5.88084C3.79378 5.85803 3.83838 5.81184 3.86766 5.79026C3.90582 5.76933 3.98996 5.7449 4.0342 5.74214C4.07269 5.74508 4.1389 5.76233 4.16623 5.77451C4.18578 5.78534 4.21768 5.80756 4.23032 5.81822C4.2395 5.82676 4.25484 5.84277 4.26113 5.85008C4.26594 5.85601 4.27423 5.867 4.27776 5.87201C4.28059 5.87619 4.28557 5.88396 4.28776 5.88754C4.29277 5.89587 4.29647 5.90294 4.29883 5.90765C4.3013 5.91258 4.30325 5.91681 4.30465 5.91996C4.30609 5.92318 4.30727 5.92598 4.30818 5.92821C4.30997 5.93256 4.31133 5.93617 4.3122 5.93855C4.31312 5.94104 4.31387 5.94317 4.31441 5.94474C4.31546 5.94782 4.31626 5.95031 4.31673 5.95181C4.31724 5.95343 4.31765 5.95478 4.31794 5.95574C4.31851 5.95761 4.31894 5.95912 4.31918 5.95997C4.31967 5.9617 4.32004 5.96305 4.32021 5.96367C4.32057 5.96502 4.32084 5.96607 4.321 5.9667C4.32117 5.96733 4.32143 5.96838 4.32176 5.96972C4.32191 5.97034 4.32224 5.97167 4.32263 5.97339C4.32283 5.97424 4.32317 5.97572 4.32357 5.97757C4.32377 5.97852 4.32405 5.97985 4.32437 5.98143C4.32467 5.98292 4.32515 5.98534 4.32568 5.98835C4.32595 5.98989 4.3263 5.99194 4.32668 5.99436C4.32704 5.99668 4.32755 6.00012 4.32806 6.00431C4.32852 6.00807 4.32931 6.01504 4.3298 6.02382C4.33005 6.02832 4.33032 6.03483 4.33027 6.04267C4.33023 6.04598 4.33001 6.05322 4.32982 6.05714C4.32953 6.06179 4.32862 6.07207 4.32798 6.0777C4.32704 6.08458 4.32434 6.10004 4.32248 6.10859C4.31974 6.11944 4.31187 6.1441 4.30646 6.15779C4.29822 6.17558 4.27438 6.21503 4.25803 6.23591C4.23389 6.26096 4.17103 6.30558 4.13223 6.32279C4.08937 6.33477 4.00541 6.33962 3.96605 6.33369C3.93583 6.3254 3.8856 6.30346 3.86544 6.29131C3.85117 6.28132 3.8276 6.26184 3.81809 6.25273C3.81108 6.24547 3.79915 6.23191 3.79415 6.22571C3.79027 6.22064 3.78349 6.21122 3.78055 6.20689C3.77817 6.20327 3.77393 6.19649 3.77204 6.19334C3.76768 6.18596 3.76439 6.17969 3.76223 6.17539C3.75998 6.17091 3.75819 6.16706 3.75687 6.16414C3.75553 6.16117 3.75441 6.15857 3.75354 6.15648C3.75184 6.15241 3.75052 6.14902 3.74966 6.14675C3.74877 6.14438 3.74804 6.14235 3.7475 6.14084C3.74645 6.13788 3.74566 6.13548 3.74518 6.13402C3.74423 6.13113 3.74353 6.12885 3.74322 6.1278C3.74254 6.12557 3.74205 6.12386 3.7419 6.12332C3.74168 6.12256 3.74152 6.12199 3.74145 6.12172L4.31953 5.96103Z" fill="black" mask="url(#path-1-outside-1)"/>
<path d="M8.89718 7.01121L9.03978 6.96465C9.03655 6.95478 9.03297 6.9449 9.02903 6.93508C8.41535 5.39892 6.95002 4.38424 5.29627 4.35028L5.29615 4.35028C4.86038 4.34169 4.44857 4.53041 4.17132 4.86883C3.89412 5.20717 3.78936 5.64691 3.88413 6.07391L3.88412 6.07391L3.88436 6.07492L7.41685 21.4896C7.41688 21.4898 7.41692 21.49 7.41696 21.4901C7.47755 21.7609 7.74596 21.9317 8.01723 21.8714L8.01727 21.8714C8.28846 21.811 8.45932 21.5422 8.39903 21.271L8.39902 21.271L5.98342 10.4188C5.94559 10.2484 5.98715 10.0741 6.09777 9.93907C6.20802 9.80456 6.37093 9.72996 6.54598 9.73261C6.5461 9.73261 6.54621 9.73262 6.54633 9.73262L7.55765 9.75337H7.55767C7.75201 9.75734 7.94133 9.78699 8.12203 9.83935C8.13246 9.84291 8.14358 9.84638 8.15525 9.84949C8.77598 10.0401 9.28984 10.5015 9.53911 11.1254L9.6784 11.0698L9.53911 11.1254L9.91462 12.0654C10.7215 14.0853 11.2257 16.2082 11.4131 18.3753L11.4137 18.3825L11.4138 18.3836L11.8211 22.3335L11.3803 22.3913C10.8859 21.7818 10.0722 21.4666 9.25464 21.6489L9.25461 21.6489C8.10537 21.9054 7.37864 23.0488 7.63448 24.1981L7.63445 24.1981L7.63518 24.2011C7.63554 24.2026 7.63554 24.2026 7.63544 24.2022L7.63538 24.2022L7.63642 24.2065L8.50103 27.7991C8.6215 28.2999 9.06595 28.65 9.581 28.65H23.1522C24.1866 28.65 25.0377 27.854 25.1265 26.8425H25.8084C26.8034 26.8425 27.5947 25.9769 27.5947 24.9355C27.5948 23.684 27.0801 22.5109 26.1779 21.7194C25.3673 21.0083 24.3464 20.6897 23.3061 20.8261L23.306 20.8261L12.8191 22.2025L12.4152 18.2857C12.4152 18.2853 12.4151 18.2849 12.4151 18.2845C12.2189 16.0205 11.692 13.8025 10.849 11.6922L10.4735 10.7523C10.1825 10.0239 9.64445 9.4468 8.97713 9.10216C9.24585 8.42378 9.27238 7.67057 9.03965 6.96427L8.89718 7.01121ZM8.89718 7.01121C9.13353 7.72849 9.08914 8.49631 8.78365 9.17464L5.29319 4.50025C6.88671 4.53297 8.2984 5.5105 8.88973 6.99073C8.89245 6.99748 8.89493 7.00432 8.89718 7.01121ZM4.94958 5.50651L4.94956 5.50652C4.86986 5.60379 4.83945 5.72892 4.86549 5.85175L5.63454 9.00887C5.90435 8.81969 6.22898 8.7192 6.56645 8.72673M4.94958 5.50651L6.56645 8.72673M4.94958 5.50651C5.02964 5.40876 5.14913 5.35426 5.27599 5.35621C6.51974 5.38194 7.62186 6.14166 8.08879 7.29358C8.24806 7.78873 8.2212 8.31663 8.01965 8.7874M4.94958 5.50651L8.01965 8.7874M6.56645 8.72673L6.56635 8.72673L6.56327 8.8767L6.56664 8.72674C6.56657 8.72673 6.56651 8.72673 6.56645 8.72673ZM8.01965 8.7874C8.00496 8.82172 7.98934 8.85573 7.9728 8.8894L8.10743 8.95554L8.01965 8.7874ZM7.57838 8.7475L7.57531 8.89746L7.57838 8.7475C7.57838 8.7475 7.57838 8.7475 7.57838 8.7475ZM5.67297 9.16663C5.62855 9.20062 5.58596 9.23739 5.54543 9.27682L5.50488 9.11035L5.67297 9.16663ZM9.47934 27.5638L9.47933 27.5637L8.61612 23.9771C8.61603 23.9767 8.61593 23.9762 8.61583 23.9758C8.48298 23.3692 8.86725 22.7663 9.47374 22.631C10.0813 22.4955 10.687 22.8796 10.8235 23.4911L10.8238 23.4924L11.7893 27.6439H9.58105C9.53219 27.6439 9.49074 27.6112 9.47934 27.5638ZM25.8085 25.8364H21.8264C21.5486 25.8364 21.3234 26.0616 21.3234 26.3395C21.3234 26.6173 21.5486 26.8425 21.8264 26.8425H24.1125C24.0298 27.2976 23.6306 27.6439 23.1523 27.6439H12.8223L12.6359 26.8425H20.1835C20.4614 26.8425 20.6866 26.6173 20.6866 26.3395C20.6866 26.0616 20.4614 25.8364 20.1835 25.8364H12.4019L11.8232 23.3481L23.437 21.8237C24.184 21.7255 24.9211 21.9553 25.5143 22.4757C26.1949 23.0728 26.5886 23.9684 26.5886 24.9355C26.5886 25.4499 26.2219 25.8364 25.8085 25.8364Z" fill="black" stroke="black" stroke-width="0.3"/>
</svg>
