<svg width="32" height="33" viewBox="0 0 32 33" fill="none" xmlns="http://www.w3.org/2000/svg">
<path d="M11.9217 19.8794C11.4454 20.3557 11.4454 21.1279 11.9217 21.6041C12.3981 22.0804 13.1703 22.0804 13.6466 21.6041C14.9442 20.3064 17.0562 20.3064 18.3538 21.6041C18.5921 21.8422 18.9043 21.9614 19.2164 21.9614C19.5284 21.9614 19.8406 21.8423 20.0789 21.6041C20.5552 21.1278 20.5552 20.3555 20.0789 19.8794C17.8299 17.6304 14.1707 17.6304 11.9217 19.8794Z" fill="#1D1D1B"/>
<path d="M8.34649 16.3045C7.87018 16.7808 7.87018 17.553 8.34649 18.0292C8.82279 18.5053 9.5949 18.5056 10.0714 18.0292C13.3403 14.7602 18.6593 14.7602 21.9281 18.0292C22.1663 18.2672 22.4786 18.3864 22.7906 18.3864C23.1027 18.3864 23.4149 18.2674 23.6531 18.0292C24.1295 17.5529 24.1295 16.7806 23.6531 16.3045C19.4331 12.0845 12.5666 12.0845 8.34649 16.3045Z" fill="#1D1D1B"/>
<path d="M27.6429 12.315C21.2229 5.89501 10.777 5.89501 4.35723 12.315C3.88092 12.7913 3.88092 13.5635 4.35723 14.0397C4.8337 14.516 5.6058 14.516 6.08211 14.0397C8.73114 11.3905 12.2534 9.93165 16 9.93165C19.7465 9.93165 23.2688 11.3907 25.9178 14.0397C26.156 14.2778 26.4683 14.397 26.7803 14.397C27.0924 14.397 27.4046 14.2779 27.6429 14.0397C28.1192 13.5635 28.1192 12.7913 27.6429 12.315Z" fill="#1D1D1B"/>
<path d="M16.0001 25.6188C16.7394 25.6188 17.3386 25.0195 17.3386 24.2803C17.3386 23.541 16.7394 22.9418 16.0001 22.9418C15.2609 22.9418 14.6616 23.541 14.6616 24.2803C14.6616 25.0195 15.2609 25.6188 16.0001 25.6188Z" fill="#1D1D1B"/>
</svg>
