<svg width="45" height="45" viewBox="0 0 32 32" fill="none" xmlns="http://www.w3.org/2000/svg">
<path fill-rule="evenodd" clip-rule="evenodd" d="M53.9323 45.101C50.7282 45.1171 47.7045 46.586 45.7116 49.0945L30.2633 39.4382C30.8264 37.6214 30.8264 35.6768 30.2633 33.86L45.7116 24.2037C48.9491 28.2119 54.606 29.3007 59.1004 26.7807C63.5948 24.2607 65.6158 18.8669 63.8837 14.0146C62.1516 9.1623 57.1716 6.26681 52.097 7.16157C47.0225 8.05633 43.3334 12.4804 43.3658 17.6323C43.3758 18.5772 43.5181 19.516 43.7885 20.4215L28.3402 30.0778C25.5449 26.5593 20.8295 25.1937 16.5861 26.6738C12.3427 28.1538 9.5 32.1557 9.5 36.6491C9.5 41.1426 12.3427 45.1444 16.5861 46.6244C20.8295 48.1045 25.5449 46.7389 28.3402 43.2205L43.7885 52.8768C43.5181 53.7822 43.3758 54.721 43.3658 55.6659C43.3658 61.5007 48.0966 66.2308 53.9323 66.2308C59.768 66.2308 64.4988 61.5007 64.4988 55.6659C64.4988 49.8311 59.768 45.101 53.9323 45.101ZM53.9231 11.2308C57.428 11.2308 60.2692 14.072 60.2692 17.5769C60.2692 21.0818 57.428 23.9231 53.9231 23.9231C50.4182 23.9231 47.5769 21.0818 47.5769 17.5769C47.5769 14.072 50.4182 11.2308 53.9231 11.2308ZM20.0769 42.9615C16.572 42.9615 13.7308 40.1203 13.7308 36.6154C13.7308 33.1105 16.572 30.2692 20.0769 30.2692C23.5818 30.2692 26.4231 33.1105 26.4231 36.6154C26.4231 40.1203 23.5818 42.9615 20.0769 42.9615ZM53.9231 62C50.4182 62 47.5769 59.1587 47.5769 55.6538C47.5769 52.149 50.4182 49.3077 53.9231 49.3077C57.428 49.3077 60.2692 52.149 60.2692 55.6538C60.2692 59.1587 57.428 62 53.9231 62Z" fill="white"/>
</svg>
