<svg id="svg" version="1.1" xmlns="http://www.w3.org/2000/svg" xmlns:xlink="http://www.w3.org/1999/xlink" width="400" height="398.8023952095808" viewBox="0, 0, 400,398.8023952095808"><g id="svgg"><path id="path0" d="M188.833 70.761 C 188.614 70.841,186.550 71.114,184.247 71.368 C 171.591 72.767,155.819 77.156,145.622 82.119 C 139.216 85.237,135.672 87.175,131.805 89.678 C 127.866 92.226,122.155 96.477,120.040 98.435 L 118.245 100.096 119.242 100.887 C 119.791 101.321,120.476 101.681,120.764 101.686 C 121.889 101.705,128.857 105.389,131.713 107.474 C 135.118 109.961,135.270 109.998,137.188 108.787 C 142.473 105.451,148.764 102.072,154.337 99.577 C 155.543 99.037,157.338 98.233,158.325 97.789 C 159.312 97.346,161.225 96.611,162.576 96.156 C 163.927 95.702,165.452 95.162,165.966 94.956 C 168.951 93.758,175.782 91.998,183.098 90.542 C 190.905 88.988,209.121 88.989,216.902 90.544 C 230.664 93.294,238.785 96.087,250.847 102.221 C 258.002 105.859,258.948 106.368,261.017 107.687 C 264.733 110.058,264.992 110.056,268.028 107.652 C 268.841 107.008,269.705 106.481,269.948 106.481 C 270.190 106.481,270.389 106.323,270.389 106.130 C 270.389 105.792,275.722 103.047,279.661 101.356 C 281.677 100.491,282.021 99.740,280.807 98.852 C 280.395 98.551,278.286 96.954,276.121 95.303 C 259.383 82.543,240.762 75.028,216.750 71.342 C 213.867 70.899,189.828 70.399,188.833 70.761 M101.894 99.738 C 96.133 100.798,94.878 101.690,87.362 110.070 C 85.100 112.592,80.705 117.258,77.597 120.439 C 69.294 128.933,68.868 129.662,68.186 136.507 C 67.985 138.527,67.553 142.154,67.227 144.566 C 66.901 146.979,66.370 151.017,66.048 153.539 C 65.726 156.062,65.257 159.540,65.006 161.268 C 64.348 165.800,64.262 165.766,77.576 166.160 C 87.398 166.450,86.377 166.652,92.625 163.192 C 95.771 161.450,98.407 161.180,101.943 162.238 C 106.065 163.471,107.061 163.599,108.825 163.124 C 111.653 162.362,112.077 160.814,110.251 157.926 C 109.291 156.409,108.833 155.982,104.197 152.287 C 98.183 147.494,97.518 146.610,98.519 144.739 C 99.505 142.895,100.426 143.407,109.671 150.938 C 114.826 155.138,116.043 155.596,118.668 154.325 C 125.509 151.014,124.770 148.411,114.592 139.983 C 112.873 138.559,111.265 137.213,111.020 136.992 C 110.774 136.771,109.357 135.603,107.870 134.397 C 103.095 130.522,102.758 130.154,102.758 128.799 C 102.758 126.304,104.794 126.178,107.741 128.492 C 111.014 131.062,118.832 137.632,120.837 139.498 C 123.759 142.216,127.043 142.286,129.194 139.676 C 132.574 135.576,130.523 131.438,121.491 124.137 C 119.925 122.872,118.554 121.734,118.445 121.610 C 118.037 121.147,114.485 118.833,113.589 118.447 C 113.079 118.228,112.393 117.871,112.064 117.654 C 111.735 117.438,110.344 116.621,108.973 115.840 C 106.091 114.196,105.380 112.064,107.451 111.276 C 110.283 110.199,121.300 116.966,129.132 124.594 C 133.031 128.392,133.248 128.478,134.319 126.663 C 139.941 117.135,133.801 108.228,118.046 103.055 C 108.594 99.952,104.877 99.189,101.894 99.738 M292.650 100.210 C 290.747 100.698,289.057 101.231,288.895 101.396 C 288.733 101.560,288.302 101.695,287.937 101.695 C 287.043 101.695,275.730 105.429,273.978 106.303 C 265.876 110.343,262.182 116.963,264.412 123.446 C 266.268 128.839,266.044 128.888,274.772 121.133 C 277.773 118.467,284.122 114.437,289.386 111.856 C 291.461 110.840,293.519 110.952,293.519 112.083 C 293.519 112.748,291.499 116.052,291.093 116.052 C 290.896 116.052,289.522 116.888,288.040 117.910 C 286.557 118.932,283.998 120.679,282.353 121.793 C 280.708 122.906,279.128 124.041,278.842 124.314 C 278.556 124.588,277.379 125.437,276.226 126.203 C 269.051 130.965,267.181 137.686,272.172 140.771 C 274.702 142.334,277.526 141.388,280.964 137.823 C 281.406 137.364,283.106 135.912,284.741 134.596 C 286.376 133.280,289.209 130.992,291.037 129.511 C 294.810 126.456,296.423 126.013,297.119 127.843 C 297.802 129.641,297.203 130.456,292.722 133.813 C 291.296 134.881,290.040 135.860,289.930 135.987 C 289.821 136.114,288.833 136.925,287.737 137.788 C 282.523 141.893,276.770 148.333,276.770 150.064 C 276.770 152.176,281.921 155.928,284.077 155.387 C 284.863 155.190,290.338 151.278,291.127 150.350 C 293.974 147.001,300.326 143.357,301.416 144.447 C 302.916 145.947,301.798 147.510,295.803 152.287 C 291.146 155.999,290.711 156.405,289.683 158.018 C 286.882 162.410,290.869 164.513,297.862 162.333 C 301.823 161.099,304.742 161.330,307.159 163.069 C 311.791 166.403,320.714 167.381,331.520 165.741 C 335.833 165.086,335.573 165.404,335.035 161.437 C 334.788 159.616,334.495 157.408,334.384 156.530 C 333.840 152.228,332.906 145.372,332.401 141.974 C 332.092 139.890,331.728 136.987,331.593 135.521 C 331.170 130.917,330.456 128.964,328.367 126.692 C 302.884 98.980,301.490 97.947,292.650 100.210 M188.435 163.127 C 180.373 163.535,171.760 164.580,161.914 166.345 C 153.799 167.799,151.044 168.431,136.391 172.198 C 125.799 174.920,126.072 174.875,120.040 174.875 C 112.359 174.875,110.542 174.085,104.857 168.265 C 99.761 163.048,97.747 162.660,92.317 165.849 C 88.478 168.104,85.916 168.694,79.964 168.694 C 74.008 168.694,74.586 168.072,73.173 176.002 C 72.867 177.718,72.529 179.423,72.420 179.791 C 71.108 184.249,70.726 203.378,71.744 213.649 C 73.501 231.380,80.499 252.077,89.471 266.083 C 90.272 267.333,90.927 268.442,90.927 268.547 C 90.927 270.216,101.556 283.344,108.532 290.291 C 116.851 298.574,121.683 302.501,130.944 308.501 C 132.445 309.474,133.750 310.269,133.844 310.269 C 133.937 310.269,134.747 310.732,135.643 311.297 C 136.538 311.863,139.631 313.498,142.514 314.931 C 148.102 317.707,148.183 317.744,151.545 319.063 C 152.752 319.536,154.098 320.079,154.536 320.271 C 157.130 321.403,166.688 324.265,171.087 325.227 C 172.732 325.587,174.885 326.067,175.872 326.295 C 176.859 326.523,178.923 326.870,180.459 327.066 C 181.994 327.263,184.506 327.593,186.042 327.799 C 189.760 328.299,209.931 328.278,213.958 327.770 C 215.713 327.549,218.315 327.222,219.741 327.044 C 221.167 326.865,223.141 326.536,224.128 326.312 C 225.115 326.088,227.358 325.597,229.113 325.220 C 230.867 324.844,233.111 324.290,234.098 323.989 C 237.913 322.825,248.076 319.440,248.746 319.109 C 249.134 318.918,250.080 318.486,250.847 318.150 C 279.980 305.385,302.504 283.829,316.224 255.586 C 319.708 248.415,319.823 248.126,322.614 239.482 C 324.970 232.188,325.548 230.086,326.400 225.723 C 326.764 223.858,327.242 221.436,327.462 220.339 C 328.790 213.718,329.287 193.966,328.335 185.643 C 327.784 180.830,326.717 174.450,326.234 173.081 C 326.041 172.532,325.776 171.436,325.646 170.644 L 325.408 169.204 319.933 168.973 C 313.435 168.699,310.507 167.982,307.380 165.897 C 302.343 162.540,297.989 163.041,294.792 167.345 C 289.657 174.258,281.320 175.433,266.002 171.403 C 256.233 168.833,251.214 167.713,241.276 165.886 C 227.042 163.270,206.661 162.206,188.435 163.127 M204.692 191.304 C 209.518 192.615,214.326 196.480,216.199 200.555 C 216.664 201.566,217.239 202.752,217.477 203.190 C 219.363 206.664,217.721 216.240,214.638 219.741 C 202.510 233.516,182.151 226.784,182.075 208.973 C 182.022 196.611,192.912 188.103,204.692 191.304 M109.738 222.337 C 118.266 224.372,125.120 227.788,131.605 233.238 C 137.093 237.849,144.697 244.958,145.832 246.538 C 151.291 254.140,146.158 264.037,129.842 277.368 C 128.769 278.245,127.575 279.294,127.190 279.699 C 126.745 280.167,126.205 280.344,125.706 280.186 C 124.229 279.717,114.020 268.311,110.867 263.606 C 110.538 263.116,110.090 262.507,109.870 262.253 C 108.954 261.195,107.677 259.227,107.677 258.873 C 107.677 258.663,107.533 258.431,107.357 258.358 C 106.933 258.182,104.088 253.451,104.088 252.922 C 104.088 252.695,103.934 252.449,103.747 252.376 C 103.273 252.192,99.422 244.081,97.623 239.482 C 95.412 233.828,94.014 229.436,93.302 225.905 C 93.123 225.018,92.919 224.038,92.849 223.727 C 92.453 221.965,104.146 221.003,109.738 222.337 M305.218 222.542 L 307.147 223.081 306.892 224.901 C 306.752 225.901,306.398 227.527,306.106 228.514 C 305.038 232.115,303.907 235.543,303.080 237.687 C 302.614 238.893,302.089 240.341,301.913 240.905 C 301.737 241.468,301.413 242.276,301.193 242.699 C 300.972 243.123,299.840 245.444,298.675 247.856 C 295.967 253.466,291.122 261.551,290.229 261.947 C 290.065 262.021,289.930 262.259,289.930 262.476 C 289.930 262.864,287.036 266.816,285.304 268.794 C 284.824 269.342,283.111 271.312,281.498 273.171 C 277.841 277.384,275.306 279.865,274.346 280.169 C 273.671 280.384,271.196 279.034,270.854 278.265 C 270.781 278.101,270.476 277.966,270.176 277.966 C 269.876 277.966,269.487 277.733,269.312 277.448 C 269.137 277.163,267.916 276.102,266.600 275.089 C 255.384 266.457,249.236 255.346,252.196 249.053 C 253.828 245.583,259.956 239.275,267.826 232.963 C 273.590 228.340,281.466 224.433,289.133 222.392 C 291.909 221.653,302.390 221.751,305.218 222.542 M223.247 262.255 C 225.862 263.645,233.699 273.165,233.699 274.951 C 233.699 275.038,234.532 276.514,235.550 278.232 C 236.569 279.950,238.161 282.971,239.088 284.945 C 244.919 297.358,245.360 299.742,242.074 301.097 C 233.982 304.435,224.743 306.911,214.506 308.484 C 209.461 309.260,188.036 309.154,184.247 308.334 C 183.041 308.073,180.259 307.503,178.066 307.066 C 173.006 306.060,169.324 305.051,163.310 303.023 C 155.178 300.280,154.021 299.484,155.076 297.355 C 155.306 296.891,156.685 293.650,158.140 290.154 C 160.910 283.497,163.275 278.559,165.011 275.809 C 174.755 260.369,173.756 260.722,206.696 261.092 L 221.369 261.256 223.247 262.255 " stroke="none" fill="#fbfbfb" fill-rule="evenodd"></path><path id="path1" d="M0.000 199.402 L 0.000 398.804 200.000 398.804 L 400.000 398.804 400.000 199.402 L 400.000 0.000 200.000 0.000 L 0.000 0.000 0.000 199.402 M216.750 71.342 C 240.762 75.028,259.383 82.543,276.121 95.303 C 278.286 96.954,280.395 98.551,280.807 98.852 C 282.021 99.740,281.677 100.491,279.661 101.356 C 275.722 103.047,270.389 105.792,270.389 106.130 C 270.389 106.323,270.190 106.481,269.948 106.481 C 269.705 106.481,268.841 107.008,268.028 107.652 C 264.992 110.056,264.733 110.058,261.017 107.687 C 258.948 106.368,258.002 105.859,250.847 102.221 C 238.785 96.087,230.664 93.294,216.902 90.544 C 209.121 88.989,190.905 88.988,183.098 90.542 C 175.782 91.998,168.951 93.758,165.966 94.956 C 165.452 95.162,163.927 95.702,162.576 96.156 C 161.225 96.611,159.312 97.346,158.325 97.789 C 157.338 98.233,155.543 99.037,154.337 99.577 C 149.956 101.538,147.561 102.774,141.453 106.222 C 139.783 107.165,139.252 107.484,137.188 108.787 C 135.270 109.998,135.118 109.961,131.713 107.474 C 128.857 105.389,121.889 101.705,120.764 101.686 C 120.476 101.681,119.791 101.321,119.242 100.887 L 118.245 100.096 120.040 98.435 C 122.155 96.477,127.866 92.226,131.805 89.678 C 135.672 87.175,139.216 85.237,145.622 82.119 C 155.819 77.156,171.591 72.767,184.247 71.368 C 186.550 71.114,188.614 70.841,188.833 70.761 C 189.828 70.399,213.867 70.899,216.750 71.342 M108.873 100.357 C 111.860 101.043,112.392 101.199,118.046 103.055 C 133.801 108.228,139.941 117.135,134.319 126.663 C 133.248 128.478,133.031 128.392,129.132 124.594 C 121.300 116.966,110.283 110.199,107.451 111.276 C 105.380 112.064,106.091 114.196,108.973 115.840 C 110.344 116.621,111.735 117.438,112.064 117.654 C 112.393 117.871,113.079 118.228,113.589 118.447 C 114.485 118.833,118.037 121.147,118.445 121.610 C 118.554 121.734,119.925 122.872,121.491 124.137 C 130.523 131.438,132.574 135.576,129.194 139.676 C 127.043 142.286,123.759 142.216,120.837 139.498 C 118.832 137.632,111.014 131.062,107.741 128.492 C 104.794 126.178,102.758 126.304,102.758 128.799 C 102.758 130.154,103.095 130.522,107.870 134.397 C 109.357 135.603,110.774 136.771,111.020 136.992 C 111.265 137.213,112.873 138.559,114.592 139.983 C 124.770 148.411,125.509 151.014,118.668 154.325 C 116.043 155.596,114.826 155.138,109.671 150.938 C 100.426 143.407,99.505 142.895,98.519 144.739 C 97.518 146.610,98.183 147.494,104.197 152.287 C 108.833 155.982,109.291 156.409,110.251 157.926 C 112.077 160.814,111.653 162.362,108.825 163.124 C 107.061 163.599,106.065 163.471,101.943 162.238 C 98.407 161.180,95.771 161.450,92.625 163.192 C 86.377 166.652,87.398 166.450,77.576 166.160 C 64.262 165.766,64.348 165.800,65.006 161.268 C 65.257 159.540,65.726 156.062,66.048 153.539 C 66.370 151.017,66.901 146.979,67.227 144.566 C 67.553 142.154,67.985 138.527,68.186 136.507 C 68.868 129.662,69.294 128.933,77.597 120.439 C 80.705 117.258,85.100 112.592,87.362 110.070 C 96.671 99.691,99.805 98.276,108.873 100.357 M302.365 100.655 C 304.824 101.818,313.278 110.283,328.367 126.692 C 330.456 128.964,331.170 130.917,331.593 135.521 C 331.728 136.987,332.092 139.890,332.401 141.974 C 332.906 145.372,333.840 152.228,334.384 156.530 C 334.495 157.408,334.788 159.616,335.035 161.437 C 335.573 165.404,335.833 165.086,331.520 165.741 C 320.714 167.381,311.791 166.403,307.159 163.069 C 304.742 161.330,301.823 161.099,297.862 162.333 C 290.869 164.513,286.882 162.410,289.683 158.018 C 290.711 156.405,291.146 155.999,295.803 152.287 C 301.798 147.510,302.916 145.947,301.416 144.447 C 300.326 143.357,293.974 147.001,291.127 150.350 C 290.338 151.278,284.863 155.190,284.077 155.387 C 281.921 155.928,276.770 152.176,276.770 150.064 C 276.770 148.333,282.523 141.893,287.737 137.788 C 288.833 136.925,289.821 136.114,289.930 135.987 C 290.040 135.860,291.296 134.881,292.722 133.813 C 297.203 130.456,297.802 129.641,297.119 127.843 C 296.423 126.013,294.810 126.456,291.037 129.511 C 289.209 130.992,286.376 133.280,284.741 134.596 C 283.106 135.912,281.406 137.364,280.964 137.823 C 277.526 141.388,274.702 142.334,272.172 140.771 C 267.181 137.686,269.051 130.965,276.226 126.203 C 277.379 125.437,278.556 124.588,278.842 124.314 C 279.128 124.041,280.708 122.906,282.353 121.793 C 283.998 120.679,286.557 118.932,288.040 117.910 C 289.522 116.888,290.896 116.052,291.093 116.052 C 291.499 116.052,293.519 112.748,293.519 112.083 C 293.519 110.952,291.461 110.840,289.386 111.856 C 284.122 114.437,277.773 118.467,274.772 121.133 C 266.044 128.888,266.268 128.839,264.412 123.446 C 262.182 116.963,265.876 110.343,273.978 106.303 C 275.730 105.429,287.043 101.695,287.937 101.695 C 288.302 101.695,288.733 101.560,288.895 101.396 C 290.720 99.539,299.040 99.082,302.365 100.655 M215.952 163.118 C 224.577 163.581,234.840 164.703,241.276 165.886 C 251.214 167.713,256.233 168.833,266.002 171.403 C 281.320 175.433,289.657 174.258,294.792 167.345 C 297.989 163.041,302.343 162.540,307.380 165.897 C 310.507 167.982,313.435 168.699,319.933 168.973 L 325.408 169.204 325.646 170.644 C 325.776 171.436,326.041 172.532,326.234 173.081 C 326.717 174.450,327.784 180.830,328.335 185.643 C 329.287 193.966,328.790 213.718,327.462 220.339 C 327.242 221.436,326.764 223.858,326.400 225.723 C 325.451 230.584,322.825 239.475,320.040 247.258 C 311.458 271.244,287.630 298.654,264.207 311.486 C 261.540 312.947,253.008 317.203,250.847 318.150 C 250.080 318.486,249.134 318.918,248.746 319.109 C 248.076 319.440,237.913 322.825,234.098 323.989 C 233.111 324.290,230.867 324.844,229.113 325.220 C 227.358 325.597,225.115 326.088,224.128 326.312 C 223.141 326.536,221.167 326.865,219.741 327.044 C 218.315 327.222,215.713 327.549,213.958 327.770 C 209.931 328.278,189.760 328.299,186.042 327.799 C 184.506 327.593,181.994 327.263,180.459 327.066 C 178.923 326.870,176.859 326.523,175.872 326.295 C 174.885 326.067,172.732 325.587,171.087 325.227 C 166.688 324.265,157.130 321.403,154.536 320.271 C 154.098 320.079,152.752 319.536,151.545 319.063 C 148.183 317.744,148.102 317.707,142.514 314.931 C 139.631 313.498,136.538 311.863,135.643 311.297 C 134.747 310.732,133.937 310.269,133.844 310.269 C 133.653 310.269,129.234 307.430,126.282 305.410 C 116.328 298.601,104.958 287.668,96.963 277.219 C 94.077 273.447,90.927 268.921,90.927 268.547 C 90.927 268.442,90.272 267.333,89.471 266.083 C 80.499 252.077,73.501 231.380,71.744 213.649 C 70.726 203.378,71.108 184.249,72.420 179.791 C 72.529 179.423,72.867 177.718,73.173 176.002 C 74.586 168.072,74.008 168.694,79.964 168.694 C 85.916 168.694,88.478 168.104,92.317 165.849 C 97.747 162.660,99.761 163.048,104.857 168.265 C 110.542 174.085,112.359 174.875,120.040 174.875 C 126.072 174.875,125.799 174.920,136.391 172.198 C 153.519 167.795,158.987 166.633,170.489 164.954 C 184.413 162.920,200.313 162.278,215.952 163.118 M194.958 191.409 C 176.553 197.196,177.848 222.799,196.747 226.781 C 203.296 228.162,209.306 225.796,214.638 219.741 C 217.721 216.240,219.363 206.664,217.477 203.190 C 217.239 202.752,216.664 201.566,216.199 200.555 C 212.820 193.205,202.870 188.921,194.958 191.409 M94.716 222.480 C 93.417 222.924,92.766 223.358,92.849 223.727 C 92.919 224.038,93.123 225.018,93.302 225.905 C 94.014 229.436,95.412 233.828,97.623 239.482 C 99.422 244.081,103.273 252.192,103.747 252.376 C 103.934 252.449,104.088 252.695,104.088 252.922 C 104.088 253.451,106.933 258.182,107.357 258.358 C 107.533 258.431,107.677 258.663,107.677 258.873 C 107.677 259.227,108.954 261.195,109.870 262.253 C 110.090 262.507,110.538 263.116,110.867 263.606 C 114.020 268.311,124.229 279.717,125.706 280.186 C 126.205 280.344,126.745 280.167,127.190 279.699 C 127.575 279.294,128.769 278.245,129.842 277.368 C 146.158 264.037,151.291 254.140,145.832 246.538 C 144.697 244.958,137.093 237.849,131.605 233.238 C 125.120 227.788,118.266 224.372,109.738 222.337 C 106.166 221.485,97.384 221.568,94.716 222.480 M289.133 222.392 C 281.466 224.433,273.590 228.340,267.826 232.963 C 259.956 239.275,253.828 245.583,252.196 249.053 C 249.236 255.346,255.384 266.457,266.600 275.089 C 267.916 276.102,269.137 277.163,269.312 277.448 C 269.487 277.733,269.876 277.966,270.176 277.966 C 270.476 277.966,270.781 278.101,270.854 278.265 C 271.196 279.034,273.671 280.384,274.346 280.169 C 275.306 279.865,277.841 277.384,281.498 273.171 C 283.111 271.312,284.824 269.342,285.304 268.794 C 287.036 266.816,289.930 262.864,289.930 262.476 C 289.930 262.259,290.065 262.021,290.229 261.947 C 291.122 261.551,295.967 253.466,298.675 247.856 C 299.840 245.444,300.972 243.123,301.193 242.699 C 301.413 242.276,301.737 241.468,301.913 240.905 C 302.089 240.341,302.614 238.893,303.080 237.687 C 303.907 235.543,305.038 232.115,306.106 228.514 C 306.398 227.527,306.752 225.901,306.892 224.901 L 307.147 223.081 305.218 222.542 C 302.390 221.751,291.909 221.653,289.133 222.392 M185.444 261.171 C 174.983 261.560,173.195 262.841,165.011 275.809 C 163.275 278.559,160.910 283.497,158.140 290.154 C 156.685 293.650,155.306 296.891,155.076 297.355 C 154.021 299.484,155.178 300.280,163.310 303.023 C 169.324 305.051,173.006 306.060,178.066 307.066 C 180.259 307.503,183.041 308.073,184.247 308.334 C 188.036 309.154,209.461 309.260,214.506 308.484 C 224.743 306.911,233.982 304.435,242.074 301.097 C 244.946 299.913,244.809 297.680,241.390 289.930 C 239.440 285.511,237.175 280.974,235.550 278.232 C 234.532 276.514,233.699 275.038,233.699 274.951 C 233.699 273.165,225.862 263.645,223.247 262.255 L 221.369 261.256 206.696 261.092 C 198.627 261.001,189.063 261.037,185.444 261.171 " stroke="none" fill="#049cdc" fill-rule="evenodd"></path></g></svg>