<svg height="57" width="56" viewBox="0 0 57 56" fill="none" xmlns="http://www.w3.org/2000/svg">
<path d="M49.5 28.05C49.5 39.6381 40.0488 49.0048 28.3763 49C16.8275 49 7.49049 39.5192 7.50001 27.7978C7.50952 16.3286 17.013 6.99524 28.676 7C40.1106 7.00952 49.5 16.4998 49.5 28.05Z" stroke="white" stroke-width="3.7" stroke-miterlimit="10"/>
<path d="M27.2722 20.2547C23.2971 20.3454 19.3842 21.3411 15.1712 22.4132L15.1288 22.424L15.1284 22.4241L14.2093 22.6572L13.2903 22.8903L13.29 22.8903C13.2614 22.8976 13.2323 22.9049 13.2029 22.9124C12.6588 23.0499 11.9778 23.2222 11.3917 23.4016C11.0821 23.4964 10.8134 23.5889 10.6124 23.6744C10.5116 23.7173 10.4393 23.7536 10.392 23.7819C10.3918 23.782 10.3916 23.7821 10.3915 23.7822C10.3844 23.8047 10.3744 23.8399 10.3631 23.8911C10.3347 24.0199 10.3091 24.1943 10.2872 24.4081C10.2561 24.7131 10.2351 25.0711 10.2203 25.4427C10.3807 25.4908 10.5401 25.5378 10.6993 25.583L10.7053 25.5847L10.7053 25.5847C10.7578 25.6002 10.8102 25.6157 10.8625 25.6312C12.6108 26.148 14.2869 26.6434 15.9872 27.2339C21.1383 29.0214 24.3632 32.892 25.2806 38.3744C25.5437 39.9397 25.8429 41.5312 26.1371 43.0782C26.3351 44.1081 26.5333 45.1621 26.7237 46.2198C27.3021 46.2123 27.8945 46.2085 28.512 46.2085C29.0882 46.2085 29.6791 46.2124 30.2967 46.2202C30.5794 44.5836 30.8797 42.9471 31.1744 41.3542L31.3455 40.4227L31.5166 39.491C32.2709 35.3572 33.5901 30.9925 38.0694 28.7375C40.6634 27.4271 43.443 26.514 45.7834 25.7918L45.7883 25.7903L46.0512 25.7118C46.0525 25.7114 46.0537 25.711 46.055 25.7106C46.1596 25.6778 46.2645 25.6454 46.3676 25.6135C46.4974 25.5733 46.6245 25.534 46.7448 25.496C46.7092 25.1938 46.6613 24.8499 46.6141 24.5122C46.614 24.5119 46.614 24.5115 46.6139 24.5112L46.6027 24.4328C46.5609 24.1414 46.5184 23.846 46.4791 23.5993C46.2466 23.5303 45.9659 23.4542 45.6872 23.3801C45.6174 23.3619 45.5511 23.3426 45.4935 23.3255L45.4712 23.3189C45.4202 23.3038 45.3769 23.291 45.3337 23.2792L45.3272 23.2775L45.3273 23.2774L45.3212 23.2757C45.0752 23.2057 44.888 23.1525 44.7272 23.1213L44.7252 23.1209C43.2425 22.8277 41.749 22.5099 40.3069 22.1991L40.3071 22.1991L40.4296 21.6271L40.3063 22.1989L27.2722 20.2547ZM27.2722 20.2547V20.2604H27.8572C28.7491 20.2604 29.6276 20.309 30.4688 20.4057L27.2722 20.2547ZM45.2411 20.4088L45.3537 19.8348C43.9141 19.5525 42.4678 19.2415 41.0156 18.9293C37.6554 18.207 34.2636 17.4778 30.8502 17.0805L30.8486 17.0803C29.8397 16.9658 28.8445 16.915 27.8572 16.915C23.2662 16.915 18.7692 18.0595 14.3797 19.1767C13.7551 19.3356 13.1327 19.494 12.5125 19.6485L12.512 19.6486C11.3013 19.9514 10.3362 20.2052 9.5879 20.5005C8.83157 20.7991 8.23613 21.1624 7.81001 21.7202C7.3861 22.2751 7.18022 22.9568 7.06832 23.7891C6.9571 24.6165 6.93148 25.6586 6.91505 26.9713L6.915 26.9713V26.9786C6.915 27.1335 6.92704 27.2947 6.9373 27.4319C6.94062 27.4765 6.94377 27.5185 6.94624 27.557L6.97224 27.9604L7.35878 28.0787C8.19958 28.3361 9.02431 28.5798 9.83695 28.82C11.5792 29.3348 13.2659 29.8333 14.9363 30.415L14.937 30.4153C16.9496 31.1134 18.5402 32.1638 19.7184 33.5651C20.8968 34.9666 21.6871 36.7482 22.0542 38.9462C22.3162 40.5193 22.6195 42.1211 22.9213 43.7146C23.1746 45.0524 23.4269 46.3844 23.6527 47.6889C23.7366 48.1764 23.8858 48.6677 24.2269 49.0337C24.5921 49.4256 25.0899 49.585 25.6707 49.585H25.6709H25.671H25.6712H25.6713H25.6714H25.6716H25.6717H25.6719H25.672H25.6721H25.6723H25.6724H25.6726H25.6727H25.6728H25.673H25.6731H25.6733H25.6734H25.6735H25.6737H25.6738H25.6739H25.6741H25.6742H25.6744H25.6745H25.6746H25.6748H25.6749H25.675H25.6752H25.6753H25.6755H25.6756H25.6757H25.6759H25.676H25.6761H25.6763H25.6764H25.6765H25.6767H25.6768H25.6769H25.6771H25.6772H25.6774H25.6775H25.6776H25.6778H25.6779H25.678H25.6782H25.6783H25.6784H25.6786H25.6787H25.6788H25.679H25.6791H25.6792H25.6794H25.6795H25.6796H25.6798H25.6799H25.68H25.6802H25.6803H25.6804H25.6806H25.6807H25.6808H25.681H25.6811H25.6812H25.6813H25.6815H25.6816H25.6817H25.6819H25.682H25.6821H25.6823H25.6824H25.6825H25.6827H25.6828H25.6829H25.6831H25.6832H25.6833H25.6834H25.6836H25.6837H25.6838H25.684H25.6841H25.6842H25.6844H25.6845H25.6846H25.6847H25.6849H25.685H25.6851H25.6853H25.6854H25.6855H25.6856H25.6858H25.6859H25.686H25.6862H25.6863H25.6864H25.6865H25.6867H25.6868H25.6869H25.6871H25.6872H25.6873H25.6874H25.6876H25.6877H25.6878H25.688H25.6881H25.6882H25.6883H25.6885H25.6886H25.6887H25.6888H25.689H25.6891H25.6892H25.6894H25.6895H25.6896H25.6897H25.6899H25.69H25.6901H25.6902H25.6904H25.6905H25.6906H25.6907H25.6909H25.691H25.6911H25.6912H25.6914H25.6915H25.6916H25.6917H25.6919H25.692H25.6921H25.6923H25.6924H25.6925H25.6926H25.6928H25.6929H25.693H25.6931H25.6933H25.6934H25.6935H25.6936H25.6938H25.6939H25.694H25.6941H25.6943H25.6944H25.6945H25.6946H25.6948H25.6949H25.695H25.6951H25.6953H25.6954H25.6955H25.6956H25.6957H25.6959H25.696H25.6961H25.6962H25.6964H25.6965H25.6966H25.6967H25.6969H25.697H25.6971H25.6972H25.6974H25.6975H25.6976H25.6977H25.6979H25.698H25.6981H25.6982H25.6984H25.6985H25.6986H25.6987H25.6988H25.699H25.6991H25.6992H25.6993H25.6995H25.6996H25.6997H25.6998H25.7H25.7001H25.7002H25.7003H25.7005H25.7006H25.7007H25.7008H25.7009H25.7011H25.7012H25.7013H25.7014H25.7016H25.7017H25.7018H25.7019H25.7021H25.7022H25.7023H25.7024H25.7025H25.7027H25.7028H25.7029H25.703H25.7032H25.7033H25.7034H25.7035H25.7037H25.7038H25.7039H25.704H25.7042H25.7043H25.7044H25.7045H25.7046H25.7048H25.7049H25.705H25.7051H25.7053H25.7054H25.7055H25.7056H25.7058H25.7059H25.706H25.7061H25.7062H25.7064H25.7065H25.7066H25.7067H25.7069H25.707H25.7071H25.7072H25.7074H25.7075H25.7076H25.7077H25.7078H25.708H25.7081H25.7082H25.7083H25.7085H25.7086H25.7087H25.7088H25.709H25.7091H25.7092H25.7093H25.7095H25.7096H25.7097H25.7098H25.71H25.7101H25.7102H25.7103H25.7104H25.7106H25.7107H25.7108H25.7109H25.7111H25.7112H25.7113H25.7114H25.7116H25.7117H25.7118H25.7119H25.7121H25.7122H25.7123H25.7124H25.7126H25.7127H25.7128H25.7129H25.7131H25.7132H25.7133H25.7134H25.7136H25.7137H25.7138H25.7139H25.7141H25.7142H25.7143H25.7144H25.7146H25.7147H25.7148H25.7149H25.7151H25.7152H25.7153H25.7154H25.7156H25.7157H25.7158H25.7159H25.7161H25.7162H25.7163H25.7164H25.7166H25.7167H25.7168H25.7169H25.7171H25.7172H25.7173H25.7175H25.7176H25.7177H25.7178H25.718H25.7181H25.7182H25.7183H25.7185H25.7186H25.7187H25.7188H25.719H25.7191H25.7192H25.7194H25.7195H25.7196H25.7197H25.7199H25.72H25.7201H25.7202H25.7204H25.7205H25.7206H25.7208H25.7209H25.721H25.7211H25.7213H25.7214H25.7215H25.7217H25.7218H25.7219H25.722H25.7222H25.7223H25.7224H25.7226H25.7227H25.7228H25.7229H25.7231H25.7232H25.7233H25.7235H25.7236H25.7237H25.7239H25.724H25.7241H25.7242H25.7244H25.7245H25.7246H25.7248H25.7249H25.725H25.7252H25.7253H25.7254H25.7256H25.7257H25.7258H25.726H25.7261H25.7262H25.7263H25.7265H25.7266H25.7267H25.7269H25.727H25.7271H25.7273H25.7274H25.7275H25.7277H25.7278H25.7279H25.7281H25.7282H25.7283H25.7285H25.7286H25.7287H25.7289H25.729H25.7291H25.7293H25.7294H25.7295H25.7297H25.7298H25.7299H25.7301H25.7302H25.7303H25.7305H25.7306H25.7307H25.7309H25.731H25.7312H25.7313H25.7314H25.7316H25.7317H25.7318H25.732H25.7321H25.7322H25.7324H25.7325H25.7327H25.7328H25.7329H25.7331H25.7332H25.7333H25.7335H25.7336H25.7338H25.7339H25.734H25.7342H25.7343H25.7344H25.7346H25.7347H25.7349H25.735H25.7351H25.7353H25.7354H25.7356H25.7357H25.7358H25.736H25.7361H25.7363H25.7364H25.7365H25.7367H25.7368H25.7447L25.7525 49.5848C26.6701 49.5601 27.5892 49.5539 28.512 49.5539C29.4392 49.5539 30.3671 49.5662 31.3053 49.5785L31.3215 49.5787L31.3215 49.5788H31.3292H31.3293H31.3294H31.3295H31.3296H31.3297H31.3298H31.3299H31.33H31.3301H31.3302H31.3304H31.3305H31.3306H31.3307H31.3308H31.3309H31.331H31.3311H31.3312H31.3313H31.3314H31.3315H31.3316H31.3317H31.3318H31.3319H31.332H31.3321H31.3322H31.3323H31.3324H31.3325H31.3326H31.3327H31.3328H31.3329H31.333H31.3331H31.3332H31.3333H31.3334H31.3335H31.3336H31.3337H31.3338H31.3339H31.334H31.3341H31.3342H31.3343H31.3344H31.3345H31.3346H31.3347H31.3348H31.3349H31.335H31.3351H31.3352H31.3353H31.3354H31.3355H31.3356H31.3357H31.3358H31.3359H31.336H31.3361H31.3362H31.3363H31.3364H31.3365H31.3366H31.3367H31.3368H31.3369H31.337H31.3371H31.3372H31.3373H31.3374H31.3374H31.3375H31.3376H31.3377H31.3378H31.3379H31.338H31.3381H31.3382H31.3383H31.3384H31.3385H31.3386H31.3387H31.3388H31.3389H31.339H31.3391H31.3392H31.3393H31.3394H31.3394H31.3395H31.3396H31.3397H31.3398H31.3399H31.34H31.3401H31.3402H31.3403H31.3404H31.3405H31.3406H31.3407H31.3408H31.3409H31.3409H31.341H31.3411H31.3412H31.3413H31.3414H31.3415H31.3416H31.3417H31.3418H31.3419H31.342H31.3421H31.3421H31.3422H31.3423H31.3424H31.3425H31.3426H31.3427H31.3428H31.3429H31.343H31.3431H31.3432H31.3432H31.3433H31.3434H31.3435H31.3436H31.3437H31.3438H31.3439H31.344H31.3441H31.3442H31.3442H31.3443H31.3444H31.3445H31.3446H31.3447H31.3448H31.3449H31.345H31.3451H31.3452H31.3452H31.3453H31.3454H31.3455H31.3456H31.3457H31.3458H31.3459H31.346H31.3461H31.3461H31.3462H31.3463H31.3464H31.3465H31.3466H31.3467H31.3468H31.3469H31.3469H31.347H31.3471H31.3472H31.3473H31.3474H31.3475H31.3476H31.3477H31.3478H31.3478H31.3479H31.348H31.3481H31.3482H31.3483H31.3484H31.3485H31.3486H31.3486H31.3487H31.3488H31.3489H31.349H31.3491H31.3492H31.3493H31.3493H31.3494H31.3495H31.3496H31.3497H31.3498H31.3499H31.35H31.3501H31.3501H31.3502H31.3503H31.3504H31.3505H31.3506H31.3507H31.3508H31.3509H31.3509H31.351H31.3511H31.3512H31.3513H31.3514H31.3515H31.3516H31.3516H31.3517H31.3518H31.3519H31.352H31.3521H31.3522H31.3523H31.3523H31.3524H31.3525H31.3526H31.3527H31.3528H31.3529H31.353H31.3531H31.3531H31.3532H31.3533H31.3534H31.3535H31.3536H31.3537H31.3538H31.3538H31.3539H31.354H31.3541H31.3542H31.3543H31.3544H31.3545H31.3545H31.3546H31.3547H31.3548H31.3549H31.355H31.3551H31.3552H31.3553H31.3553H31.3554H31.3555H31.3556H31.3557H31.3558H31.3559H31.356H31.356H31.3561H31.3562H31.3563H31.3564H31.3565H31.3566H31.3567H31.3568H31.3568H31.3569H31.357H31.3571H31.3572H31.3573H31.3574H31.3575H31.3576H31.3576H31.3577H31.3578H31.3579H31.358H31.3581H31.3582H31.3583H31.3583H31.3584H31.3585H31.3586H31.3587H31.3588H31.3589H31.359H31.3591H31.3592H31.3592H31.3593H31.3594H31.3595H31.3596H31.3597H31.3598H31.3599H31.36H31.36H31.3601H31.3602H31.3603H31.3604H31.3605H31.3606H31.3607H31.3608H31.3609H31.3609H31.361H31.3611H31.3612H31.3613H31.3614H31.3615H31.3616H31.3617H31.3618H31.3618H31.3619H31.362H31.3621H31.3622H31.3623H31.3624H31.3625H31.3626H31.3627H31.3628H31.3628H31.3629H31.363H31.3631H31.3632H31.3633H31.3634H31.3635H31.3636H31.3637H31.3638H31.3638H31.3639H31.364H31.3641H31.3642H31.3643H31.3644H31.3645H31.3646H31.3647H31.3648H31.3649H31.365H31.365H31.3651H31.3652H31.3653H31.3654H31.3655H31.3656H31.3657H31.3658H31.3659H31.366H31.3661H31.3662H31.3663H31.3664H31.3664H31.3665H31.3666H31.3667H31.3668H31.3669H31.367H31.3671H31.3672H31.3673H31.3674H31.3675H31.3676H31.3677H31.3678H31.3679H31.368H31.3681H31.3681H31.3682H31.3683H31.3684H31.3685H31.3686H31.3687H31.3688H31.3689H31.369H31.3691H31.3692H31.3693H31.3694H31.3695H31.3696H31.3697H31.3698H31.3699H31.37H31.3701H31.3702H31.3703H31.3704H31.3705H31.3706H31.3707H31.3708H31.3709H31.371H31.3711H31.3711H31.3712H31.3713H31.3714H31.3715H31.3716H31.3717H31.3718H31.3719H31.372H31.3721H31.3722H31.3723H31.3724H31.3725H31.3726H31.3727H31.3728H31.3729H31.373H31.3731H31.3732H31.3733H31.3734H31.3735H31.3736H31.3737H31.3738H31.3739H31.374H31.3741H31.3743H31.3744H31.3745H31.3746H31.3747H31.3748H31.3749H31.375H31.3751H31.3752H31.3753H31.3754H31.3755H31.3756H31.3757H31.3758H31.3759H31.376H31.3761H31.3762H31.3763H31.3764H31.3765H31.3766H31.3767H31.3768H31.3769H31.377H31.3772H31.3773C31.9111 49.5788 32.3933 49.4461 32.7595 49.0864C33.1098 48.7423 33.2702 48.2704 33.3536 47.7804L33.3539 47.7782C33.6825 45.8007 34.0466 43.8281 34.4116 41.8505C34.5192 41.2672 34.627 40.6835 34.7339 40.0991L34.7339 40.099C35.3892 36.516 36.346 33.3279 39.515 31.734C41.7942 30.5883 44.2487 29.7545 46.7285 28.9922C46.8211 28.9638 46.9116 28.9362 47 28.9092C47.6509 28.7106 48.1901 28.5461 48.6061 28.3754C49.0812 28.1804 49.5019 27.9375 49.7721 27.5237C50.0424 27.1096 50.0983 26.6224 50.0826 26.0925C50.067 25.5636 49.9741 24.8877 49.8572 24.0396L49.8534 24.0117C49.7636 23.3539 49.6907 22.8197 49.5926 22.3986C49.4918 21.9657 49.3503 21.5838 49.0814 21.2676C48.8101 20.9485 48.4589 20.7544 48.0539 20.599C47.6642 20.4493 47.1658 20.3146 46.5591 20.1506L46.5291 20.1424L46.5251 20.1414C46.4244 20.1149 46.3128 20.0831 46.1946 20.0493C45.9303 19.9738 45.6333 19.889 45.3525 19.8345L45.2411 20.4088ZM45.2411 20.4088C45.4974 20.4586 45.7483 20.5304 45.9993 20.6022C46.1248 20.6381 46.2502 20.674 46.3764 20.7072L28.4422 17.5062C29.2167 17.5225 29.9958 17.5723 30.7826 17.6616C34.1671 18.0555 37.5137 18.7751 40.861 19.4947C42.3198 19.8084 43.7788 20.1221 45.2411 20.4088Z" fill="white" stroke="white" stroke-width="1.17"/>
<path d="M33.748 27.2332C33.6802 29.6872 31.6817 31.5797 29.2427 31.4974C26.7844 31.4151 24.9068 29.4064 25.0036 26.967C25.1004 24.542 27.0506 22.6979 29.4605 22.7511C31.9236 22.8044 33.8206 24.7889 33.748 27.2332Z" stroke="white" stroke-width="2.7" stroke-miterlimit="10"/>
</svg>
